<?xml version="1.0" encoding="utf-8"?>
<!-- Generator: Adobe Illustrator 23.0.0, SVG Export Plug-In . SVG Version: 6.00 Build 0)  -->
<svg version="1.1" id="Layer_1" xmlns="http://www.w3.org/2000/svg" xmlns:xlink="http://www.w3.org/1999/xlink" x="0px" y="0px"
	 viewBox="0 0 50 50" style="enable-background:new 0 0 50 50;" xml:space="preserve">
<style type="text/css">
	.st0{fill:#FFFFFF;}
	.st1{fill:#B92B2B;}
	.st2{fill:#C37539;}
	.st3{fill:#727086;}
	.st4{fill:#E2D156;}
	.st5{fill:#1B1A3C;}
	.st6{fill:#C4C4CD;}
	.st7{fill:#467C99;}
	.st8{fill:#E58F22;}
	.st9{fill:#74CD30;}
	.st10{fill:#CD0700;}
	.st11{fill:#65B1E1;}
	.st12{fill:#121118;}
</style>
<g>
	<path class="st0" d="M0.67,19.46c0.18,0.13,0.33,0.22,0.46,0.28c0.49,0.21,0.97,0.08,2.44-0.66c0.29-0.15,0.56-0.24,0.81-0.3
		l-0.89-0.23l1.7-0.2c0.04,0,0.88-0.1,1.74,0.27c0.35,0.15,0.65,0.35,0.9,0.6c0.17,0.18,0.33,0.36,0.46,0.55
		c0.38-0.33,0.8-0.46,1.18-0.35l0.57,0.14c0.51-0.25,1.09-0.36,1.72-0.31c0.77,0.06,1.53,0.24,2.25,0.55
		c0.23,0.1,0.43,0.2,0.59,0.29c0.17-0.29,0.36-0.56,0.56-0.81c-0.05-0.06-0.1-0.11-0.14-0.17l-0.75-0.21l0,0l0,0
		c-0.04-0.01-0.07-0.02-0.11-0.04c-0.38-0.16-0.65-0.56-0.76-1.12c-0.89,0.37-1.64,0.22-2.13,0.01c-0.35-0.15-0.68-0.38-0.95-0.65
		c-0.24-0.24-0.4-0.51-0.56-0.77c-0.23-0.38-0.44-0.71-0.82-0.88c-0.17-0.07-0.37-0.11-0.61-0.12c-0.35-0.01-0.66-0.07-0.92-0.18
		c-0.85-0.36-0.95-1.11-0.95-1.14l-0.09-0.74l0.59,0.45c0.18,0.13,0.33,0.22,0.46,0.28c0.49,0.21,0.97,0.08,2.44-0.66
		c0.29-0.15,0.56-0.24,0.81-0.3l-0.89-0.23l1.7-0.2c0.04,0,0.88-0.1,1.74,0.27c0.35,0.15,0.65,0.35,0.9,0.6
		c0.17,0.17,0.33,0.36,0.46,0.55c0.39-0.36,0.82-0.5,1.22-0.39l0.57,0.14c0.51-0.25,1.09-0.36,1.72-0.31
		c0.77,0.06,1.53,0.24,2.25,0.55c0.6,0.25,0.97,0.51,1.04,0.56c0.11,0.08,0.93,0.64,1.53,1.43c0.85-0.09,1.76-0.1,2.72-0.02
		c-0.06-0.09-0.11-0.19-0.16-0.28c-0.42-0.78-0.69-1.6-0.82-2.43c-0.07-0.48-0.1-0.98-0.07-1.62c0.01-0.33,0.07-0.68,0.17-1.08
		c0.12-0.45,0.3-0.88,0.55-1.28c0.19-0.29,0.41-0.57,0.67-0.81c0.42-0.4,0.91-0.72,1.47-0.95C28.2,7.17,29.06,7,29.97,7
		c0.7,0,1.41,0.1,2.13,0.3c0.28,0.08,0.54,0.17,0.79,0.27c0.19,0.08,0.38,0.17,0.55,0.27c0.36,0.21,0.67,0.44,0.95,0.71
		c0.24,0.24,0.45,0.5,0.62,0.78c0.04,0.01,0.08,0.02,0.12,0.04c0.07,0.03,0.13,0.07,0.2,0.12c0.08,0.06,0.15,0.13,0.21,0.22
		c0.16,0.2,0.27,0.44,0.35,0.73c0.12,0.45,0.15,0.81,0.08,1.16c-0.04,0.18-0.12,0.34-0.26,0.48c0,0.05,0,0.09,0,0.14l0,0.01
		c0,0.3,0,0.61-0.02,0.92c-0.02,0.34-0.06,0.7-0.12,1.07c-0.06,0.36-0.15,0.7-0.22,0.96c-0.05,0.19-0.11,0.37-0.18,0.54
		c0.08,0.02,0.17,0.04,0.26,0.06l0.06,0.01c0.04,0.01,0.08,0.02,0.12,0.02c0.08,0.01,0.17,0.03,0.27,0.06
		c0.14,0.04,0.27,0.09,0.38,0.14l0.03,0.01l0.07,0.03c0.05,0.02,0.11,0.04,0.16,0.07c0.1,0.04,0.18,0.08,0.26,0.12
		c0.02,0.01,0.04,0.02,0.07,0.03c0.19,0.1,0.41,0.21,0.61,0.38c0.03,0.03,0.07,0.05,0.11,0.09c0.05,0.04,0.12,0.09,0.18,0.14
		c0.07,0.06,0.13,0.13,0.2,0.19c0.04,0.04,0.09,0.08,0.13,0.12c0.26,0.24,0.48,0.51,0.64,0.82c0.17,0.31,0.3,0.56,0.42,0.78
		c0.13,0.26,0.26,0.52,0.39,0.77l0,0.01c0.07,0.13,0.14,0.27,0.2,0.4c0.02,0.05,0.05,0.1,0.08,0.14c0.06,0.1,0.11,0.21,0.16,0.33
		c0.03,0.06,0.06,0.11,0.1,0.17l0.01,0.01c0.02,0.02,0.03,0.04,0.05,0.06l0.01,0.01l0,0c0.43,0.26,2.51,1.53,4.64,3.29
		c0.15-0.03,0.3-0.03,0.44-0.01c0.11,0.02,0.21,0.04,0.31,0.09c0.47,0.2,0.78,0.68,0.93,1.42c0.42,0.41,0.82,0.83,1.17,1.23
		c0.18-0.02,0.36,0,0.52,0.07c0.06,0.03,0.12,0.06,0.18,0.1c0.72,0.51,0.82,1.47,0.82,1.94c0.76,1.36,1.01,2.64,0.75,3.8
		c-0.17,0.75-0.52,1.47-1.05,2.12c-0.5,0.62-1.17,1.2-1.97,1.7c-0.3,0.41-0.75,0.87-1.3,0.89c-0.11,0-0.22-0.01-0.32-0.04
		c-0.73,0.32-1.54,0.6-2.42,0.83c-0.29,0.29-1.03,0.93-1.88,0.72c-0.07-0.02-0.14-0.04-0.2-0.07c-0.09-0.04-0.18-0.09-0.27-0.15
		c-3.31,0.54-7.07,0.48-10.32-0.15c-2.58-0.5-5.58-1.16-8.26-2.3c-1.09-0.46-2.06-0.98-2.89-1.53c-0.31-0.21-0.62-0.44-0.91-0.67
		c-1.04,0.45-2.31,0.62-3.38,0.44c-0.62-0.11-1.16-0.26-1.62-0.45c-0.64-0.27-1.14-0.64-1.49-1.1l-0.75-0.21l0,0l0,0
		c-0.04-0.01-0.07-0.02-0.11-0.04c-0.27-0.12-0.49-0.35-0.63-0.68c-0.86,0.33-1.58,0.18-2.06-0.02c-0.35-0.15-0.68-0.38-0.95-0.65
		c-0.24-0.24-0.4-0.51-0.56-0.77c-0.23-0.38-0.44-0.71-0.82-0.88c-0.17-0.07-0.37-0.11-0.61-0.12c-0.35-0.01-0.66-0.07-0.92-0.18
		c-0.85-0.36-0.95-1.11-0.95-1.14l-0.09-0.74l0.59,0.45c0.18,0.13,0.33,0.22,0.46,0.28c0.49,0.21,0.97,0.08,2.44-0.66
		c0.29-0.15,0.56-0.24,0.81-0.3l-0.89-0.23l1.7-0.2c0.04,0,0.88-0.1,1.74,0.27c0.35,0.15,0.65,0.35,0.9,0.6
		c0.06,0.06,0.13,0.13,0.19,0.2c0.41-0.41,0.87-0.57,1.29-0.46l0.57,0.14c0.08-0.04,0.16-0.07,0.24-0.11
		c-0.06-0.31-0.1-0.61-0.13-0.92c-0.44,0.03-0.87,0.01-1.26-0.06c-0.62-0.11-1.16-0.26-1.62-0.45c-0.64-0.27-1.14-0.64-1.49-1.1
		l-0.75-0.21l0,0l0,0c-0.04-0.01-0.07-0.02-0.11-0.04c-0.39-0.17-0.66-0.57-0.76-1.14c-0.87,0.34-1.6,0.2-2.09-0.01
		c-0.35-0.15-0.68-0.38-0.95-0.65c-0.24-0.24-0.4-0.51-0.56-0.77c-0.23-0.38-0.44-0.71-0.82-0.88c-0.17-0.07-0.37-0.11-0.61-0.12
		c-0.35-0.01-0.66-0.07-0.92-0.18c-0.85-0.36-0.95-1.11-0.95-1.14l-0.09-0.74L0.67,19.46z"/>
	<g>
		<g>
			<path class="st1" d="M3.71,19.36c1.83-0.92,2.53,0.29,2.53,0.29c-0.05-0.74-1.02-0.98-1.02-0.98s1.44-0.17,2.38,0.78
				c0.43,0.43,0.65,0.85,0.77,1.18c0.07,0.22,0.19,0.72-0.01,1.26c-0.21,0.56-0.72,0.96-1.07,1.16c-1.31,0.71-2.44,0.2-3.04-0.43
				c-0.7-0.73-0.76-1.82-2.21-1.86c-1.44-0.04-1.57-1.05-1.57-1.05C1.37,20.38,1.88,20.27,3.71,19.36z"/>
			<path class="st2" d="M1.78,20.41c0.52-0.06,1.12-0.33,2.06-0.8c0.66-0.33,1.14-0.35,1.48-0.27v0c0,0,0.05,0.01,0.14,0.04
				c0.02,0.01,0.05,0.02,0.08,0.03c0,0,0,0,0,0c0.52,0.2,0.85,0.6,1.04,0.88c0.12,0.19,0.18,0.32,0.18,0.32
				c0.3-0.88-0.4-1.56-0.4-1.56c0.35,0.1,0.74,0.27,1.05,0.59c0.33,0.33,0.57,0.69,0.7,1.07c0.06,0.17,0.17,0.6,0,1.06
				c-0.2,0.55-0.77,0.91-0.94,1.01c-1.42,0.77-2.42-0.09-2.7-0.38c-0.19-0.19-0.33-0.42-0.48-0.66c-0.36-0.59-0.76-1.25-1.93-1.28
				c-0.15,0-0.28-0.02-0.4-0.04C1.7,20.42,1.74,20.42,1.78,20.41z"/>
			<path class="st3" d="M5.54,19.41c-0.03-0.01-0.05-0.02-0.08-0.03C5.49,19.39,5.51,19.4,5.54,19.41z"/>
			<path class="st4" d="M7.09,19.7c0,0,1.22,0.66,0.83,2.03s-2.46,0.37-3.09-0.65s-1.68-0.69-1.68-0.69s1.2-1.01,2.23-0.34
				c1.03,0.67,1.28,1.59,1.89,1.71c0.61,0.12-0.34-0.25-0.23-1.01C7.15,19.99,7.27,20.04,7.09,19.7z"/>
		</g>
		<g>
			<path class="st1" d="M9.99,13.6c1.83-0.92,2.53,0.29,2.53,0.29c-0.05-0.74-1.02-0.98-1.02-0.98s1.44-0.17,2.38,0.78
				c0.43,0.43,0.65,0.85,0.77,1.18c0.07,0.22,0.19,0.72-0.01,1.26c-0.21,0.56-0.72,0.96-1.07,1.16c-1.31,0.71-2.44,0.2-3.04-0.43
				c-0.7-0.73-0.76-1.82-2.21-1.86s-1.57-1.05-1.57-1.05C7.65,14.62,8.17,14.52,9.99,13.6z"/>
			<path class="st2" d="M8.06,14.65c0.52-0.06,1.12-0.33,2.06-0.8c0.66-0.33,1.14-0.35,1.48-0.27v0c0,0,0.05,0.01,0.14,0.04
				c0.02,0.01,0.05,0.02,0.08,0.03c0,0,0,0,0,0c0.52,0.2,0.85,0.6,1.04,0.88c0.12,0.19,0.18,0.32,0.18,0.32
				c0.3-0.88-0.4-1.56-0.4-1.56c0.35,0.1,0.74,0.27,1.05,0.59c0.33,0.33,0.57,0.69,0.7,1.07c0.06,0.17,0.17,0.6,0,1.06
				c-0.2,0.55-0.77,0.91-0.94,1.01c-1.42,0.77-2.42-0.09-2.7-0.38c-0.19-0.19-0.33-0.42-0.48-0.66c-0.36-0.59-0.76-1.25-1.93-1.28
				c-0.15,0-0.28-0.02-0.4-0.04C7.98,14.66,8.02,14.66,8.06,14.65z"/>
			<path class="st3" d="M11.82,13.66c-0.03-0.01-0.05-0.02-0.08-0.03C11.77,13.63,11.79,13.64,11.82,13.66z"/>
			<path class="st4" d="M13.37,13.94c0,0,1.22,0.66,0.83,2.03c-0.39,1.37-2.46,0.37-3.09-0.65c-0.63-1.02-1.68-0.69-1.68-0.69
				s1.2-1.01,2.23-0.34c1.03,0.67,1.28,1.59,1.89,1.71c0.61,0.12-0.34-0.25-0.23-1.01C13.43,14.23,13.55,14.28,13.37,13.94z"/>
		</g>
		<g>
			<path class="st1" d="M6.79,27.78c1.83-0.92,2.53,0.29,2.53,0.29c-0.05-0.74-1.02-0.98-1.02-0.98s1.44-0.17,2.38,0.78
				c0.43,0.43,0.65,0.85,0.77,1.18c0.07,0.22,0.19,0.72-0.01,1.26c-0.21,0.56-0.72,0.96-1.07,1.16c-1.31,0.71-2.44,0.2-3.04-0.43
				c-0.7-0.73-0.76-1.82-2.21-1.86c-1.44-0.04-1.57-1.05-1.57-1.05C4.45,28.8,4.96,28.7,6.79,27.78z"/>
			<path class="st2" d="M4.86,28.84c0.52-0.06,1.12-0.33,2.06-0.8c0.66-0.33,1.14-0.35,1.48-0.27v0c0,0,0.05,0.01,0.14,0.04
				c0.02,0.01,0.05,0.02,0.08,0.03c0,0,0,0,0,0c0.52,0.2,0.85,0.6,1.04,0.88c0.12,0.19,0.18,0.32,0.18,0.32
				c0.3-0.88-0.4-1.56-0.4-1.56c0.35,0.1,0.74,0.27,1.05,0.59c0.33,0.33,0.57,0.69,0.7,1.07c0.06,0.17,0.17,0.6,0,1.06
				c-0.2,0.55-0.77,0.91-0.94,1.01c-1.42,0.77-2.42-0.09-2.7-0.38c-0.19-0.19-0.33-0.42-0.48-0.66c-0.36-0.59-0.76-1.25-1.93-1.28
				c-0.15,0-0.28-0.02-0.4-0.04C4.78,28.85,4.82,28.84,4.86,28.84z"/>
			<path class="st3" d="M8.62,27.84c-0.03-0.01-0.05-0.02-0.08-0.03C8.56,27.82,8.59,27.83,8.62,27.84z"/>
			<path class="st4" d="M10.17,28.13c0,0,1.22,0.66,0.83,2.03c-0.39,1.37-2.46,0.37-3.09-0.65c-0.63-1.02-1.68-0.69-1.68-0.69
				s1.2-1.01,2.23-0.34c1.03,0.67,1.28,1.59,1.89,1.71c0.61,0.12-0.34-0.25-0.23-1.01S10.34,28.46,10.17,28.13z"/>
		</g>
		<g>
			<g>
				<path class="st5" d="M12.3,27.69l0.69,0.17l0,0c0.47-0.26,1.03-0.38,1.65-0.33c1.82,0.13,3.05,0.99,3.14,1.05
					c0.14,0.09,2.49,1.7,2.01,3.34c-0.48,1.63-3.09,2.51-5.02,2.18c-0.6-0.1-1.11-0.24-1.55-0.43c-0.63-0.27-1.11-0.63-1.42-1.09
					l0,0l-0.86-0.24c-0.03-0.01-0.05-0.02-0.07-0.03c-0.61-0.26-0.8-1.39-0.43-2.65C10.82,28.37,11.63,27.5,12.3,27.69z"/>
				<path class="st3" d="M11.42,30.29c-0.14,0.7-0.09,1.32,0.13,1.84l-0.51-0.14c-0.39-0.11-0.6-1.05-0.26-2.22
					c0.34-1.16,1.02-1.84,1.41-1.73l0.01,0l0.37,0.09C12.01,28.61,11.61,29.35,11.42,30.29z"/>
				<path class="st3" d="M14.62,27.9c0.82,0.06,1.52,0.28,2.03,0.5c0.57,0.24,0.91,0.48,0.92,0.49l0.01,0
					c0.02,0.02,2.27,1.54,1.86,2.93c-0.42,1.43-2.86,2.22-4.6,1.92c-1.35-0.23-2.27-0.69-2.74-1.37c-0.36-0.53-0.47-1.2-0.31-2.01
					C11.94,29.57,12.52,27.74,14.62,27.9z"/>
				<g>
					<path class="st0" d="M17.43,29.21L17.43,29.21c-0.01-0.01-0.35-0.25-0.92-0.49c-0.51-0.22-1.21-0.44-2.03-0.5
						c-1.41-0.1-2.13,0.69-2.51,1.46c0.32-0.85,1.03-1.9,2.64-1.79c0.82,0.06,1.52,0.28,2.03,0.5c0.57,0.24,0.91,0.48,0.92,0.49
						l0.01,0c0.02,0.02,2.27,1.54,1.86,2.93c-0.03,0.12-0.08,0.23-0.14,0.34c0,0,0-0.01,0-0.01C19.7,30.75,17.46,29.23,17.43,29.21z
						"/>
				</g>
				<path class="st3" d="M14.6,28.1c0.67,0.05,1.33,0.21,1.96,0.48c0.55,0.23,0.87,0.46,0.88,0.47l0.01,0.01
					c0.6,0.4,2.08,1.67,1.78,2.7c-0.38,1.29-2.72,2.06-4.37,1.78c-1.29-0.22-2.16-0.65-2.6-1.28c-0.33-0.48-0.42-1.1-0.28-1.85
					C12.17,29.49,12.74,27.97,14.6,28.1z"/>
				<path class="st6" d="M14.96,29.05c0,0-1.05-0.06-1.79,0.58c-0.74,0.63-0.8,0.81-0.8,0.81S13.98,29.13,14.96,29.05z"/>
				<path class="st5" d="M12.47,31.18c1.86,1.56,4.79,1.41,5.81,0.92c1.02-0.49,0.61-1.44,0.61-1.44l0.07-0.1
					c0.25,0.39,0.38,0.81,0.27,1.2c-0.38,1.29-2.72,2.06-4.37,1.78c-1.29-0.22-2.16-0.65-2.6-1.28c-0.28-0.41-0.39-0.93-0.33-1.54
					C12.1,30.85,12.27,31.01,12.47,31.18z"/>
				<path class="st5" d="M11.28,29.97c-0.02,0.09-0.04,0.19-0.06,0.28c-0.11,0.58-0.11,1.1,0.01,1.58l-0.13-0.04
					c-0.04-0.01-0.09-0.06-0.13-0.14c-0.17-0.3-0.22-0.98,0.02-1.82c0.02-0.07,0.04-0.13,0.06-0.19
					C11.13,29.76,11.2,29.87,11.28,29.97z"/>
				<path class="st6" d="M12.2,29.67c0.32-0.82,0.99-1.67,2.4-1.56c0.67,0.05,1.33,0.21,1.96,0.48c0.55,0.23,0.87,0.46,0.88,0.47
					l0.01,0.01c0.48,0.32,1.54,1.21,1.77,2.08c-0.02-0.03-0.92-1.62-2.13-1.47c-1.21,0.15-2.4,0.84-2.4,0.84s0.06-0.68,0.89-1.2
					C16.42,28.79,13.63,27.83,12.2,29.67z"/>
				<path class="st5" d="M17.09,32.13c0,0-1.61,0.08-2.47-0.2c-0.86-0.27-0.96-0.31-0.96-0.31s1.42,0.16,2.02,0.27
					C16.29,32.01,17.09,32.13,17.09,32.13z"/>
				<path class="st0" d="M12.2,28.05L12.2,28.05l0.38,0.09c-0.1,0.08-0.19,0.17-0.27,0.26c-0.1-0.06-0.28-0.13-0.54-0.03
					c-0.42,0.15-0.8,0.96-0.93,1.27C11.18,28.56,11.82,27.94,12.2,28.05z"/>
			</g>
			<polyline class="st3" points="16.15,31.13 14.25,33.06 15.39,31.36 			"/>
			<polyline class="st5" points="14.63,32.48 15.75,30.8 14.2,32.42 			"/>
			<path class="st0" d="M17.93,29.42c-0.01-0.03-0.75-0.56-1.56-0.23c0,0,0.82-0.36,0.09-0.65c0,0,0.22-0.02,0.32,0.02
				c0.1,0.04,0.18,0.08,0.38,0.18c0.2,0.1,0.29,0.14,0.41,0.21c0.12,0.07,0.28,0.24,0.28,0.24l0.13,0.09"/>
		</g>
		<g>
			<g>
				<path class="st5" d="M15.7,13.92l0.69,0.17l0,0c0.47-0.26,1.03-0.38,1.65-0.33c1.82,0.13,3.05,0.99,3.14,1.05
					c0.14,0.09,2.49,1.7,2.01,3.34c-0.48,1.63-3.09,2.51-5.02,2.18c-0.6-0.1-1.11-0.24-1.55-0.43c-0.63-0.27-1.11-0.63-1.42-1.09
					l0,0l-0.86-0.24c-0.03-0.01-0.05-0.02-0.07-0.03c-0.61-0.26-0.8-1.39-0.43-2.65C14.22,14.6,15.04,13.73,15.7,13.92z"/>
				<path class="st3" d="M14.82,16.52c-0.14,0.7-0.09,1.32,0.13,1.84l-0.51-0.14c-0.39-0.11-0.6-1.05-0.26-2.22
					c0.34-1.16,1.02-1.84,1.41-1.73l0.01,0l0.37,0.09C15.41,14.85,15.01,15.58,14.82,16.52z"/>
				<path class="st3" d="M18.02,14.13c0.82,0.06,1.52,0.28,2.03,0.5c0.57,0.24,0.91,0.48,0.92,0.49l0.01,0
					c0.02,0.02,2.27,1.54,1.86,2.93c-0.42,1.43-2.86,2.22-4.6,1.92c-1.35-0.23-2.27-0.69-2.74-1.37c-0.36-0.53-0.47-1.2-0.31-2.01
					C15.34,15.8,15.92,13.97,18.02,14.13z"/>
				<g>
					<path class="st0" d="M20.84,15.44L20.84,15.44c-0.01-0.01-0.35-0.25-0.92-0.49c-0.51-0.22-1.21-0.44-2.03-0.5
						c-1.41-0.1-2.13,0.69-2.51,1.46c0.32-0.85,1.03-1.9,2.64-1.79c0.82,0.06,1.52,0.28,2.03,0.5c0.57,0.24,0.91,0.48,0.92,0.49
						l0.01,0c0.02,0.02,2.27,1.54,1.86,2.93c-0.03,0.12-0.08,0.23-0.14,0.34c0,0,0-0.01,0-0.01C23.11,16.98,20.86,15.46,20.84,15.44
						z"/>
				</g>
				<path class="st3" d="M18,14.33c0.67,0.05,1.33,0.21,1.96,0.48c0.55,0.23,0.87,0.46,0.88,0.47l0.01,0.01
					c0.6,0.4,2.08,1.67,1.78,2.7c-0.38,1.29-2.72,2.06-4.37,1.78c-1.29-0.22-2.16-0.65-2.6-1.28c-0.33-0.48-0.42-1.1-0.28-1.85
					C15.57,15.72,16.15,14.2,18,14.33z"/>
				<path class="st6" d="M18.36,15.28c0,0-1.05-0.06-1.79,0.58c-0.74,0.63-0.8,0.81-0.8,0.81S17.38,15.36,18.36,15.28z"/>
				<path class="st5" d="M15.88,17.41c1.86,1.56,4.79,1.41,5.81,0.92c1.02-0.49,0.61-1.44,0.61-1.44l0.07-0.1
					c0.25,0.39,0.38,0.81,0.27,1.2c-0.38,1.29-2.72,2.06-4.37,1.78c-1.29-0.22-2.16-0.65-2.6-1.28c-0.28-0.41-0.39-0.93-0.33-1.54
					C15.5,17.08,15.68,17.24,15.88,17.41z"/>
				<path class="st5" d="M14.68,16.2c-0.02,0.09-0.04,0.19-0.06,0.28c-0.11,0.58-0.11,1.1,0.01,1.58l-0.13-0.04
					c-0.04-0.01-0.09-0.06-0.13-0.14c-0.17-0.3-0.22-0.98,0.02-1.82c0.02-0.07,0.04-0.13,0.06-0.19
					C14.53,15.99,14.61,16.1,14.68,16.2z"/>
				<path class="st6" d="M15.6,15.9c0.32-0.82,0.99-1.67,2.4-1.56c0.67,0.05,1.33,0.21,1.96,0.48c0.55,0.23,0.87,0.46,0.88,0.47
					l0.01,0.01c0.48,0.32,1.54,1.21,1.77,2.08c-0.02-0.03-0.92-1.62-2.13-1.47c-1.21,0.15-2.4,0.84-2.4,0.84s0.06-0.68,0.89-1.2
					C19.82,15.02,17.03,14.06,15.6,15.9z"/>
				<path class="st5" d="M20.49,18.36c0,0-1.61,0.08-2.47-0.2c-0.86-0.27-0.96-0.31-0.96-0.31s1.42,0.16,2.02,0.27
					C19.69,18.24,20.49,18.36,20.49,18.36z"/>
				<path class="st0" d="M15.6,14.28L15.6,14.28l0.38,0.09c-0.1,0.08-0.19,0.17-0.27,0.26c-0.1-0.06-0.28-0.13-0.54-0.03
					c-0.42,0.15-0.8,0.96-0.93,1.27C14.58,14.79,15.22,14.17,15.6,14.28z"/>
			</g>
			<polyline class="st3" points="19.55,17.36 17.65,19.29 18.79,17.59 			"/>
			<polyline class="st5" points="18.04,18.71 19.15,17.03 17.6,18.65 			"/>
			<path class="st0" d="M21.33,15.65c-0.01-0.03-0.75-0.56-1.56-0.23c0,0,0.82-0.36,0.09-0.65c0,0,0.22-0.02,0.32,0.02
				c0.1,0.04,0.18,0.08,0.38,0.18c0.2,0.1,0.29,0.14,0.41,0.21c0.12,0.07,0.28,0.24,0.28,0.24l0.13,0.09"/>
		</g>
		<path class="st6" d="M19.72,17.19c-0.61,0.3-1.18,0.68-1.68,1.13c-1.6,1.41-2.65,3.56-3.05,6.22c-0.34,2.25-0.1,4.25,0.69,5.94
			c0.23,0.49,0.51,0.95,0.83,1.4c-0.76-0.49-1.52-1.45-2.05-2.64c-0.81-1.83-0.99-3.9-0.5-5.84c0.69-2.74,2.1-4.69,4.08-5.66
			C18.66,17.44,19.24,17.27,19.72,17.19z"/>
		<path class="st5" d="M18.61,17.49c-0.36,0.22-0.69,0.47-1.01,0.75c-1.6,1.41-2.65,3.56-3.05,6.22c-0.34,2.25-0.1,4.25,0.69,5.94
			c0.1,0.2,0.2,0.41,0.32,0.6c-0.41-0.49-0.79-1.1-1.1-1.78c-0.81-1.83-0.99-3.9-0.5-5.84c0.69-2.74,2.1-4.69,4.08-5.66
			C18.24,17.64,18.42,17.56,18.61,17.49z"/>
		<path class="st6" d="M15.35,24.59c0.5-3.33,2.52-8.68,10.42-7.93c-0.06,0-0.13,0.01-0.19,0.01c-0.32,0.03-0.59,0.17-0.84,0.29
			c-0.36,0.18-0.67,0.43-0.93,0.75c-0.26,0.33-0.43,0.62-0.53,0.93c-0.15,0.48-0.23,0.96-0.22,1.44c0,0.08,0.01,0.17,0.02,0.25l0,0
			c0,0,0.04,0.6,0.3,1.13c-0.11,0.23-0.19,0.47-0.24,0.7c-0.08,0.36-0.09,0.73-0.02,1.11c0.03,0.18,0.12,0.35,0.25,0.52
			c0.12,0.15,0.24,0.29,0.36,0.43l0.03,0.04c0.1,0.11,0.19,0.22,0.29,0.33c0.1,0.11,0.21,0.23,0.31,0.35
			c0.28,0.32,0.6,0.6,0.95,0.82c0.16,0.1,0.33,0.2,0.49,0.29c0.07,0.04,0.14,0.08,0.21,0.12c0.02,0.01,0.05,0.03,0.07,0.04
			c0.07,0.04,0.13,0.08,0.21,0.11c0.11,0.06,0.23,0.11,0.35,0.16c0.05,0.02,0.1,0.04,0.14,0.07c0.01,0,0.01,0.01,0.02,0.01
			c0,0,0,0,0,0c0,0,0.01,0,0.01,0c0,0,0,0,0,0c0.05,0.03,0.11,0.06,0.16,0.09c0.15,0.06,0.31,0.1,0.5,0.11
			c0.1,0.01,0.2-0.02,0.3-0.07c0.02,0.03,0.04,0.06,0.06,0.09c0.1,0.17,0.24,0.31,0.46,0.44c0.23,0.14,0.46,0.27,0.69,0.39
			c0.08,0.04,0.16,0.09,0.24,0.13c0.09,0.05,0.19,0.1,0.29,0.14c0.16,0.07,0.34,0.13,0.54,0.19c0.12,0.03,0.24,0.03,0.36,0.02
			c0.14-0.01,0.29-0.03,0.42-0.13c0,0,0,0,0,0c0,0,0.2,0.01,0.43-0.13c0.03-0.02,0.06-0.04,0.08-0.07c0.16-0.15,0.22-0.37,0.22-0.37
			c0.15-0.1,0.24-0.24,0.28-0.38c0,0,0-0.01,0-0.01c0-0.01,0.01-0.02,0.01-0.03c0,0,0,0,0,0c0.02-0.08,0.03-0.15,0.04-0.21
			c0-0.05,0-0.1,0-0.15c0-0.01,0-0.02,0-0.03c0.17-0.15,0.25-0.34,0.24-0.54c0.32,0.07,0.62,0.12,0.91,0.15
			c0.24,0.03,0.47,0.05,0.7,0.06c0.04,0,0.09,0.01,0.13,0.01c0.1,0,0.21,0.01,0.32,0c2.32,0.01,4.09-0.76,5-1.23
			c1.16-0.61,1.27-1.72,1.27-1.72l0,0c0.03-0.16,0.05-0.33,0.05-0.51c0-0.17-0.02-0.33-0.04-0.47c-0.06-0.29-0.13-0.54-0.22-0.74
			c0.91,0.57,2.84,1.84,4.67,3.44c2.28,1.99,4.87,4.89,4.29,7.47c-0.52,2.3-3,4.11-6.98,5.09c-3.62,0.9-8.1,0.99-11.97,0.24
			c-3.71-0.72-7.9-1.72-10.9-3.73C16.05,31.84,14.73,28.74,15.35,24.59z"/>
		<path class="st3" d="M15.35,24.59c0.5-3.33,2.52-8.68,10.42-7.93c-0.06,0-0.13,0.01-0.19,0.01c-0.32,0.03-0.59,0.17-0.84,0.29
			c-0.36,0.18-0.67,0.43-0.93,0.75c-0.26,0.33-0.43,0.62-0.53,0.93c-0.15,0.48-0.23,0.96-0.22,1.44c0,0.08,0.01,0.17,0.02,0.25l0,0
			c0,0,0.04,0.6,0.3,1.13c-0.11,0.23-0.19,0.47-0.24,0.7c-0.08,0.36-0.09,0.73-0.02,1.11c0.03,0.18,0.12,0.35,0.25,0.52
			c0.12,0.15,0.24,0.29,0.36,0.43l0.03,0.04c0.1,0.11,0.19,0.22,0.29,0.33c0.1,0.11,0.21,0.23,0.31,0.35
			c0.28,0.32,0.6,0.6,0.95,0.82c0.16,0.1,0.33,0.2,0.49,0.29c0.07,0.04,0.14,0.08,0.21,0.12c0.02,0.01,0.05,0.03,0.07,0.04
			c0.07,0.04,0.13,0.08,0.21,0.11c0.11,0.06,0.23,0.11,0.35,0.16c0.05,0.02,0.1,0.04,0.14,0.07c0.01,0,0.01,0.01,0.02,0.01
			c0,0,0,0,0,0c0,0,0.01,0,0.01,0c0,0,0,0,0,0c0.05,0.03,0.11,0.06,0.16,0.09c0.15,0.06,0.31,0.1,0.5,0.11
			c0.1,0.01,0.2-0.02,0.3-0.07c0.02,0.03,0.04,0.06,0.06,0.09c0.1,0.17,0.24,0.31,0.46,0.44c0.23,0.14,0.46,0.27,0.69,0.39
			c0.08,0.04,0.16,0.09,0.24,0.13c0.09,0.05,0.19,0.1,0.29,0.14c0.16,0.07,0.34,0.13,0.54,0.19c0.12,0.03,0.24,0.03,0.36,0.02
			c0.14-0.01,0.29-0.03,0.42-0.13c0,0,0,0,0,0c0,0,0.2,0.01,0.43-0.13c0.03-0.02,0.06-0.04,0.08-0.07c0.16-0.15,0.22-0.37,0.22-0.37
			c0.15-0.1,0.24-0.24,0.28-0.38c0,0,0-0.01,0-0.01c0-0.01,0.01-0.02,0.01-0.03c0,0,0,0,0,0c0.02-0.08,0.03-0.15,0.04-0.21
			c0-0.05,0-0.1,0-0.15c0-0.01,0-0.02,0-0.03c0.17-0.15,0.25-0.34,0.24-0.54c0.32,0.07,0.62,0.12,0.91,0.15
			c0.24,0.03,0.47,0.05,0.7,0.06c0.04,0,0.09,0.01,0.13,0.01c0.1,0,0.21,0.01,0.32,0c2.32,0.01,4.09-0.76,5-1.23
			c1.16-0.61,1.27-1.72,1.27-1.72l0,0c0.03-0.16,0.05-0.33,0.05-0.51c0-0.17-0.02-0.33-0.04-0.47c-0.06-0.29-0.13-0.54-0.22-0.74
			c0.91,0.57,2.84,1.84,4.67,3.44c2.28,1.99,4.87,4.89,4.29,7.47c-0.52,2.3-3,4.11-6.98,5.09c-3.62,0.9-8.1,0.99-11.97,0.24
			c-3.71-0.72-7.9-1.72-10.9-3.73C16.05,31.84,14.73,28.74,15.35,24.59z"/>
		<g>
			<path class="st5" d="M13.61,23.31c-0.51,2.01-0.32,4.17,0.52,6.08c0.66,1.49,1.64,2.62,2.62,3.03c0.09,0.04,0.19,0.07,0.28,0.1
				c0.6,0.68,1.32,1.3,2.15,1.86c0.86,0.58,1.82,1.08,2.84,1.51c2.57,1.09,5.51,1.76,8.2,2.28c3.92,0.76,8.45,0.67,12.13-0.24
				c4.12-1.02,6.7-2.93,7.25-5.37c0.28-1.23-0.07-2.61-1.03-4.1c-0.76-1.18-1.89-2.43-3.38-3.73c-2.43-2.12-5.03-3.67-5.24-3.79
				c-0.01-0.02-0.02-0.03-0.03-0.04c-0.02-0.03-0.05-0.06-0.07-0.09c0,0,0,0,0,0l0,0c-0.05-0.07-0.1-0.15-0.13-0.23
				c-0.05-0.11-0.1-0.21-0.15-0.31c-0.03-0.05-0.05-0.1-0.08-0.15c-0.07-0.14-0.14-0.27-0.21-0.41c-0.13-0.25-0.26-0.51-0.39-0.77
				c-0.12-0.23-0.25-0.46-0.42-0.78c-0.15-0.27-0.35-0.52-0.58-0.74c-0.05-0.04-0.09-0.09-0.14-0.13c-0.06-0.06-0.12-0.12-0.18-0.17
				c-0.05-0.05-0.11-0.09-0.16-0.13c-0.05-0.03-0.09-0.07-0.13-0.1c-0.17-0.15-0.36-0.24-0.55-0.34c-0.02-0.01-0.05-0.02-0.07-0.03
				c-0.07-0.04-0.15-0.07-0.24-0.11c-0.05-0.02-0.11-0.04-0.16-0.07l-0.07-0.03l-0.03-0.01c-0.11-0.05-0.23-0.09-0.35-0.13
				c-0.08-0.02-0.16-0.04-0.24-0.05c-0.05-0.01-0.09-0.02-0.14-0.03l-0.06-0.01c-0.12-0.03-0.23-0.05-0.33-0.08
				c-0.06-0.02-0.11-0.04-0.18-0.07c-0.03-0.01-0.07-0.03-0.1-0.05c0.12-0.25,0.22-0.52,0.3-0.8c0.07-0.25,0.16-0.59,0.22-0.93
				c0.06-0.36,0.1-0.71,0.12-1.04c0.02-0.3,0.02-0.6,0.02-0.9c0-0.1,0-0.19,0-0.29c0.1-0.08,0.23-0.2,0.27-0.4
				c0.06-0.3,0.04-0.62-0.07-1.01c-0.07-0.25-0.17-0.45-0.3-0.62c-0.05-0.06-0.1-0.12-0.16-0.16c-0.04-0.03-0.08-0.06-0.13-0.08
				c-0.06-0.03-0.13-0.04-0.19-0.03c-0.17-0.31-0.39-0.6-0.65-0.86c-0.26-0.25-0.54-0.47-0.88-0.66c-0.16-0.09-0.34-0.18-0.52-0.26
				c-0.23-0.1-0.48-0.19-0.75-0.26c-0.69-0.19-1.38-0.29-2.05-0.29c-0.87,0-1.69,0.17-2.43,0.48c-0.52,0.22-0.98,0.52-1.38,0.89
				c-0.24,0.22-0.44,0.48-0.62,0.75c-0.23,0.37-0.41,0.77-0.52,1.19c-0.1,0.38-0.15,0.71-0.16,1.02c-0.02,0.63,0,1.11,0.07,1.56
				c0.12,0.79,0.39,1.58,0.79,2.33c0.14,0.26,0.3,0.51,0.51,0.81c-2.05-0.24-3.85-0.11-5.38,0.38c-0.23-0.01-1.49-0.03-2.95,0.67
				C16.45,18.1,14.52,19.7,13.61,23.31z M15.35,24.59c0.5-3.33,2.52-8.68,10.42-7.93c-0.06,0-0.13,0.01-0.19,0.01
				c-0.32,0.03-0.59,0.17-0.84,0.29c-0.36,0.18-0.67,0.43-0.93,0.75c-0.26,0.33-0.43,0.62-0.53,0.93c-0.15,0.48-0.23,0.96-0.22,1.44
				c0,0.08,0.01,0.17,0.02,0.25l0,0c0,0,0.04,0.6,0.3,1.13c-0.11,0.23-0.19,0.47-0.24,0.7c-0.08,0.36-0.09,0.73-0.02,1.11
				c0.03,0.18,0.12,0.35,0.25,0.52c0.12,0.15,0.24,0.29,0.36,0.43l0.03,0.04c0.1,0.11,0.19,0.22,0.29,0.33
				c0.1,0.11,0.21,0.23,0.31,0.35c0.28,0.32,0.6,0.6,0.95,0.82c0.16,0.1,0.33,0.2,0.49,0.29c0.07,0.04,0.14,0.08,0.21,0.12
				c0.02,0.01,0.05,0.03,0.07,0.04c0.07,0.04,0.13,0.08,0.21,0.11c0.11,0.06,0.23,0.11,0.35,0.16c0.05,0.02,0.1,0.04,0.14,0.07
				c0.01,0,0.01,0.01,0.02,0.01c0,0,0,0,0,0c0,0,0.01,0,0.01,0c0,0,0,0,0,0c0.05,0.03,0.11,0.06,0.16,0.09
				c0.15,0.06,0.31,0.1,0.5,0.11c0.1,0.01,0.2-0.02,0.3-0.07c0.02,0.03,0.04,0.06,0.06,0.09c0.1,0.17,0.24,0.31,0.46,0.44
				c0.23,0.14,0.46,0.27,0.69,0.39c0.08,0.04,0.16,0.09,0.24,0.13c0.09,0.05,0.19,0.1,0.29,0.14c0.16,0.07,0.34,0.13,0.54,0.19
				c0.12,0.03,0.24,0.03,0.36,0.02c0.14-0.01,0.29-0.03,0.42-0.13c0,0,0,0,0,0c0,0,0.2,0.01,0.43-0.13
				c0.03-0.02,0.06-0.04,0.08-0.07c0.16-0.15,0.22-0.37,0.22-0.37c0.15-0.1,0.24-0.24,0.28-0.38c0,0,0-0.01,0-0.01
				c0-0.01,0.01-0.02,0.01-0.03c0,0,0,0,0,0c0.02-0.08,0.03-0.15,0.04-0.21c0-0.05,0-0.1,0-0.15c0-0.01,0-0.02,0-0.03
				c0.17-0.15,0.25-0.34,0.24-0.54c0.32,0.07,0.62,0.12,0.91,0.15c0.24,0.03,0.47,0.05,0.7,0.06c0.04,0,0.09,0.01,0.13,0.01
				c0.1,0,0.21,0.01,0.32,0c2.32,0.01,4.09-0.76,5-1.23c1.16-0.61,1.27-1.72,1.27-1.72l0,0c0.03-0.16,0.05-0.33,0.05-0.51
				c0-0.17-0.02-0.33-0.04-0.47c-0.06-0.29-0.13-0.54-0.22-0.74c0.91,0.57,2.84,1.84,4.67,3.44c2.28,1.99,4.87,4.89,4.29,7.47
				c-0.52,2.3-3,4.11-6.98,5.09c-3.62,0.9-8.1,0.99-11.97,0.24c-3.71-0.72-7.9-1.72-10.9-3.73C16.05,31.84,14.73,28.74,15.35,24.59z
				 M18.05,17.74c0.61-0.3,1.2-0.46,1.67-0.55c-0.61,0.3-1.18,0.68-1.68,1.13c-1.6,1.41-2.65,3.56-3.05,6.22
				c-0.34,2.25-0.1,4.25,0.69,5.94c0.23,0.49,0.51,0.95,0.83,1.4c-0.76-0.49-1.52-1.45-2.05-2.64c-0.81-1.83-0.99-3.9-0.5-5.84
				C14.66,20.66,16.07,18.7,18.05,17.74z"/>
		</g>
		<path class="st6" d="M16.11,21.76c1.17-2.84,3.79-5.65,9.66-5.1c-0.06,0-0.13,0.01-0.19,0.01c-0.32,0.03-0.59,0.17-0.84,0.29
			c-0.36,0.18-0.67,0.43-0.93,0.75c-0.26,0.33-0.43,0.62-0.53,0.93c-0.15,0.48-0.23,0.96-0.22,1.44c0,0.08,0.01,0.17,0.02,0.25l0,0
			c0,0,0.04,0.6,0.3,1.13c-0.11,0.23-0.19,0.47-0.24,0.7c-0.08,0.36-0.09,0.73-0.02,1.11c0.03,0.18,0.12,0.35,0.25,0.52
			c0.12,0.15,0.24,0.29,0.36,0.43l0.03,0.04c0.1,0.11,0.19,0.22,0.29,0.33c0.1,0.11,0.21,0.23,0.31,0.35
			c0.28,0.32,0.6,0.6,0.95,0.82c0.16,0.1,0.33,0.2,0.49,0.29c0.07,0.04,0.14,0.08,0.21,0.12c0.02,0.01,0.05,0.03,0.07,0.04
			c0.07,0.04,0.13,0.08,0.21,0.11c0.11,0.06,0.23,0.11,0.35,0.16c0.05,0.02,0.1,0.04,0.14,0.07c0.01,0,0.01,0.01,0.02,0.01
			c0,0,0,0,0,0c0,0,0.01,0,0.01,0c0,0,0,0,0,0c0.05,0.03,0.11,0.06,0.16,0.09c0.15,0.06,0.31,0.1,0.5,0.11
			c0.1,0.01,0.2-0.02,0.3-0.07c0.02,0.03,0.04,0.06,0.06,0.09c0.1,0.17,0.24,0.31,0.46,0.44c0.23,0.14,0.46,0.27,0.69,0.39
			c0.08,0.04,0.16,0.09,0.24,0.13c0.09,0.05,0.19,0.1,0.29,0.14c0.16,0.07,0.34,0.13,0.54,0.19c0.12,0.03,0.24,0.03,0.36,0.02
			c0.14-0.01,0.29-0.03,0.42-0.13c0,0,0,0,0,0c0,0,0.2,0.01,0.43-0.13c0.03-0.02,0.06-0.04,0.08-0.07c0.16-0.15,0.22-0.37,0.22-0.37
			c0.15-0.1,0.24-0.24,0.28-0.38c0,0,0-0.01,0-0.01c0-0.01,0.01-0.02,0.01-0.03c0,0,0,0,0,0c0.02-0.08,0.03-0.15,0.04-0.21
			c0-0.05,0-0.1,0-0.15c0-0.01,0-0.02,0-0.03c0.17-0.15,0.25-0.34,0.24-0.54c0.32,0.07,0.62,0.12,0.91,0.15
			c0.24,0.03,0.47,0.05,0.7,0.06c0.04,0,0.09,0.01,0.13,0.01c0.1,0,0.21,0.01,0.32,0c2.32,0.01,4.09-0.76,5-1.23
			c1.16-0.61,1.27-1.72,1.27-1.72l0,0c0.03-0.16,0.05-0.33,0.05-0.51c0-0.17-0.02-0.33-0.04-0.47c-0.06-0.29-0.13-0.54-0.22-0.74
			c0.91,0.57,2.84,1.84,4.67,3.44c2.16,1.88,4.59,4.58,4.36,7.05l-0.62,0.09c0,0-2.41-3.28-7.63-2.82
			c-5.23,0.46-7.29,4.15-12.96,0.84C22.78,27.07,23.21,23.28,16.11,21.76z"/>
		<g>
			<path class="st5" d="M36.97,30.35c0,0-0.24,0.08-0.65,0.22c-0.21,0.07-0.46,0.16-0.74,0.25c-0.29,0.09-0.61,0.2-0.97,0.29
				c-0.04,0.01-0.09,0.02-0.14,0.04c-0.05,0.01-0.09,0.02-0.14,0.03c-0.09,0.02-0.19,0.04-0.29,0.07l-0.07,0.02l-0.07,0.01
				c-0.05,0.01-0.1,0.02-0.15,0.03c-0.1,0.02-0.2,0.04-0.31,0.05c-0.1,0.01-0.21,0.02-0.32,0.03c-0.05,0.01-0.11,0.01-0.16,0.02
				c-0.05,0-0.11,0-0.16,0c-0.11,0-0.22,0.01-0.33,0.01c-0.11,0-0.23-0.01-0.34-0.02c-0.06,0-0.11-0.01-0.17-0.01
				c-0.06,0-0.11-0.01-0.17-0.02c-0.12-0.02-0.23-0.03-0.35-0.05c-0.06-0.01-0.12-0.02-0.17-0.03c-0.06-0.01-0.12-0.03-0.17-0.04
				c-0.12-0.03-0.23-0.05-0.35-0.08c-0.12-0.03-0.23-0.07-0.35-0.1l-0.17-0.05c-0.06-0.02-0.11-0.04-0.17-0.06
				c-0.11-0.04-0.23-0.09-0.34-0.13l-0.17-0.07l-0.17-0.08l-0.33-0.15l-0.17-0.08l-0.16-0.09c-0.11-0.06-0.22-0.12-0.32-0.17
				l-0.16-0.09l-0.08-0.04L28.06,30c-0.42-0.25-0.82-0.5-1.2-0.77c-0.38-0.27-0.73-0.55-1.05-0.82c-0.08-0.07-0.16-0.14-0.24-0.2
				c-0.08-0.07-0.15-0.14-0.23-0.2c-0.15-0.13-0.29-0.27-0.42-0.4c-0.27-0.26-0.5-0.5-0.72-0.72c-0.21-0.22-0.39-0.41-0.54-0.57
				c-0.15-0.16-0.27-0.28-0.35-0.36c-0.08-0.08-0.12-0.13-0.12-0.13s0.16,0.19,0.44,0.53c0.14,0.17,0.31,0.37,0.51,0.6
				c0.2,0.23,0.42,0.49,0.68,0.76c0.26,0.27,0.54,0.56,0.86,0.85c0.32,0.29,0.67,0.58,1.04,0.86c0.09,0.07,0.19,0.14,0.29,0.21
				c0.05,0.03,0.1,0.07,0.15,0.1c0.05,0.03,0.1,0.07,0.15,0.1c0.1,0.07,0.2,0.14,0.31,0.2c0.1,0.06,0.21,0.13,0.31,0.19l0.08,0.05
				c0.03,0.02,0.05,0.03,0.08,0.05l0.16,0.09c0.11,0.06,0.22,0.12,0.33,0.18l0.16,0.09l0.17,0.08l0.34,0.16l0.17,0.08l0.18,0.07
				c0.12,0.04,0.23,0.09,0.35,0.13c0.06,0.02,0.12,0.05,0.18,0.06l0.18,0.05c0.12,0.04,0.24,0.07,0.36,0.11
				c0.06,0.02,0.12,0.03,0.18,0.04c0.06,0.01,0.12,0.03,0.18,0.04c0.06,0.01,0.12,0.02,0.18,0.04c0.06,0.01,0.12,0.03,0.18,0.03
				c0.12,0.01,0.24,0.03,0.36,0.04c0.06,0.01,0.12,0.02,0.18,0.02c0.06,0,0.12,0,0.18,0.01c0.12,0,0.24,0.01,0.35,0.01
				c0.12-0.01,0.23-0.01,0.34-0.02c0.06,0,0.11-0.01,0.17-0.01c0.06-0.01,0.11-0.01,0.17-0.02c0.11-0.01,0.22-0.03,0.33-0.04
				c0.11-0.02,0.21-0.04,0.31-0.06c0.1-0.02,0.2-0.04,0.3-0.07c0.1-0.03,0.19-0.05,0.29-0.08c0.05-0.01,0.09-0.03,0.14-0.04
				c0.05-0.01,0.09-0.03,0.14-0.04c0.36-0.11,0.68-0.23,0.96-0.34c0.28-0.11,0.53-0.21,0.73-0.3
				C36.74,30.45,36.97,30.35,36.97,30.35z"/>
		</g>
		<path class="st5" d="M23.47,17.4c0,0-0.06,0.03-0.17,0.09c-0.05,0.03-0.12,0.07-0.2,0.12c-0.08,0.05-0.16,0.1-0.26,0.17
			c-0.05,0.03-0.1,0.07-0.15,0.11c-0.05,0.04-0.1,0.08-0.16,0.12c-0.05,0.04-0.11,0.09-0.17,0.13c-0.06,0.05-0.12,0.1-0.18,0.15
			c-0.12,0.1-0.25,0.22-0.38,0.35c-0.07,0.06-0.13,0.13-0.2,0.2c-0.06,0.07-0.13,0.14-0.2,0.21c-0.03,0.04-0.07,0.07-0.1,0.11
			c-0.03,0.04-0.07,0.08-0.1,0.12c-0.07,0.08-0.13,0.16-0.2,0.24c-0.03,0.04-0.07,0.08-0.1,0.12c-0.03,0.04-0.07,0.09-0.1,0.13
			c-0.07,0.09-0.13,0.18-0.2,0.27c-0.03,0.05-0.07,0.09-0.1,0.14c-0.03,0.05-0.06,0.1-0.1,0.15c-0.06,0.1-0.13,0.2-0.2,0.3
			c-0.03,0.05-0.07,0.1-0.1,0.15c-0.03,0.05-0.06,0.11-0.09,0.16c-0.06,0.11-0.12,0.21-0.18,0.32c-0.03,0.05-0.06,0.11-0.09,0.16
			c-0.03,0.05-0.06,0.11-0.09,0.17c-0.06,0.11-0.11,0.23-0.17,0.34c-0.03,0.06-0.06,0.11-0.09,0.17l-0.04,0.09l-0.04,0.09
			c-0.05,0.12-0.1,0.24-0.15,0.36c-0.05,0.12-0.1,0.24-0.15,0.36c-0.05,0.12-0.09,0.25-0.13,0.37c-0.04,0.12-0.09,0.25-0.13,0.37
			l-0.07,0.19l-0.06,0.19c-0.07,0.25-0.15,0.5-0.22,0.76c-0.06,0.26-0.13,0.51-0.19,0.77c-0.11,0.51-0.2,1.01-0.27,1.51
			c-0.04,0.24-0.06,0.49-0.08,0.73c-0.01,0.06-0.01,0.12-0.02,0.18l-0.01,0.09l0,0.09c-0.01,0.12-0.01,0.23-0.02,0.35
			c-0.01,0.11-0.01,0.23-0.02,0.34c0,0.11,0,0.22,0,0.33c0,0.11,0,0.21,0,0.32c0,0.1,0.01,0.2,0.01,0.3c0,0.1,0,0.2,0.01,0.29
			c0.01,0.09,0.01,0.19,0.02,0.28c0.01,0.18,0.03,0.35,0.05,0.51c0.02,0.16,0.04,0.31,0.06,0.45c0.02,0.14,0.04,0.26,0.06,0.38
			c0.04,0.23,0.08,0.4,0.11,0.52c0.03,0.12,0.05,0.18,0.05,0.18s-0.01-0.06-0.03-0.19c-0.02-0.12-0.04-0.3-0.07-0.53
			c-0.01-0.11-0.03-0.24-0.03-0.38c-0.01-0.14-0.02-0.29-0.03-0.45c-0.01-0.16-0.01-0.33-0.01-0.51c0-0.09,0-0.18,0-0.27
			c0-0.09,0-0.19,0-0.29c0-0.1,0-0.2,0.01-0.3c0-0.1,0.01-0.21,0.02-0.31c0.01-0.11,0.01-0.21,0.02-0.32
			c0.01-0.11,0.02-0.22,0.03-0.33c0.01-0.11,0.02-0.22,0.03-0.34l0.01-0.09l0.01-0.09c0.01-0.06,0.02-0.12,0.02-0.17
			c0.03-0.23,0.05-0.47,0.1-0.71c0.02-0.12,0.04-0.24,0.06-0.36c0.01-0.06,0.02-0.12,0.03-0.18c0.01-0.06,0.03-0.12,0.04-0.18
			c0.03-0.12,0.05-0.25,0.08-0.37c0.01-0.06,0.03-0.12,0.04-0.19l0.02-0.09l0.02-0.09c0.06-0.25,0.13-0.5,0.19-0.75
			c0.07-0.25,0.15-0.5,0.23-0.75L19,24.03l0.06-0.18c0.04-0.12,0.09-0.25,0.13-0.37c0.04-0.12,0.08-0.24,0.13-0.37
			c0.05-0.12,0.1-0.24,0.15-0.36c0.05-0.12,0.1-0.24,0.15-0.35l0.04-0.09l0.04-0.09c0.03-0.06,0.05-0.11,0.08-0.17
			c0.05-0.11,0.11-0.23,0.16-0.34c0.03-0.06,0.05-0.11,0.08-0.17c0.03-0.05,0.06-0.11,0.09-0.16c0.06-0.11,0.12-0.21,0.17-0.32
			c0.03-0.05,0.06-0.1,0.09-0.16c0.03-0.05,0.06-0.1,0.09-0.15c0.06-0.1,0.12-0.2,0.18-0.3c0.03-0.05,0.06-0.1,0.09-0.15
			c0.03-0.05,0.06-0.09,0.09-0.14c0.25-0.37,0.5-0.71,0.75-1.01c0.13-0.15,0.24-0.3,0.37-0.42c0.12-0.13,0.23-0.26,0.35-0.37
			c0.06-0.06,0.11-0.11,0.16-0.16c0.05-0.05,0.11-0.1,0.16-0.15c0.05-0.05,0.1-0.09,0.15-0.13c0.05-0.04,0.09-0.08,0.14-0.12
			c0.18-0.15,0.32-0.25,0.42-0.32C23.41,17.43,23.47,17.4,23.47,17.4z"/>
		<g>
			<path class="st5" d="M23.33,22.87c0.06,0,0.11-0.04,0.13-0.09c0.03-0.07-0.01-0.16-0.08-0.19l-3-1.14
				c-0.07-0.03-0.16,0.01-0.19,0.08c-0.03,0.07,0.01,0.16,0.08,0.19l3,1.14C23.3,22.87,23.32,22.87,23.33,22.87z"/>
		</g>
		<path class="st0" d="M36.02,18.76c-0.01-0.04-0.02-0.09-0.03-0.13c-0.09-0.38-0.25-0.73-0.38-1.1c-0.14-0.39-0.35-0.74-0.63-1.05
			c-0.04-0.05-0.08-0.1-0.12-0.15c0.02,0,0.03,0,0.04,0c0.17,0.05,0.34,0.11,0.51,0.14c0.16,0.02,0.3,0.06,0.44,0.14
			c0.05,0.02,0.1,0.04,0.15,0.05c0.12,0.04,0.24,0.08,0.35,0.14c0.14,0.07,0.27,0.15,0.41,0.21c0.21,0.1,0.37,0.27,0.55,0.41
			c0.11,0.08,0.2,0.19,0.3,0.29c0.19,0.18,0.36,0.38,0.49,0.61c0.19,0.33,0.38,0.67,0.56,1c0.19,0.33,0.39,0.66,0.54,1.02
			c0.01,0.02,0.02,0.03,0.03,0.04c0,0,0.02,0.04,0.06,0.1c-0.39-0.36-0.87-0.66-1.41-0.92C37.15,19.19,36.29,18.86,36.02,18.76z"/>
		<path class="st7" d="M28.59,16.1c0.36,0.15,0.74,0.22,1.12,0.27c0.67,0.08,1.34,0.04,2-0.1c0.53-0.12,1.03-0.31,1.49-0.58
			c0.34-0.2,0.65-0.44,0.93-0.72c0.12-0.12,0.23-0.26,0.35-0.39c0.03-0.03,0.05-0.08,0.06-0.12c0.16-0.52,0.25-1.05,0.26-1.59
			c0.01-0.47-0.03-0.94-0.13-1.4c-0.06-0.25-0.13-0.49-0.23-0.72c-0.02-0.04-0.05-0.06-0.09-0.07c-0.34-0.06-0.68-0.09-1.03-0.09
			c-0.86,0.02-1.68,0.22-2.49,0.52c-0.55,0.2-1.08,0.44-1.6,0.72c-0.45,0.25-0.9,0.52-1.34,0.78c-0.16,0.1-0.32,0.21-0.48,0.32
			c-0.02,0.02-0.05,0.05-0.05,0.08c-0.08,0.73-0.01,1.43,0.32,2.09c0.13,0.25,0.29,0.48,0.47,0.69
			C28.31,15.97,28.38,16.01,28.59,16.1z"/>
		<path class="st0" d="M26.05,9.39c0.18-0.23,0.38-0.44,0.61-0.62c0.4-0.32,0.84-0.56,1.32-0.73c0.61-0.22,1.24-0.33,1.89-0.34
			c0.59-0.01,1.18,0.06,1.76,0.19c0.41,0.09,0.8,0.22,1.18,0.4c0.37,0.17,0.71,0.39,1.01,0.67c0.09,0.08,0.18,0.17,0.27,0.26
			c0,0.01-0.01,0.01-0.01,0.02c-0.01-0.01-0.02-0.02-0.03-0.03c-0.25-0.22-0.53-0.42-0.83-0.57c-0.39-0.2-0.81-0.34-1.26-0.4
			c-0.8-0.1-1.58,0.01-2.32,0.32c-0.54,0.23-1.01,0.57-1.42,0.99c-0.21,0.21-0.4,0.44-0.57,0.69c-0.21,0.29-0.4,0.6-0.55,0.93
			c-0.08,0.18-0.16,0.36-0.24,0.54c-0.12,0.28-0.22,0.57-0.29,0.87c-0.01,0.03-0.02,0.05-0.06,0.04c-0.1-0.01-0.21-0.03-0.31-0.03
			c-0.15,0-0.3-0.03-0.45,0.04c-0.21,0.11-0.32,0.28-0.34,0.51c-0.03,0.24,0.03,0.47,0.12,0.7c0.04,0.1,0.11,0.18,0.2,0.24
			c0.12,0.08,0.27,0.09,0.4,0.12c0.17,0.04,0.34,0.05,0.51,0.07c0.07,0.01,0.14-0.02,0.17-0.08c0.07-0.13,0.14-0.26,0.17-0.41
			c0.04-0.17,0.03-0.35,0.04-0.53c0-0.02,0.01-0.04,0.02-0.06c0.02-0.02,0.05-0.04,0.09-0.07c0,0.04,0,0.06-0.01,0.08
			c-0.04,0.49,0,0.98,0.15,1.45c0.16,0.49,0.41,0.93,0.76,1.32c0.11,0.13,0.25,0.22,0.41,0.29c0.33,0.15,0.69,0.24,1.05,0.29
			c0.99,0.14,1.96,0.07,2.91-0.26c0.78-0.27,1.47-0.71,2.03-1.32c0.09-0.1,0.18-0.21,0.25-0.33c0.11-0.17,0.13-0.37,0.18-0.57
			c0.04-0.18,0.07-0.37,0.11-0.55c0,0.05,0,0.11-0.01,0.16c-0.05,0.31-0.1,0.62-0.17,0.93c-0.07,0.29-0.17,0.58-0.28,0.86
			c-0.07,0.18-0.14,0.36-0.27,0.5c-0.16,0.18-0.32,0.36-0.5,0.52c-0.38,0.34-0.81,0.62-1.29,0.82c-0.59,0.25-1.2,0.37-1.84,0.37
			c-0.72,0-1.42-0.13-2.1-0.36c-0.29-0.1-0.57-0.21-0.85-0.34l0,0c0,0-0.71-0.27-1.1-0.85c0,0,0,0,0-0.01
			c-0.06-0.08-0.11-0.16-0.17-0.24c-0.25-0.37-0.48-0.76-0.64-1.18c-0.1-0.26-0.2-0.53-0.28-0.8c-0.16-0.53-0.22-1.08-0.25-1.63
			c-0.02-0.42,0.02-0.85,0.09-1.26c0.05-0.25,0.12-0.5,0.21-0.75C25.66,9.97,25.84,9.67,26.05,9.39z"/>
		<path class="st0" d="M26.98,12.96c0.07-0.05,0.14-0.11,0.22-0.16c0.4-0.26,0.8-0.53,1.2-0.77c0.72-0.44,1.47-0.8,2.26-1.1
			c0.58-0.22,1.18-0.39,1.79-0.49c0.61-0.09,1.23-0.11,1.84,0c0.16,0.03,0.32,0.07,0.5,0.12c-0.02-0.06-0.04-0.12-0.07-0.17
			c-0.14-0.28-0.33-0.52-0.54-0.75c-0.27-0.29-0.57-0.54-0.9-0.74c-0.34-0.2-0.71-0.34-1.1-0.42c-0.87-0.17-1.71-0.06-2.53,0.29
			c-0.37,0.16-0.7,0.38-1,0.64c-0.21,0.19-0.41,0.4-0.6,0.61c-0.22,0.26-0.41,0.54-0.58,0.83c-0.19,0.32-0.35,0.66-0.48,1.01
			c-0.08,0.22-0.15,0.45-0.23,0.68c-0.02,0.05-0.01,0.08,0.03,0.13C26.87,12.77,26.92,12.87,26.98,12.96z"/>
		<path class="st0" d="M33.78,21.4c0.09-0.03,0.11-0.06,0.09-0.15c-0.01-0.05-0.02-0.1-0.04-0.14c-0.01-0.02-0.01-0.05-0.03-0.05
			c-0.06-0.03-0.08-0.08-0.05-0.15c-0.07-0.02-0.12,0-0.18,0.03c-0.02,0.01-0.04,0.04-0.08,0.01c-0.01-0.01-0.03,0-0.05,0
			c-0.04,0.01-0.08,0.03-0.12,0.05c-0.1,0.04-0.11,0.07-0.09,0.18c0,0.02,0.01,0.04,0.02,0.06c0.03,0.08,0.07,0.16,0.1,0.23
			c-0.09-0.03-0.18-0.06-0.28-0.07c-0.07-0.01-0.11-0.04-0.13-0.11c-0.06-0.19-0.13-0.37-0.2-0.55c-0.12-0.3-0.23-0.59-0.35-0.89
			c-0.01-0.02-0.02-0.05-0.03-0.08c0.03-0.01,0.05-0.01,0.08-0.02c0.14-0.07,0.27-0.13,0.4-0.2c0.08-0.04,0.08-0.07,0.04-0.15
			c-0.01-0.03-0.03-0.05-0.04-0.08c0.07-0.03,0.13-0.05,0.19-0.07c0.26-0.1,0.51-0.21,0.77-0.3c0.2-0.08,0.4-0.14,0.6-0.21
			c0.1-0.04,0.19-0.08,0.29-0.11c0.1-0.03,0.21-0.05,0.31-0.09c0.05-0.02,0.09-0.01,0.11,0.04c0.05,0.1,0.11,0.2,0.16,0.3
			c0.03,0.06,0.05,0.11,0.08,0.17c0.04,0.1,0.07,0.2,0.11,0.3c0.04,0.09,0.08,0.18,0.12,0.27c-0.03,0.01-0.05,0.01-0.07,0.01
			c-0.02,0-0.04,0.01-0.06,0.01c-0.09,0.03-0.1,0.06-0.06,0.14c0.01,0.02,0.01,0.04,0.02,0.06c0.07,0.18,0.15,0.37,0.22,0.55
			c0.03,0.07,0.07,0.15,0.1,0.21c-0.21,0.1-0.41,0.2-0.6,0.29c-0.05,0.02-0.06,0.05-0.05,0.1c0.02,0.08,0.04,0.16,0.05,0.23
			c-0.5,0.19-0.98,0.42-1.5,0.52c-0.06-0.07-0.12-0.13-0.17-0.2C33.56,21.48,33.67,21.44,33.78,21.4z M34.37,19.57
			c0.11,0.2,0.33,0.33,0.55,0.3c0.14-0.02,0.29-0.15,0.33-0.29c0.05-0.21,0.03-0.4-0.09-0.58c-0.09-0.14-0.23-0.19-0.39-0.2
			c-0.19-0.01-0.39,0.13-0.46,0.32C34.24,19.27,34.29,19.42,34.37,19.57z M32.93,20.18c0.01,0.01,0.04,0,0.06,0
			c0.27-0.05,0.52-0.16,0.78-0.26c0.06-0.02,0.08-0.06,0.06-0.12c-0.03-0.09-0.06-0.19-0.1-0.28c-0.03-0.08-0.07-0.09-0.16-0.07
			c-0.16,0.05-0.32,0.09-0.48,0.15c-0.13,0.05-0.25,0.11-0.37,0.17c-0.03,0.01-0.05,0.06-0.05,0.09c0.01,0.11,0.03,0.22,0.09,0.32
			C32.82,20.14,32.88,20.13,32.93,20.18z M34.3,20.77c0.05,0.11,0.09,0.22,0.15,0.33c0.01,0.02,0.06,0.04,0.09,0.04
			c0.13-0.03,0.26-0.08,0.39-0.12c0.05-0.02,0.07-0.06,0.05-0.11c-0.04-0.13-0.07-0.25-0.11-0.38c-0.02-0.05-0.06-0.07-0.1-0.06
			c-0.14,0.05-0.28,0.1-0.41,0.16c-0.02,0.01-0.04,0.03-0.06,0.05C34.29,20.72,34.29,20.75,34.3,20.77z M34.28,21.16
			c-0.1,0.03-0.21,0.06-0.31,0.1c-0.01,0-0.02,0.04-0.01,0.05c0.01,0.01,0.04,0.03,0.06,0.02c0.06-0.01,0.25-0.11,0.3-0.16
			C34.31,21.17,34.29,21.16,34.28,21.16z"/>
		<path class="st0" d="M28.23,23.01c0.05,0.03,0.1,0.05,0.16,0.02c0.08-0.04,0.16-0.06,0.23-0.11c0.2-0.12,0.32-0.32,0.38-0.53
			c0.17-0.59,0.14-1.18-0.05-1.76c-0.05-0.16-0.1-0.32-0.17-0.47c-0.17-0.36-0.31-0.74-0.53-1.07c-0.16-0.24-0.32-0.48-0.5-0.71
			c-0.1-0.13-0.23-0.23-0.39-0.27c-0.12-0.03-0.23,0-0.34,0.05c-0.07,0.03-0.08,0.06-0.05,0.14c0.02,0.04,0.04,0.08,0.07,0.12
			c0.08,0.12,0.16,0.23,0.24,0.35c0.07,0.1,0.13,0.2,0.21,0.3c0.18,0.24,0.29,0.52,0.4,0.8c0.17,0.45,0.32,0.9,0.43,1.36
			c0.05,0.19,0.06,0.38,0.08,0.58c0.01,0.14,0.01,0.29,0.01,0.43c0,0.2-0.02,0.41-0.1,0.6C28.3,22.88,28.26,22.94,28.23,23.01z"/>
		<path class="st0" d="M36.06,20.09c-0.06-0.33-0.13-0.65-0.18-0.98c-0.09-0.55-0.3-1.06-0.49-1.58c-0.12-0.32-0.3-0.6-0.5-0.87
			c-0.07-0.1-0.15-0.21-0.23-0.31c-0.02-0.03-0.07-0.04-0.1-0.06c-0.01,0.03-0.03,0.06-0.04,0.1c-0.02,0.07-0.03,0.14-0.04,0.21
			c-0.02,0.07-0.02,0.14,0.02,0.2c0.11,0.2,0.22,0.4,0.33,0.59c0.15,0.26,0.27,0.53,0.38,0.81c0.14,0.35,0.25,0.71,0.44,1.04
			c0.14,0.25,0.25,0.53,0.37,0.8C36.03,20.06,36.04,20.08,36.06,20.09C36.05,20.1,36.05,20.1,36.06,20.09z"/>
		<path class="st6" d="M32.55,21.9c0.08-0.16,0.22-0.19,0.37-0.17c0.08,0.01,0.16,0.02,0.24,0.03c0.09,0.01,0.16,0.04,0.22,0.1
			c0.04,0.05,0.05,0.12,0.07,0.18c0,0.01,0.01,0.03,0.01,0.05c0.17-0.06,0.33-0.11,0.49-0.17c0.24-0.08,0.48-0.16,0.72-0.25
			c0.23-0.08,0.46-0.17,0.69-0.26c0.02-0.01,0.04-0.02,0.07-0.02c0.15-0.01,0.2-0.12,0.24-0.25c-0.04,0.02-0.07,0.03-0.1,0.05
			c-0.27,0.1-0.54,0.2-0.81,0.31c-0.21,0.08-0.42,0.16-0.63,0.24c-0.1,0.04-0.21,0.07-0.32,0.1c-0.07,0.02-0.13,0.03-0.15,0.12
			c0,0.01-0.02,0.02-0.03,0.03c-0.03-0.05-0.05-0.1-0.08-0.15c-0.06-0.14-0.16-0.23-0.3-0.26c-0.12-0.02-0.25-0.04-0.38-0.04
			c-0.11-0.01-0.2,0.02-0.25,0.14c-0.02,0.04-0.06,0.07-0.09,0.1c-0.01,0-0.01-0.01-0.02-0.01c0-0.02-0.01-0.04-0.01-0.05
			c0.02-0.13-0.03-0.24-0.08-0.35c-0.1-0.26-0.21-0.51-0.3-0.76c-0.1-0.26-0.18-0.51-0.27-0.77c-0.01-0.02-0.01-0.04-0.02-0.07
			c-0.12,0.01-0.23,0.02-0.34,0.03c0.04,0.13,0.09,0.27,0.13,0.4c0.05,0.16,0.06,0.33,0.14,0.48c0.11,0.25,0.22,0.5,0.33,0.74
			c0.05,0.12,0.12,0.22,0.18,0.34c0.01,0.01,0.02,0.03,0.03,0.03C32.38,21.82,32.46,21.86,32.55,21.9z"/>
		<path class="st6" d="M25.08,20.27c0.16,0.06,0.32,0.12,0.48,0.18c0.07,0.02,0.12,0.01,0.17-0.04c0.09-0.09,0.18-0.18,0.27-0.27
			c0.12-0.1,0.24-0.2,0.36-0.31c0.06-0.05,0.06-0.07,0-0.12c-0.14-0.08-0.27-0.18-0.42-0.24c-0.08-0.03-0.18-0.02-0.27-0.03
			c-0.02,0-0.04,0.02-0.06,0.04c-0.2,0.19-0.4,0.39-0.6,0.58c-0.03,0.03-0.05,0.06-0.05,0.1c0,0.02,0.01,0.05,0.03,0.07
			C25.02,20.25,25.05,20.26,25.08,20.27z"/>
		<path class="st6" d="M25.88,19.24c0.13,0.06,0.27,0.11,0.4,0.17c0.13,0.06,0.26,0.13,0.38,0.21c0.09,0.06,0.1,0.16,0.02,0.23
			c-0.17,0.16-0.32,0.34-0.52,0.46c-0.12,0.07-0.21,0.18-0.32,0.27c-0.06,0.05-0.12,0.08-0.19,0.12c-0.03,0.01-0.07,0.01-0.1,0
			c-0.13-0.06-0.26-0.13-0.39-0.19c-0.06-0.03-0.12-0.05-0.18-0.08c-0.07-0.03-0.15-0.06-0.23-0.1c-0.05,0.05-0.11,0.11-0.17,0.16
			c0.11,0.1,0.25,0.14,0.38,0.19c0.18,0.07,0.35,0.14,0.52,0.22c0.09,0.04,0.17,0.02,0.23-0.03c0.26-0.19,0.52-0.38,0.76-0.59
			c0.19-0.17,0.35-0.37,0.53-0.56c0.03-0.03,0.01-0.06-0.02-0.07c-0.08-0.05-0.16-0.11-0.24-0.16c-0.09-0.05-0.19-0.11-0.29-0.15
			c-0.16-0.06-0.33-0.11-0.5-0.15c-0.02-0.01-0.06,0.02-0.09,0.03C25.87,19.23,25.88,19.24,25.88,19.24z"/>
		<path class="st0" d="M25.71,12.91c0.05-0.06,0.15-0.11,0.24-0.11c-0.04,0.02-0.07,0.05-0.1,0.08c-0.09,0.11-0.11,0.24-0.1,0.38
			c0.01,0.13,0.02,0.26,0.06,0.38c0.03,0.11,0.12,0.18,0.2,0.23c0.03,0.01,0.06,0.02,0.09,0.02c-0.06,0.04-0.13,0.05-0.23,0.01
			c-0.08-0.04-0.17-0.11-0.2-0.23c-0.03-0.12-0.05-0.25-0.06-0.38C25.61,13.16,25.62,13.03,25.71,12.91z"/>
		<path class="st6" d="M25.81,13.64c-0.03-0.12-0.05-0.25-0.06-0.38c-0.01-0.13,0.01-0.27,0.1-0.38c0.02-0.03,0.06-0.06,0.1-0.08
			c0.02,0,0.04,0,0.06,0.01c0.09,0.03,0.15,0.12,0.18,0.2c0.07,0.19,0.1,0.39,0.06,0.6c-0.01,0.08-0.02,0.17-0.09,0.23
			c-0.02,0.02-0.04,0.03-0.06,0.05c-0.03,0-0.06-0.01-0.09-0.02C25.93,13.82,25.84,13.75,25.81,13.64z"/>
		<path class="st0" d="M32.65,21.4c0.05-0.01,0.14-0.03,0.22-0.05c-0.11-0.32-0.23-0.64-0.35-0.96c-0.07-0.19-0.15-0.37-0.22-0.56
			c-0.04-0.1-0.03-0.12,0.06-0.16c0.15-0.07,0.3-0.15,0.46-0.22c-0.02-0.04-0.04-0.08-0.05-0.1c-0.07,0.02-0.14,0.04-0.2,0.07
			c-0.16,0.07-0.33,0.14-0.49,0.2c-0.09,0.04-0.1,0.04-0.07,0.13c0.1,0.29,0.19,0.58,0.3,0.87c0.07,0.19,0.14,0.38,0.21,0.56
			C32.56,21.26,32.61,21.33,32.65,21.4z"/>
		<path class="st0" d="M31.58,19.54c0.11-0.01,0.21,0.02,0.32-0.03c0.17-0.07,0.35-0.12,0.52-0.19c0.13-0.05,0.26-0.12,0.4-0.17
			c0.41-0.16,0.8-0.35,1.23-0.48c0.21-0.06,0.4-0.16,0.61-0.23c0.07-0.03,0.14-0.05,0.22-0.07c-0.08-0.02-0.14-0.05-0.2-0.06
			c-0.05,0-0.09,0.03-0.14,0.05c-0.12,0.05-0.24,0.09-0.36,0.14c-0.28,0.1-0.56,0.2-0.83,0.3c-0.25,0.1-0.5,0.2-0.75,0.3
			c-0.23,0.09-0.46,0.17-0.68,0.26c-0.11,0.04-0.22,0.1-0.32,0.15c-0.01,0-0.01,0.02-0.02,0.02C31.58,19.53,31.58,19.54,31.58,19.54
			z"/>
		<path class="st0" d="M34.68,10.76c0.33,0.87,0.39,1.76,0.29,2.66c0.01,0,0.01,0,0.02,0c0.01-0.13,0.02-0.27,0.03-0.4
			c0.04-0.56,0.03-1.12-0.03-1.68c-0.02-0.15-0.05-0.3-0.08-0.46c0-0.02-0.01-0.04-0.03-0.05C34.82,10.81,34.75,10.79,34.68,10.76z"
			/>
		<path class="st0" d="M32.55,22.44c-0.02,0.06-0.05,0.11-0.07,0.17c0.12,0.04,0.22,0.1,0.29,0.2c0.07,0.09,0.14,0.19,0.22,0.29
			c0.04-0.07,0.08-0.15,0.12-0.23c0.01-0.02-0.01-0.05-0.02-0.07c-0.08-0.18-0.22-0.29-0.41-0.33
			C32.64,22.46,32.6,22.45,32.55,22.44z"/>
		<path class="st0" d="M36.05,20.77c-0.07-0.03-0.13-0.06-0.2-0.08c-0.01-0.01-0.03,0-0.05,0c-0.16,0.06-0.31,0.13-0.47,0.2
			c-0.06,0.02-0.11,0.05-0.16,0.08c0.02,0.19,0.06,0.22,0.23,0.14c0.13-0.06,0.26-0.11,0.38-0.17
			C35.88,20.89,35.96,20.83,36.05,20.77z"/>
		<path class="st0" d="M36.07,20.66c-0.15-0.34-0.3-0.67-0.45-1.01c-0.05,0.02-0.09,0.03-0.15,0.05c0.04,0.09,0.07,0.18,0.11,0.27
			c0.08,0.18,0.16,0.36,0.24,0.54c0.02,0.05,0.05,0.09,0.1,0.11c0.05,0.01,0.09,0.04,0.13,0.05C36.06,20.67,36.07,20.66,36.07,20.66
			z"/>
		<path class="st0" d="M26.84,13.3c-0.01-0.04-0.02-0.08-0.02-0.12c-0.02-0.11-0.02-0.11-0.13-0.13c-0.02,0-0.04-0.03-0.06-0.04
			c0.02-0.02,0.04-0.04,0.06-0.05c0.02-0.01,0.04-0.01,0.06-0.01c-0.04-0.11-0.07-0.13-0.17-0.14c-0.09,0-0.18-0.01-0.26-0.01
			c0.03,0.08,0.07,0.16,0.1,0.24c0.02,0.06,0.03,0.13,0.04,0.19c0,0.02,0.02,0.04,0.04,0.04C26.6,13.28,26.72,13.29,26.84,13.3z"/>
		<path class="st0" d="M32.28,22.87c0.21,0.13,0.37,0.29,0.4,0.57c0.07-0.07,0.13-0.13,0.17-0.19c0.02-0.03,0.01-0.09-0.01-0.13
			c-0.1-0.16-0.21-0.32-0.41-0.38c-0.02,0-0.04,0-0.05,0.01C32.34,22.79,32.31,22.83,32.28,22.87z"/>
		<path class="st0" d="M33.18,22.72c0.03-0.09,0.07-0.17,0.07-0.24c0-0.05-0.04-0.11-0.09-0.14c-0.14-0.11-0.3-0.15-0.48-0.15
			c-0.04,0-0.07,0.02-0.08,0.06c-0.01,0.03-0.02,0.06-0.03,0.09C32.85,22.36,33.05,22.47,33.18,22.72z"/>
		<path class="st0" d="M32.09,23.08c0.15,0.17,0.27,0.34,0.28,0.58c0.05-0.03,0.1-0.06,0.15-0.1c0.01-0.01,0.01-0.03,0.02-0.05
			c0.01-0.15-0.05-0.27-0.15-0.38c-0.04-0.04-0.1-0.08-0.14-0.12c-0.04-0.03-0.06-0.03-0.09,0.01
			C32.13,23.04,32.11,23.06,32.09,23.08z"/>
		<path class="st0" d="M31.98,23.18c-0.05,0.04-0.1,0.08-0.14,0.12c0.05,0.08,0.11,0.16,0.14,0.24c0.03,0.09,0.03,0.18,0.05,0.28
			c0.05-0.02,0.1-0.04,0.16-0.07c0.01-0.01,0.02-0.03,0.03-0.05c0.01-0.07,0.01-0.14-0.02-0.21C32.14,23.38,32.09,23.26,31.98,23.18
			z"/>
		<path class="st0" d="M33.31,22.27c0-0.06,0-0.12-0.02-0.17c-0.01-0.03-0.04-0.07-0.07-0.08c-0.12-0.04-0.24-0.07-0.37-0.09
			c-0.1-0.02-0.13,0.06-0.18,0.13C32.92,22.03,33.13,22.1,33.31,22.27z"/>
		<path class="st0" d="M31.72,23.38c-0.05,0.03-0.09,0.05-0.13,0.08c0.11,0.14,0.16,0.29,0.12,0.46c0.12-0.01,0.15-0.03,0.17-0.14
			C31.9,23.62,31.81,23.5,31.72,23.38z"/>
		<path class="st0" d="M31.36,23.99c0.12,0.04,0.17,0.02,0.19-0.1c0.03-0.12,0-0.23-0.07-0.33c-0.02-0.03-0.04-0.04-0.08-0.02
			c-0.04,0.02-0.07,0.03-0.12,0.04C31.39,23.71,31.42,23.84,31.36,23.99z"/>
		<path class="st8" d="M33.66,21.04c-0.09,0.02-0.17,0.04-0.26,0.06c-0.04,0.01-0.05,0.03-0.03,0.07c0.02,0.06,0.04,0.13,0.07,0.2
			c0.1-0.03,0.19-0.06,0.29-0.1C33.71,21.2,33.69,21.12,33.66,21.04z"/>
		<path class="st0" d="M26.85,13.45c-0.13-0.01-0.25-0.03-0.37-0.04c0,0.05,0,0.09-0.01,0.14c0.12,0.02,0.23,0.04,0.36,0.05
			C26.83,13.56,26.84,13.51,26.85,13.45z"/>
		<path class="st0" d="M31.04,23.68c0.01,0.09,0.02,0.18,0.03,0.27c0.03,0.01,0.07,0.02,0.12,0.02c0.02,0,0.04-0.02,0.05-0.04
			c0.03-0.07,0-0.23-0.06-0.27c-0.01-0.01-0.03-0.01-0.04-0.01C31.1,23.66,31.06,23.67,31.04,23.68z"/>
		<path class="st0" d="M34.84,10c0.06,0.13,0.11,0.26,0.17,0.4c0.04-0.01,0.08-0.02,0.14-0.03c-0.08-0.15-0.15-0.3-0.3-0.38
			C34.85,9.99,34.84,9.99,34.84,10z"/>
		<path class="st0" d="M26.44,13.73c-0.01,0.03-0.02,0.06-0.03,0.09c0.11,0.02,0.22,0.04,0.33,0.04c0.02,0,0.04-0.04,0.07-0.07
			c0-0.01-0.01-0.02-0.01-0.03C26.68,13.75,26.56,13.74,26.44,13.73z"/>
		<path class="st0" d="M30.92,23.9c0-0.03,0.01-0.05,0.01-0.07c0-0.09-0.03-0.11-0.11-0.09c-0.03,0.01-0.06,0.01-0.08,0.02
			C30.76,23.88,30.78,23.89,30.92,23.9z"/>
		<path class="st0" d="M26.68,14.01c-0.1-0.01-0.21-0.02-0.31-0.03c-0.02,0-0.03,0.02-0.05,0.03c0,0.01,0,0.02,0.01,0.02
			c0.1,0.01,0.2,0.03,0.31,0.03c0.02,0,0.04-0.03,0.06-0.04C26.69,14.02,26.68,14.01,26.68,14.01z"/>
		<path class="st0" d="M35.19,11.24c0.15-0.05,0.16-0.06,0.13-0.17c-0.05,0.01-0.1,0.03-0.15,0.05
			C35.18,11.16,35.19,11.19,35.19,11.24z"/>
		<path class="st0" d="M35.29,10.82c0-0.03-0.01-0.05-0.01-0.08c-0.06,0.01-0.11,0.02-0.17,0.04c0.01,0.03,0.01,0.05,0.02,0.09
			C35.18,10.85,35.23,10.84,35.29,10.82z"/>
		<path class="st0" d="M35.21,10.49c-0.06,0.02-0.11,0.03-0.17,0.05c0.01,0.03,0.02,0.05,0.02,0.07c0.06-0.01,0.11-0.03,0.17-0.04
			C35.22,10.55,35.21,10.52,35.21,10.49z"/>
		<path class="st0" d="M30.6,23.78c-0.04,0.01-0.08,0.01-0.12,0.02c0,0,0,0.01,0,0.01c0.04,0.01,0.09,0.03,0.15,0.04
			C30.62,23.82,30.61,23.8,30.6,23.78z"/>
		<path class="st9" d="M34.46,19.17c-0.04,0.09-0.05,0.18,0.01,0.26c0.05,0.08,0.11,0.17,0.17,0.24c0.1,0.11,0.29,0.1,0.4-0.01
			c0.05-0.05,0.08-0.11,0.09-0.18c0.01-0.18-0.01-0.35-0.17-0.46C34.79,18.9,34.53,18.98,34.46,19.17z"/>
		<path class="st10" d="M32.84,20.1c0.29-0.1,0.56-0.2,0.84-0.3c-0.02-0.07-0.04-0.13-0.06-0.2c-0.06,0.02-0.13,0.03-0.19,0.05
			c-0.19,0.07-0.39,0.13-0.58,0.2c-0.05,0.02-0.06,0.05-0.05,0.1C32.82,20,32.83,20.05,32.84,20.1z"/>
		<path class="st8" d="M34.74,20.62c-0.11,0.04-0.21,0.08-0.33,0.12c0.04,0.08,0.07,0.16,0.1,0.23c0,0.01,0.03,0.02,0.04,0.01
			c0.08-0.02,0.16-0.04,0.24-0.07c0.04-0.01,0.04-0.03,0.03-0.06C34.8,20.78,34.77,20.71,34.74,20.62z"/>
		<path class="st0" d="M23.74,21.54c0.12-0.19,0.26-0.36,0.4-0.53c0.05-0.06,0.09-0.12,0.14-0.18c0.07,0.04,0.13,0.08,0.18,0.12
			c0.16,0.12,0.33,0.22,0.51,0.3c0.17,0.07,0.34,0.14,0.51,0.22c0.07,0.03,0.15,0.05,0.21,0.09c0.09,0.05,0.13,0.07,0.22,0.01
			c0.13-0.09,0.26-0.19,0.39-0.3c0.06-0.05,0.1-0.11,0.15-0.16c-0.01-0.01-0.01-0.01-0.02-0.02c-0.06,0.03-0.12,0.06-0.18,0.09
			c-0.13,0.07-0.26,0.15-0.39,0.22c-0.01,0.01-0.04,0.01-0.05,0.01c-0.1-0.04-0.2-0.08-0.3-0.12c-0.13-0.05-0.25-0.12-0.38-0.17
			c-0.24-0.09-0.46-0.23-0.69-0.35c-0.02-0.01-0.04-0.05-0.03-0.07c0.01-0.02,0.04-0.03,0.07-0.04c0.02,0,0.04,0.01,0.06,0.02
			c0.13,0.06,0.26,0.12,0.39,0.18c0.07,0.03,0.13,0.06,0.2,0.09c0.14,0.06,0.27,0.13,0.41,0.19c0.1,0.04,0.19,0.07,0.22,0.18
			c0,0.02,0.03,0.02,0.05,0.04c0.01-0.02,0.03-0.04,0.02-0.06c0-0.06-0.01-0.12-0.03-0.18c-0.01-0.04,0-0.06,0.03-0.08
			c0.06-0.04,0.13-0.07,0.19-0.12c0.2-0.16,0.4-0.32,0.6-0.49c0.09-0.08,0.16-0.18,0.24-0.27c0.09-0.1,0.18-0.2,0.27-0.3
			c0.03,0.06,0.05,0.1,0.08,0.15c0.05,0.09,0.05,0.11-0.02,0.19c-0.12,0.13-0.24,0.26-0.32,0.42c-0.02,0.04-0.04,0.08-0.06,0.13
			c0.01,0,0.01,0.01,0.02,0.01c0.06-0.01,0.1-0.04,0.14-0.09c0.1-0.12,0.21-0.25,0.31-0.38c0.01-0.02,0.03-0.03,0.04-0.05
			c0.06-0.1,0.08-0.2,0.02-0.3c-0.05-0.09-0.1-0.18-0.14-0.27c-0.05-0.09-0.1-0.18-0.19-0.23c-0.04-0.02-0.07-0.04-0.11-0.06
			c-0.19-0.11-0.38-0.23-0.6-0.29c-0.06-0.02-0.13-0.03-0.2-0.05c0.24-0.21,0.46-0.41,0.69-0.61c0.01-0.01,0.04-0.01,0.05,0
			c0.04,0.03,0.08,0.07,0.11,0.11c0.28,0.38,0.53,0.78,0.69,1.23c0.17,0.46,0.34,0.92,0.46,1.39c0.02,0.07,0.04,0.14,0.05,0.21
			c0.04,0.29,0.07,0.57,0.05,0.86c-0.01,0.13,0,0.27-0.04,0.4c-0.04,0.12-0.09,0.23-0.16,0.34c-0.03-0.01-0.05-0.02-0.07-0.04
			c-0.12-0.06-0.24-0.13-0.37-0.19c-0.17-0.07-0.34-0.14-0.51-0.21c-0.2-0.09-0.4-0.18-0.6-0.26c-0.03-0.01-0.05-0.02-0.08-0.03
			c0,0.01-0.01,0.02-0.01,0.02c0.05,0.04,0.09,0.09,0.14,0.13c0.2,0.16,0.44,0.27,0.66,0.39c0.16,0.08,0.32,0.15,0.48,0.23
			c0.12,0.06,0.23,0.13,0.35,0.18c0.28,0.12,0.55,0.28,0.78,0.49c0.11,0.1,0.24,0.19,0.25,0.35c0,0.02-0.01,0.06-0.02,0.07
			c-0.13,0.16-0.26,0.32-0.39,0.48c-0.02,0.02-0.01,0.06-0.01,0.1c0.03-0.01,0.06-0.01,0.08-0.03c0.08-0.08,0.16-0.16,0.24-0.25
			c0.13-0.14,0.29-0.23,0.48-0.26c0.16-0.03,0.32-0.01,0.47,0.03c0.28,0.07,0.55,0.14,0.82,0.22c0.16,0.05,0.32,0.07,0.45,0.18
			c0.07,0.05,0.15,0.11,0.2,0.18c0.09,0.16,0.01,0.35-0.15,0.45c-0.01,0.01-0.03,0-0.04,0c-0.1-0.04-0.19-0.08-0.29-0.12
			c-0.13-0.05-0.26-0.1-0.4-0.14c-0.06-0.02-0.13-0.02-0.2-0.03c0,0.01-0.01,0.02-0.01,0.02c0.02,0.02,0.05,0.05,0.07,0.06
			c0.08,0.05,0.16,0.09,0.25,0.14c0.17,0.09,0.34,0.17,0.51,0.27c0.21,0.13,0.4,0.26,0.6,0.4c0.07,0.05,0.12,0.23,0.08,0.31
			c-0.04,0.08-0.09,0.15-0.13,0.23c-0.03-0.02-0.05-0.04-0.07-0.06c-0.25-0.21-0.5-0.41-0.82-0.53c-0.03-0.01-0.07-0.02-0.1-0.02
			c-0.02,0-0.04,0.02-0.04,0.04c0,0.01,0.01,0.03,0.02,0.05c0.05,0.04,0.09,0.08,0.14,0.12c0.23,0.18,0.46,0.36,0.69,0.54
			c0.08,0.06,0.1,0.14,0.09,0.23c-0.01,0.06-0.04,0.12-0.04,0.18c0,0.09-0.05,0.13-0.13,0.15c-0.04-0.04-0.08-0.08-0.12-0.12
			c-0.21-0.19-0.44-0.36-0.69-0.49c-0.08-0.04-0.17-0.07-0.25-0.09c-0.02,0-0.04,0.02-0.06,0.03c0.01,0.02,0.02,0.04,0.03,0.06
			c0.03,0.03,0.07,0.06,0.11,0.09c0.24,0.18,0.48,0.35,0.7,0.56c0.06,0.06,0.1,0.12,0.1,0.21c0,0.1-0.06,0.16-0.12,0.22
			c-0.06,0.06-0.13,0.06-0.21,0.01c-0.02-0.01-0.03-0.03-0.05-0.04c-0.19-0.17-0.37-0.35-0.59-0.48c-0.07-0.04-0.13-0.08-0.21-0.11
			c-0.02-0.01-0.06,0.01-0.08,0.02c0.01,0.02,0.01,0.05,0.03,0.07c0.12,0.12,0.25,0.23,0.37,0.34c0.1,0.09,0.19,0.19,0.28,0.28
			c0,0.01,0,0.02,0.01,0.03c-0.03,0-0.06,0.01-0.09,0.01c-0.17,0.03-0.33,0.02-0.49-0.03c-0.21-0.07-0.42-0.15-0.62-0.26
			c-0.29-0.16-0.59-0.32-0.88-0.48c-0.16-0.09-0.3-0.2-0.4-0.35c-0.11-0.16-0.23-0.32-0.4-0.43c-0.06-0.04-0.05-0.07-0.03-0.12
			c0.01-0.02,0.02-0.03,0.03-0.04c0.13-0.19,0.26-0.37,0.39-0.56c0.1-0.14,0.19-0.28,0.29-0.42c0.01-0.02,0.02-0.03,0.02-0.05
			c0.01-0.05,0-0.07-0.05-0.05c-0.04,0.01-0.07,0.04-0.11,0.06c-0.19,0.16-0.32,0.37-0.46,0.57c-0.11,0.16-0.2,0.33-0.3,0.49
			c-0.07,0.12-0.11,0.24,0,0.37c-0.17,0-0.32-0.02-0.46-0.1c-0.22-0.11-0.44-0.23-0.67-0.34c-0.09-0.05-0.17-0.1-0.26-0.15
			c-0.37-0.19-0.73-0.41-1.05-0.68c-0.21-0.18-0.4-0.37-0.58-0.57l0,0c0,0-0.68-0.69-0.81-0.91c-0.01,0-0.01-0.01-0.01-0.01
			c-0.05-0.09-0.11-0.18-0.15-0.28c-0.1-0.26-0.09-0.53-0.08-0.8c0.01-0.15,0.04-0.29,0.06-0.44
			C23.56,21.89,23.64,21.71,23.74,21.54z"/>
		<path class="st0" d="M35.21,21.63c0.05-0.02,0.08-0.04,0.09-0.03c0.04-0.02,0.09-0.04,0.13-0.06c-0.01,0.01-0.01,0.02-0.02,0.02
			c0.02-0.01,0.04-0.02,0.06-0.03c-0.86,1.03-1.81,2.33-2.02,2.64c-0.68,0.02-1.21-0.04-1.54-0.1c0.01-0.01,0.01-0.01,0.01-0.01
			c0.02-0.01,0.05-0.01,0.07-0.02c0.45-0.16,0.83-0.42,1.11-0.82c0.18-0.26,0.27-0.55,0.31-0.85c0.01-0.1,0.05-0.14,0.14-0.16
			c0.01,0,0.02-0.01,0.02-0.01c0.54-0.19,1.08-0.37,1.62-0.56C35.2,21.63,35.21,21.63,35.21,21.63z"/>
		<path class="st0" d="M38.55,22.55c-0.8,0.65-1.46,0.9-3.35,1.31c-0.52,0.11-0.8,0.15-1.22,0.18c0.35-0.49,1.14-1.84,1.95-2.73
			c0.72-0.81,1.42-0.81,1.97-0.58c0.15,0.06,0.28,0.14,0.4,0.23c0.19,0.13,0.64,0.49,0.65,0.92C38.95,22.1,38.82,22.33,38.55,22.55z
			"/>
		<path class="st6" d="M29.44,23.68c0.25,0.09,0.5,0.17,0.75,0.24c0.21,0.06,0.43,0.09,0.64,0.15c0.24,0.07,0.49,0.1,0.73,0.13
			c0.36,0.09,1.75,0.37,3.71-0.05c2.04-0.43,2.76-0.71,3.63-1.42c0.34-0.28,0.51-0.58,0.5-0.9c-0.01-0.15-0.05-0.29-0.12-0.42l0,0
			c0,0-0.4-1.01-1.73-1.63c-0.91-0.43-1.3-0.58-1.46-0.63c-0.01-0.05-0.02-0.11-0.03-0.16c0.2,0.07,0.75,0.28,1.82,0.78
			c0.66,0.31,1.14,0.7,1.47,1.03c0.26,0.28,0.62,0.8,0.77,1.56c0.04,0.24,0.08,0.75-0.11,1.26c-0.01,0.02-0.02,0.04-0.03,0.06
			c-0.04,0.08-0.08,0.15-0.12,0.23c-0.17,0.28-0.43,0.54-0.83,0.74c-0.07,0.03-0.13,0.07-0.2,0.1c-0.53,0.25-1.15,0.51-1.87,0.71
			c-0.08,0.02-0.16,0.04-0.24,0.06c-1.11,0.29-2.41,0.44-3.88,0.26c-0.25-0.04-0.5-0.09-0.75-0.12c-0.05-0.01-0.1-0.02-0.15-0.03
			c-0.21-0.06-0.38-0.2-0.56-0.31c0.05-0.06,0.1-0.12,0.15-0.19c0.12-0.16,0.08-0.49-0.11-0.64c-0.2-0.15-0.42-0.23-0.66-0.3
			c-0.23-0.06-0.45-0.1-0.68-0.18c-0.17-0.06-0.37-0.07-0.55-0.09c-0.11-0.01-0.23,0.02-0.34,0.03c0.01-0.13-0.07-0.22-0.16-0.32
			c-0.08-0.08-0.16-0.16-0.23-0.24C29.02,23.51,29.22,23.61,29.44,23.68z"/>
		<path class="st5" d="M22.61,22.82c0,0,0.01,0.01,0,0.02c-0.01,0.02-0.02,0.04-0.02,0.06c0,0.03,0.01,0.05,0.03,0.06
			c0.02,0.02,0.04,0.02,0.07,0.02c0.03,0,0.05-0.01,0.06-0.03c0.02-0.02,0.02-0.04,0.02-0.07c0-0.02-0.01-0.04-0.03-0.06
			c0,0-0.01-0.01,0-0.02c0-0.01,0.01-0.01,0.02,0c0.04,0.03,0.07,0.07,0.07,0.12c0.01,0.08-0.06,0.16-0.14,0.16
			c-0.02,0-0.05,0-0.07-0.01c-0.05-0.02-0.09-0.07-0.09-0.13c0-0.05,0.02-0.1,0.05-0.13C22.6,22.82,22.61,22.82,22.61,22.82z"/>
		<path class="st5" d="M21.49,22.39c0,0,0.01,0.01,0,0.02c-0.01,0.02-0.02,0.04-0.02,0.06c0,0.05,0.05,0.09,0.1,0.09
			c0.03,0,0.05-0.01,0.06-0.03c0.02-0.02,0.02-0.04,0.02-0.07c0-0.02-0.01-0.04-0.03-0.06c0,0-0.01-0.01,0-0.02
			c0-0.01,0.01-0.01,0.02,0c0.04,0.03,0.07,0.07,0.07,0.12c0,0.04-0.01,0.08-0.04,0.11c-0.03,0.03-0.06,0.05-0.1,0.05
			c-0.02,0-0.05,0-0.07-0.01c-0.05-0.02-0.09-0.07-0.09-0.13c0-0.05,0.02-0.1,0.05-0.13C21.48,22.39,21.48,22.39,21.49,22.39z"/>
		<path class="st5" d="M20.25,21.92c0.01,0,0.01,0,0.02,0c0,0,0.01,0.01,0,0.02c-0.01,0.02-0.02,0.04-0.02,0.06
			c0,0.03,0.01,0.05,0.03,0.06c0.02,0.02,0.04,0.02,0.07,0.02c0.03,0,0.05-0.01,0.06-0.03c0.02-0.02,0.02-0.04,0.02-0.07
			c0-0.02-0.01-0.04-0.03-0.06c0,0-0.01-0.01,0-0.02c0-0.01,0.01-0.01,0.02,0c0.04,0.03,0.07,0.07,0.07,0.12
			c0,0.04-0.01,0.08-0.04,0.11c-0.03,0.03-0.06,0.05-0.1,0.05c-0.02,0-0.05,0-0.07-0.01c-0.05-0.02-0.09-0.07-0.09-0.13
			C20.2,22,20.22,21.95,20.25,21.92z"/>
		<path class="st5" d="M22.76,18.13c0.01,0,0.01,0,0.02,0c0,0,0.01,0.01,0,0.02c-0.01,0.02-0.02,0.04-0.02,0.06
			c0,0.03,0.01,0.05,0.03,0.06c0.02,0.02,0.04,0.02,0.07,0.02c0.03,0,0.05-0.01,0.06-0.03c0.02-0.02,0.02-0.04,0.02-0.07
			c0-0.02-0.01-0.04-0.03-0.06c0,0-0.01-0.01,0-0.02c0-0.01,0.01-0.01,0.02,0c0.04,0.03,0.07,0.07,0.07,0.12
			c0,0.04-0.01,0.08-0.04,0.11c-0.03,0.03-0.06,0.05-0.1,0.05c-0.02,0-0.05,0-0.07-0.01c-0.05-0.02-0.09-0.07-0.09-0.13
			C22.71,18.21,22.73,18.17,22.76,18.13z"/>
		<path class="st5" d="M22.11,18.82c0.01,0,0.01,0,0.02,0c0,0,0.01,0.01,0,0.02c-0.01,0.02-0.02,0.04-0.02,0.06
			c0,0.03,0.01,0.05,0.03,0.06c0.02,0.02,0.04,0.02,0.07,0.02c0.03,0,0.05-0.01,0.06-0.03c0.02-0.02,0.02-0.04,0.02-0.07
			c0-0.02-0.01-0.04-0.03-0.06c0,0-0.01-0.01,0-0.02s0.01-0.01,0.02,0c0.04,0.03,0.07,0.07,0.07,0.12c0,0.04-0.01,0.08-0.04,0.11
			c-0.03,0.03-0.06,0.05-0.1,0.05c-0.02,0-0.05,0-0.07-0.01c-0.05-0.02-0.09-0.07-0.09-0.13C22.05,18.9,22.07,18.85,22.11,18.82z"/>
		<path class="st5" d="M21.48,19.69c0.01,0,0.01,0,0.02,0c0,0,0.01,0.01,0,0.02c-0.01,0.02-0.02,0.04-0.02,0.06
			c0,0.03,0.01,0.05,0.03,0.06c0.02,0.02,0.04,0.02,0.07,0.02c0.03,0,0.05-0.01,0.06-0.03c0.02-0.02,0.02-0.04,0.02-0.07
			c0-0.02-0.01-0.04-0.03-0.06c0,0-0.01-0.01,0-0.02c0-0.01,0.01-0.01,0.02,0c0.04,0.03,0.07,0.07,0.07,0.12
			c0,0.04-0.01,0.08-0.04,0.11c-0.03,0.03-0.06,0.05-0.1,0.05c-0.02,0-0.05,0-0.07-0.01c-0.05-0.02-0.09-0.07-0.09-0.13
			C21.42,19.76,21.44,19.72,21.48,19.69z"/>
		<path class="st5" d="M20.82,20.68c0.01,0,0.01,0,0.02,0c0,0,0.01,0.01,0,0.02c-0.01,0.02-0.02,0.04-0.02,0.06
			c0,0.03,0.01,0.05,0.03,0.06c0.02,0.02,0.04,0.02,0.07,0.02c0.03,0,0.05-0.01,0.06-0.03c0.02-0.02,0.02-0.04,0.02-0.07
			c0-0.02-0.01-0.04-0.03-0.06c0,0-0.01-0.01,0-0.02c0-0.01,0.01-0.01,0.02,0c0.04,0.03,0.07,0.07,0.07,0.12
			c0,0.04-0.01,0.08-0.04,0.11c-0.03,0.03-0.06,0.05-0.1,0.05c-0.02,0-0.05,0-0.07-0.01c-0.05-0.02-0.09-0.07-0.09-0.13
			C20.76,20.76,20.78,20.71,20.82,20.68z"/>
		<path class="st5" d="M19.7,23.11c0.01,0,0.01,0,0.02,0c0,0,0.01,0.01,0,0.02c-0.01,0.02-0.02,0.04-0.02,0.06
			c0,0.03,0.01,0.05,0.03,0.06c0.02,0.02,0.04,0.02,0.07,0.02c0.03,0,0.05-0.01,0.06-0.03c0.02-0.02,0.02-0.04,0.02-0.07
			c0-0.02-0.01-0.04-0.03-0.06c0,0-0.01-0.01,0-0.02c0-0.01,0.01-0.01,0.02,0c0.04,0.03,0.07,0.07,0.07,0.12
			c0,0.04-0.01,0.08-0.04,0.11c-0.03,0.03-0.06,0.05-0.1,0.05c-0.02,0-0.05,0-0.07-0.01c-0.05-0.02-0.09-0.07-0.09-0.13
			C19.64,23.19,19.66,23.15,19.7,23.11z"/>
		<path class="st5" d="M19.2,24.49c0.01,0,0.01,0,0.02,0c0,0,0.01,0.01,0,0.02c-0.01,0.02-0.02,0.04-0.02,0.06
			c0,0.03,0.01,0.05,0.03,0.06c0.02,0.02,0.04,0.02,0.07,0.02c0.03,0,0.05-0.01,0.06-0.03c0.02-0.02,0.02-0.04,0.02-0.07
			c0-0.02-0.01-0.04-0.03-0.06c0,0-0.01-0.01,0-0.02c0-0.01,0.01-0.01,0.02,0c0.04,0.03,0.07,0.07,0.07,0.12
			c0,0.04-0.01,0.08-0.04,0.11c-0.03,0.03-0.06,0.05-0.1,0.05c-0.02,0-0.05,0-0.07-0.01c-0.05-0.02-0.09-0.07-0.09-0.13
			C19.14,24.57,19.16,24.52,19.2,24.49z"/>
		<path class="st5" d="M18.81,25.99c0.01,0,0.01,0,0.02,0c0,0,0.01,0.01,0,0.02c-0.01,0.02-0.02,0.04-0.02,0.06
			c0,0.03,0.01,0.05,0.03,0.06c0.02,0.02,0.04,0.02,0.07,0.02c0.03,0,0.05-0.01,0.06-0.03c0.02-0.02,0.02-0.04,0.02-0.07
			c0-0.02-0.01-0.04-0.03-0.06c0,0-0.01-0.01,0-0.02s0.01-0.01,0.02,0c0.04,0.03,0.07,0.07,0.07,0.12c0,0.04-0.01,0.08-0.04,0.11
			c-0.03,0.03-0.06,0.05-0.1,0.05c-0.02,0-0.05,0-0.07-0.01c-0.05-0.02-0.09-0.07-0.09-0.13C18.75,26.07,18.77,26.02,18.81,25.99z"
			/>
		<path class="st5" d="M18.5,27.54c0.01,0,0.01,0,0.02,0c0,0,0.01,0.01,0,0.02c-0.01,0.02-0.02,0.04-0.02,0.06
			c0,0.03,0.01,0.05,0.03,0.06c0.02,0.02,0.04,0.02,0.07,0.02c0.03,0,0.05-0.01,0.06-0.03c0.02-0.02,0.02-0.04,0.02-0.07
			c0-0.02-0.01-0.04-0.03-0.06c0,0-0.01-0.01,0-0.02c0-0.01,0.01-0.01,0.02,0c0.04,0.03,0.07,0.07,0.07,0.12
			c0,0.04-0.01,0.08-0.04,0.11c-0.03,0.03-0.06,0.05-0.1,0.05c-0.02,0-0.05,0-0.07-0.01c-0.05-0.02-0.09-0.07-0.09-0.13
			C18.44,27.62,18.46,27.57,18.5,27.54z"/>
		<path class="st5" d="M18.31,29.19c0.01,0,0.01,0,0.02,0c0,0,0.01,0.01,0,0.02c-0.01,0.02-0.02,0.04-0.02,0.06
			c0,0.03,0.01,0.05,0.03,0.06c0.02,0.02,0.04,0.02,0.07,0.02c0.03,0,0.05-0.01,0.06-0.03c0.02-0.02,0.02-0.04,0.02-0.07
			c0-0.02-0.01-0.04-0.03-0.06c0,0-0.01-0.01,0-0.02c0-0.01,0.01-0.01,0.02,0c0.04,0.03,0.07,0.07,0.07,0.12
			c0,0.04-0.01,0.08-0.04,0.11c-0.03,0.03-0.06,0.05-0.1,0.05c-0.02,0-0.05,0-0.07-0.01c-0.05-0.02-0.09-0.07-0.09-0.13
			C18.25,29.27,18.27,29.22,18.31,29.19z"/>
		<path class="st5" d="M18.33,31.28c0.01,0,0.01,0,0.02,0c0,0,0.01,0.01,0,0.02c-0.01,0.02-0.02,0.04-0.02,0.06
			c0,0.03,0.01,0.05,0.03,0.06c0.02,0.02,0.04,0.02,0.07,0.02c0.03,0,0.05-0.01,0.06-0.03c0.02-0.02,0.02-0.04,0.02-0.07
			c0-0.02-0.01-0.04-0.03-0.06c0,0-0.01-0.01,0-0.02s0.01-0.01,0.02,0c0.04,0.03,0.07,0.07,0.07,0.12c0,0.04-0.01,0.08-0.04,0.11
			c-0.03,0.03-0.06,0.05-0.1,0.05c-0.02,0-0.05,0-0.07-0.01c-0.05-0.02-0.09-0.07-0.09-0.13C18.27,31.36,18.29,31.31,18.33,31.28z"
			/>
		<path class="st5" d="M27.15,27.03c0,0,0.01-0.01,0.02,0c0.01,0,0.01,0.01,0,0.02c-0.01,0.02-0.02,0.04-0.01,0.07
			c0.01,0.02,0.02,0.05,0.04,0.06c0.02,0.01,0.05,0.02,0.07,0.01c0.02-0.01,0.05-0.02,0.06-0.04c0.01-0.02,0.02-0.05,0.01-0.07
			c0-0.02-0.02-0.04-0.04-0.06c-0.01,0-0.01-0.01,0-0.02c0-0.01,0.01-0.01,0.02-0.01c0.04,0.02,0.08,0.06,0.09,0.11
			c0.01,0.04,0,0.08-0.02,0.11c-0.02,0.03-0.06,0.06-0.1,0.06c-0.02,0.01-0.05,0-0.07,0c-0.05-0.01-0.1-0.06-0.11-0.11
			C27.11,27.12,27.12,27.07,27.15,27.03z"/>
		<path class="st5" d="M26.84,28.46c0,0,0.01-0.01,0.02,0c0.01,0,0.01,0.01,0,0.02c-0.01,0.02-0.02,0.04-0.01,0.07
			c0.01,0.02,0.02,0.05,0.04,0.06c0.02,0.01,0.05,0.02,0.07,0.01c0.02-0.01,0.05-0.02,0.06-0.04c0.01-0.02,0.02-0.05,0.01-0.07
			c0-0.02-0.02-0.04-0.04-0.06c-0.01,0-0.01-0.01,0-0.02c0-0.01,0.01-0.01,0.02-0.01c0.04,0.02,0.08,0.06,0.09,0.11
			c0.01,0.04,0,0.08-0.02,0.11c-0.02,0.03-0.06,0.06-0.1,0.06c-0.02,0.01-0.05,0-0.07,0c-0.05-0.01-0.1-0.06-0.11-0.11
			C26.79,28.54,26.8,28.49,26.84,28.46z"/>
		<path class="st5" d="M26.63,30c0,0,0.01-0.01,0.02,0c0.01,0,0.01,0.01,0,0.02c-0.01,0.02-0.02,0.04-0.01,0.07
			c0.01,0.02,0.02,0.05,0.04,0.06c0.02,0.01,0.05,0.02,0.07,0.01c0.02-0.01,0.05-0.02,0.06-0.04c0.01-0.02,0.02-0.05,0.01-0.07
			c0-0.02-0.02-0.04-0.04-0.06c-0.01,0-0.01-0.01,0-0.02c0-0.01,0.01-0.01,0.02-0.01c0.04,0.02,0.08,0.06,0.09,0.11
			c0.01,0.04,0,0.08-0.02,0.11c-0.02,0.03-0.06,0.06-0.1,0.06c-0.02,0.01-0.05,0-0.07,0c-0.05-0.01-0.1-0.06-0.11-0.11
			C26.59,30.08,26.6,30.03,26.63,30z"/>
		<path class="st5" d="M26.53,31.57c0,0,0.01-0.01,0.02,0c0.01,0,0.01,0.01,0,0.02c-0.01,0.02-0.02,0.04-0.01,0.07
			c0.01,0.02,0.02,0.05,0.04,0.06c0.02,0.01,0.05,0.02,0.07,0.01c0.02-0.01,0.05-0.02,0.06-0.04c0.01-0.02,0.02-0.05,0.01-0.07
			c0-0.02-0.02-0.04-0.04-0.06c-0.01,0-0.01-0.01,0-0.02c0-0.01,0.01-0.01,0.02-0.01c0.04,0.02,0.08,0.06,0.09,0.11
			c0.01,0.04,0,0.08-0.02,0.11c-0.02,0.03-0.06,0.06-0.1,0.06c-0.02,0.01-0.05,0-0.07,0c-0.05-0.01-0.1-0.06-0.11-0.11
			C26.48,31.66,26.49,31.61,26.53,31.57z"/>
		<path class="st5" d="M26.54,33.23c0,0,0.01-0.01,0.02,0c0.01,0,0.01,0.01,0,0.02c-0.01,0.02-0.02,0.04-0.01,0.07
			c0.01,0.02,0.02,0.05,0.04,0.06c0.02,0.01,0.05,0.02,0.07,0.01c0.02-0.01,0.05-0.02,0.06-0.04c0.01-0.02,0.02-0.05,0.01-0.07
			c0-0.02-0.02-0.04-0.04-0.06c-0.01,0-0.01-0.01,0-0.02s0.01-0.01,0.02-0.01c0.04,0.02,0.08,0.06,0.09,0.11
			c0.01,0.04,0,0.08-0.02,0.11c-0.02,0.03-0.06,0.06-0.1,0.06c-0.02,0.01-0.05,0-0.07,0c-0.05-0.01-0.1-0.06-0.11-0.11
			C26.49,33.32,26.51,33.27,26.54,33.23z"/>
		<path class="st5" d="M26.82,35.3c0,0,0.01-0.01,0.02,0c0.01,0,0.01,0.01,0,0.02c-0.01,0.02-0.02,0.04-0.01,0.07
			c0.01,0.02,0.02,0.05,0.04,0.06c0.02,0.01,0.05,0.02,0.07,0.01c0.02-0.01,0.05-0.02,0.06-0.04c0.01-0.02,0.02-0.05,0.01-0.07
			c0-0.02-0.02-0.04-0.04-0.06c-0.01,0-0.01-0.01,0-0.02c0-0.01,0.01-0.01,0.02-0.01c0.04,0.02,0.08,0.06,0.09,0.11
			c0.01,0.04,0,0.08-0.02,0.11c-0.02,0.03-0.06,0.06-0.1,0.06c-0.02,0.01-0.05,0-0.07,0c-0.05-0.01-0.1-0.06-0.11-0.11
			C26.78,35.39,26.79,35.34,26.82,35.3z"/>
		<path class="st5" d="M34.89,14.62c0,0-0.44,0.95-1.18,1.41c-0.74,0.46-0.85,0.5-0.85,0.5s0.56-0.15,0.97-0.39
			c0.41-0.23,0.78-0.64,0.78-0.64"/>
		<path class="st6" d="M33.06,10.2c1.29-0.2,0.34-0.99,0.28-1.04c0.26,0.17,0.5,0.38,0.71,0.61c0.18,0.19,0.31,0.36,0.41,0.53
			c-0.05-0.01-0.09-0.02-0.14-0.03C33.93,10.2,33.51,10.17,33.06,10.2C33.06,10.2,33.06,10.2,33.06,10.2z"/>
		<path class="st6" d="M27.65,10.96c0.19-0.33,0.37-0.58,0.56-0.8c0.2-0.23,0.39-0.42,0.58-0.6c0.23-0.2,0.47-0.37,0.74-0.51
			c-1.18,0.76-0.49,1.98,0.39,1.52c0.88-0.46,1.52-0.09,1.52-0.09s0,0,0,0c-0.27,0.08-0.56,0.17-0.84,0.28
			c-0.79,0.3-1.56,0.67-2.29,1.11c-0.3,0.18-0.6,0.38-0.89,0.57c-0.1,0.07-0.21,0.14-0.31,0.21c-0.02,0.01-0.04,0.03-0.07,0.05
			c-0.02-0.04-0.05-0.07-0.07-0.11c0.02-0.07,0.04-0.13,0.06-0.2c0.05-0.15,0.1-0.3,0.15-0.45C27.3,11.62,27.46,11.29,27.65,10.96z"
			/>
		<path class="st6" d="M26.2,9.5c0.17-0.22,0.36-0.41,0.58-0.59c0.13-0.11,0.28-0.21,0.42-0.3c-1.34,1.1-0.34,1.81,0.04,1.23
			c0.39-0.58,0.96-0.55,0.96-0.55l0,0c-0.04,0.04-0.08,0.08-0.12,0.12c-0.22,0.22-0.41,0.46-0.59,0.71
			c-0.24,0.33-0.42,0.65-0.56,0.95c-0.07,0.14-0.13,0.28-0.19,0.42l-0.05,0.12c-0.1,0.24-0.2,0.5-0.28,0.8
			c-0.07-0.01-0.15-0.02-0.22-0.02c-0.03,0-0.06,0-0.09,0c-0.12-0.01-0.28-0.02-0.44,0.07c-0.09,0.05-0.16,0.1-0.22,0.17
			c-0.01-0.1-0.01-0.21-0.02-0.32c-0.02-0.38,0.01-0.79,0.09-1.22c0.04-0.21,0.1-0.44,0.2-0.72C25.82,10.07,25.98,9.78,26.2,9.5z"/>
		<path class="st5" d="M27.02,12.4c0.05-0.15,0.1-0.3,0.15-0.45c0.13-0.33,0.28-0.66,0.47-0.99c0.08-0.14,0.16-0.27,0.24-0.38
			c-0.33,0.56-0.56,1.23-0.4,1.47c0.16,0.24,0.76-0.14,0.76-0.14l0,0c-0.28,0.17-0.56,0.35-0.83,0.53c-0.1,0.07-0.21,0.14-0.31,0.21
			c-0.02,0.01-0.04,0.03-0.07,0.05c-0.02-0.04-0.05-0.07-0.07-0.11C26.98,12.53,27,12.46,27.02,12.4z"/>
		<g>
			<path class="st5" d="M25.59,10.72c-0.16,0.7,0.14,1.15,0.54,1.15c0.33,0,0.63-0.49,0.78-0.77c-0.06,0.13-0.12,0.26-0.17,0.39
				l-0.05,0.12c-0.1,0.24-0.2,0.5-0.28,0.8c-0.07-0.01-0.15-0.02-0.22-0.02c-0.03,0-0.06,0-0.09,0c-0.12-0.01-0.28-0.02-0.44,0.07
				c-0.09,0.05-0.16,0.1-0.22,0.17c-0.01-0.1-0.01-0.21-0.02-0.32c-0.02-0.38,0.01-0.79,0.09-1.22
				C25.52,10.97,25.55,10.85,25.59,10.72z"/>
			<polygon class="st5" points="27.01,10.91 27.01,10.91 27.01,10.91 			"/>
			<path class="st5" d="M25.73,10.32c0.01-0.03,0.03-0.07,0.04-0.1C25.76,10.25,25.74,10.28,25.73,10.32z"/>
		</g>
		<path class="st0" d="M27.88,18.15c0.08,0.03,0.17,0.06,0.25,0.09c-0.19-0.06-0.29-0.1-0.29-0.1
			C27.86,18.14,27.87,18.14,27.88,18.15z"/>
		<path class="st0" d="M31.62,18.39c-0.01,0-0.01,0-0.02,0C31.61,18.4,31.62,18.4,31.62,18.39z"/>
		<path class="st0" d="M28.13,18.24c0.43,0.13,1.3,0.35,2.31,0.32c0.37-0.01,0.76-0.06,1.16-0.16c0.01,0,0.01,0,0.02,0
			c0.01,0,0.02,0,0.03-0.01c1.95-0.51,2.7-1.47,2.7-1.47c0.21,0.45,0.51,0.85,0.65,1.33c-0.09-0.03-0.17-0.05-0.25-0.08
			c-0.07-0.03-0.14-0.02-0.21,0.01c-0.08,0.04-0.16,0.07-0.24,0.1c-0.25,0.09-0.49,0.17-0.74,0.26c-0.12,0.04-0.23,0.11-0.35,0.16
			c-0.17,0.07-0.34,0.14-0.51,0.21c-0.2,0.08-0.4,0.16-0.59,0.25c-0.26,0.12-0.51,0.24-0.77,0.36c-0.09,0.04-0.11,0.09-0.08,0.19
			c0.06,0.17,0.12,0.34,0.18,0.52c0.02,0.05,0.01,0.1,0.03,0.15c0.11,0.32,0.23,0.63,0.39,0.93c0.1,0.18,0.18,0.36,0.28,0.53
			c0.01,0.03,0.04,0.05,0.07,0.07c0.1,0.05,0.2,0.1,0.31,0.15c-0.06,0.15-0.11,0.3-0.19,0.43c-0.16,0.27-0.39,0.48-0.65,0.66
			c-0.31,0.21-0.65,0.32-1.01,0.4c-0.17,0.04-0.34,0.07-0.52,0.09c-0.11,0.01-0.23,0-0.34-0.02c-0.11-0.03-0.22-0.08-0.33-0.13
			c-0.26-0.11-0.53-0.22-0.78-0.33c0.06-0.04,0.13-0.08,0.19-0.14c0.06-0.06,0.1-0.13,0.15-0.2c0.18-0.24,0.24-0.52,0.27-0.8
			c0.02-0.17,0.01-0.34,0.02-0.51c0-0.24-0.03-0.47-0.09-0.7c-0.11-0.47-0.32-0.9-0.52-1.33c-0.02-0.05-0.05-0.1-0.08-0.14
			c-0.25-0.37-0.5-0.74-0.74-1.12c-0.01-0.02-0.03-0.04-0.06-0.07C27.84,18.14,27.94,18.18,28.13,18.24z"/>
		<path class="st0" d="M27.16,17.61c-0.17-0.14-0.36-0.4-0.25-0.83c0.12,0.09,0.22,0.19,0.34,0.25c0.19,0.11,0.39,0.21,0.59,0.29
			c0.38,0.16,0.77,0.3,1.17,0.4c0.41,0.1,0.83,0.17,1.25,0.2c0.61,0.04,1.21-0.02,1.8-0.2c0.53-0.16,1.01-0.41,1.46-0.73
			c0.12-0.09,0.23-0.18,0.34-0.28c0.15-0.14,0.3-0.28,0.45-0.43c0.01,0.06,0.02,0.11,0.03,0.16c0.03,0.1,0,0.18-0.05,0.25l0,0
			c0,0,0,0,0,0c0,0-0.01,0.01-0.02,0.02c-0.13,0.14-0.85,0.92-2.21,1.35c-0.11,0.05-0.23,0.08-0.35,0.11
			c-0.14,0.03-0.28,0.06-0.42,0.08c-0.01,0-0.02,0-0.03,0.01c-0.05,0.01-0.1,0.02-0.15,0.02c-0.01,0-0.02,0-0.03,0c0,0,0,0,0,0
			c-1,0.14-1.9,0.02-2.57-0.16c-0.54-0.14-0.94-0.32-1.13-0.41v0c0,0-0.03-0.01-0.07-0.03c-0.04-0.02-0.06-0.03-0.06-0.03
			s0,0,0-0.01c0,0,0,0-0.01,0C27.21,17.64,27.19,17.63,27.16,17.61z"/>
		<path class="st6" d="M26.66,15.06c0.02,0.02,0.45,0.29,0.45,0.29l0.35,0.35c0,0,0.63,0.93,1.87,1.06
			c1.23,0.13,2.74-0.05,2.74-0.05l0,0c0,0-1.13,0.95-3.46,0.46c-0.84-0.25-1.64-0.74-2.13-1.64C25.65,14.03,26.64,15.04,26.66,15.06
			z"/>
		<g>
			<path class="st5" d="M25.52,13.83c0,0,0.25,0.28,0.65,0.3c0.39,0.02,0.49,0.1,0.49,0.1l0.13-0.01l0.19-0.44
				c0,0-0.06,0.86,0.23,1.47c0.13,0.27,0.26,0.47,0.37,0.6c-0.26-0.24-0.67-0.58-0.88-0.5c-0.21,0.07-0.11,0.34-0.01,0.52
				C26.38,15.4,25.61,14.17,25.52,13.83z"/>
		</g>
		<path class="st6" d="M36.08,17.13c0.29,0.31,0.12,1.13,0.26,0.71c0.14-0.42,0.04-0.57,0.55-0.27c0.51,0.3,0.58,0.44,0.96,0.98
			c0.33,0.48,0.65,1.18,0.75,1.39c-0.22-0.14-0.46-0.27-0.7-0.39c-0.74-0.36-1.6-0.7-1.87-0.8c-0.01-0.04-0.02-0.09-0.03-0.13
			c-0.09-0.38-0.25-0.73-0.38-1.1c-0.12-0.33-0.29-0.64-0.51-0.91C35.25,16.67,35.83,16.87,36.08,17.13z"/>
		<path class="st5" d="M37.25,19.32c0.01-0.01-0.17-0.44-0.34-0.77c-0.17-0.32-0.23-0.19-0.24,0.04c-0.01,0.23-0.3,0.22-0.46-0.22
			c-0.17-0.44-0.22-0.91-0.28-0.57c-0.06,0.34-0.21,0.18-0.22,0.15c-0.01-0.02,0.12,0.56,0.13,0.65c0.02,0.09,0.12,0.28,0.12,0.28"
			/>
		<path class="st6" d="M27.75,25.97c0.13-0.19,0.26-0.37,0.39-0.56c0.08-0.12,0.16-0.24,0.24-0.36l0.22,0.15l0,0
			c0.07,0.03,0.15,0.08,0.27,0.16c0.35,0.25,0.18,0.13,0.57-0.25c0.39-0.37,0.11-0.05-0.39,0.66c-0.5,0.71-0.18,0.33,0.19,0.03
			c0.37-0.3,0.49-0.21,1.18,0.23c0.44,0.28,0.85,0.61,1.09,0.82c-0.01,0.02-0.01,0.04-0.01,0.06c0,0.07-0.02,0.1-0.06,0.13
			c-0.11-0.12-0.66-0.72-1.12-0.67c-0.02,0-0.04,0.02-0.06,0.03c0.01,0.02,0.02,0.04,0.03,0.06c0.03,0.03,0.07,0.06,0.11,0.09
			c0.24,0.18,0.48,0.35,0.7,0.56c0.06,0.06,0.1,0.12,0.1,0.21c0,0.09-0.06,0.15-0.12,0.21c-0.13-0.12-0.49-0.45-0.74-0.6
			c-0.32-0.2-0.39,0.02-0.39,0.02c0.01,0.02,0.01,0.05,0.03,0.07c0.12,0.12,0.25,0.23,0.37,0.34c0.1,0.09,0.19,0.19,0.28,0.28
			c0,0.01,0,0.02,0.01,0.03c-0.03,0-0.06,0.01-0.09,0.01c-0.17,0.03-0.33,0.02-0.49-0.03c-0.21-0.07-0.42-0.15-0.62-0.26
			c-0.29-0.16-0.59-0.32-0.88-0.48c-0.16-0.09-0.3-0.2-0.4-0.35c-0.03-0.04-0.05-0.07-0.08-0.11c0,0-0.01-0.01-0.01-0.01
			c-0.01-0.02-0.02-0.03-0.03-0.04c0,0,0,0-0.01-0.01c-0.07-0.09-0.15-0.18-0.25-0.24l0,0c-0.01,0-0.01-0.01-0.02-0.01
			c-0.06-0.04-0.05-0.07-0.03-0.12C27.73,26,27.74,25.99,27.75,25.97z"/>
		<path class="st6" d="M30.4,24.65c0.51,0.08,0.83,0.21,0.98,0.27c-0.01,0.11-0.08,0.23-0.18,0.3c-0.01,0.01-0.03,0-0.04,0
			c-0.1-0.04-0.19-0.08-0.29-0.12c-0.13-0.05-0.26-0.1-0.4-0.14c-0.06-0.02-0.13-0.02-0.2-0.03c0,0.01-0.01,0.02-0.01,0.02
			c0.02,0.02,0.05,0.05,0.07,0.06c0.03,0.02,0.06,0.04,0.09,0.05c0,0,0,0,0,0c-0.35-0.12-1.08-0.41-1.08-0.41
			S29.66,24.53,30.4,24.65z"/>
		<path class="st6" d="M29.85,25.47c0,0,0.49-0.06,1,0.13c0.36,0.13,0.72,0.42,0.91,0.57c-0.03,0.07-0.07,0.13-0.11,0.2
			c-0.03-0.02-0.05-0.04-0.07-0.06c-0.25-0.21-0.5-0.41-0.82-0.53c-0.03-0.01-0.07-0.02-0.1-0.02c-0.02,0-0.04,0.02-0.04,0.04
			c0,0.01,0.01,0.03,0.02,0.05c0.02,0.02,0.05,0.04,0.07,0.06C30.43,25.7,29.85,25.47,29.85,25.47z"/>
		<g>
			<path class="st5" d="M30.06,26.25C30.05,26.25,30.05,26.25,30.06,26.25C30.06,26.25,30.06,26.25,30.06,26.25z"/>
			<path class="st5" d="M28.08,25.3l-0.02,0.03C27.99,25.27,28.08,25.3,28.08,25.3z"/>
			<path class="st5" d="M28.06,25.33c0.03,0.02,0.09,0.06,0.19,0.12c0.35,0.19,0.47,0.29,0.55,0.28c0.08-0.01,0.01-0.02-0.2,0.27
				c-0.21,0.29-0.38,0.61,0.06,0.43c0.43-0.18,0.48-0.42,0.84-0.36c0.23,0.04,0.28,0.27,0.45,0.44c0.18,0.17-0.03-0.01-0.43,0.11
				c-0.39,0.12-0.2,0.5-0.73,0.27c-0.52-0.23-0.47-0.45-0.71-0.64c-0.24-0.2-0.35-0.3-0.35-0.3l0.06-0.15L28.06,25.33z"/>
		</g>
		<path class="st6" d="M24.98,22.01C24.99,22.01,24.99,22.01,24.98,22.01C24.99,22.01,24.99,22.01,24.98,22.01z"/>
		<path class="st5" d="M26.7,24.68c0.01-0.01,0.02-0.02,0.02-0.02S26.71,24.67,26.7,24.68z"/>
		<path class="st6" d="M25.11,22.15c-1.16,0.44,1.97,2.76,2.49,2.28c0.51-0.47,0.96-0.58,0.96-0.58s-0.24,0.11-0.51,0.43
			c-0.27,0.32-0.76,1.23-0.86,1.64c-0.11,0.41,0.35,0.45,0.35,0.45c-0.17,0-0.32-0.02-0.46-0.1c-0.22-0.11-0.44-0.23-0.67-0.34
			c-0.09-0.05-0.17-0.1-0.26-0.15c-0.37-0.19-0.73-0.41-1.05-0.68c-0.21-0.18-0.4-0.37-0.58-0.57l0,0c0,0-0.68-0.69-0.81-0.91
			c-0.01,0-0.01-0.01-0.01-0.01c-0.05-0.09-0.11-0.18-0.15-0.28c-0.05-0.14-0.07-0.28-0.08-0.42
			C23.74,21.61,25.11,22.15,25.11,22.15z"/>
		<path class="st5" d="M27.19,25.93c-0.11,0.41,0.35,0.45,0.35,0.45c-0.17,0-0.32-0.02-0.46-0.1c-0.22-0.11-0.44-0.23-0.67-0.34
			c-0.09-0.05-0.17-0.1-0.26-0.15c-0.37-0.19-0.73-0.41-1.05-0.68c-0.21-0.18-0.4-0.37-0.58-0.57l0,0c0,0-0.68-0.69-0.81-0.91
			c-0.01,0-0.01-0.01-0.01-0.01c-0.05-0.09-0.11-0.18-0.15-0.28c-0.02-0.06-0.04-0.12-0.05-0.18c0.03-0.69,0.72-0.78,0.72-0.78
			s-0.17,0.18-0.08,0.6c0.09,0.42,0.21,0.77,0.62,0.68c0.4-0.08,0.84-0.01,0.4,0.06c-0.44,0.07-0.7,0.32-0.7,0.32
			s0.59-0.31,1.14,0.05c0.55,0.36,0.59,0.78,1.06,1.14c0.47,0.36,0.62-0.19,0.62-0.19c0.07-0.26,0.19-0.46,0.34-0.62
			c0.5-0.46,0.94-0.56,0.94-0.56s-0.24,0.11-0.51,0.43C27.78,24.62,27.29,25.52,27.19,25.93z"/>
		<path class="st6" d="M25.38,21.81C25.32,21.79,25.34,21.78,25.38,21.81L25.38,21.81z"/>
		<path class="st6" d="M26.43,21.88c0.19-0.01,0.35-0.03,0.51-0.06c-0.26,0.22-0.74,0.22-0.74,0.22c1.01,0.47,1.74-0.51,1.74-0.51
			c-0.26,0.23-0.54,0.15-0.54,0.15h0c0.46-0.22,0.65-0.6,0.54-1.07c0.06,0.19,0.12,0.37,0.17,0.56c0.02,0.07,0.04,0.14,0.05,0.21
			c0.04,0.29,0.07,0.57,0.05,0.86c-0.01,0.13,0,0.27-0.04,0.4c-0.04,0.12-0.09,0.23-0.16,0.34c-0.03-0.01-0.05-0.02-0.07-0.04
			c-0.12-0.06-0.24-0.13-0.37-0.19c-0.17-0.07-0.34-0.14-0.51-0.21c-0.2-0.09-0.4-0.18-0.6-0.26c-0.03-0.01-0.05-0.02-0.08-0.03
			c0,0.01-0.01,0.02-0.01,0.02c0.03,0.03,0.07,0.07,0.1,0.1l0,0c0,0-0.98-0.45-1.07-0.56c0,0,0,0,0-0.01
			C25.47,21.84,25.73,21.91,26.43,21.88z"/>
		<path class="st5" d="M28.2,22.19c0,0-0.08,0.79-0.82,0.47c-0.74-0.31-0.02,0.09,0.04,0.13c0.06,0.04,0.19,0.15,0.36,0.22
			c0.18,0.08,0.18,0.09,0.22,0.07c0.04-0.02,0.04,0.01,0.09-0.09c0.05-0.1,0.12-0.23,0.12-0.25s0-0.02,0-0.02"/>
		<path class="st6" d="M25.13,20.94c0.14,0.06,0.27,0.13,0.41,0.19c0.1,0.04,0.19,0.07,0.22,0.18c0,0.02,0.03,0.02,0.05,0.04
			c0.01-0.02,0.03-0.04,0.02-0.06c0-0.06-0.01-0.12-0.03-0.18c-0.01-0.04,0-0.06,0.03-0.08c0.06-0.04,0.13-0.07,0.19-0.12
			c0.2-0.16,0.4-0.32,0.6-0.49c0.09-0.08,0.16-0.18,0.24-0.27c0.06-0.07,0.13-0.14,0.2-0.22c0.01,0.02,0.03,0.06,0.06,0.1
			c0.06,0.1-0.15,0.28-0.28,0.41c-0.13,0.13-0.71,0.81-0.71,0.81l0,0c-0.09,0.05-0.18,0.1-0.27,0.15c-0.01,0.01-0.04,0.01-0.05,0.01
			c-0.1-0.04-0.2-0.08-0.3-0.12c-0.13-0.05-0.25-0.12-0.38-0.17c-0.24-0.09-0.46-0.23-0.69-0.35c-0.02-0.01-0.04-0.05-0.03-0.07
			c0.01-0.02,0.04-0.03,0.07-0.04c0.02,0,0.04,0.01,0.06,0.02c0.13,0.06,0.26,0.12,0.39,0.18C25,20.88,25.07,20.91,25.13,20.94z"/>
		<path class="st0" d="M24.41,20.69c0.01-0.02,0.04-0.03,0.07-0.04c0.02,0,0.04,0.01,0.06,0.02c0.02,0.01,0.04,0.02,0.06,0.03
			c-0.03,0.03-0.06,0.07-0.08,0.1c-0.03-0.01-0.05-0.03-0.08-0.04C24.42,20.75,24.4,20.71,24.41,20.69z"/>
		<g>
			<path class="st0" d="M25.88,19.24c0-0.01,0-0.01-0.01-0.02c0.03-0.01,0.06-0.04,0.09-0.03c0.17,0.05,0.33,0.09,0.5,0.15
				c0.1,0.04,0.19,0.1,0.29,0.15c0.03,0.02,0.05,0.03,0.08,0.05C26.77,19.52,26.06,19.2,25.88,19.24z"/>
			<path class="st0" d="M24.58,20.5c0.06-0.06,0.12-0.11,0.17-0.16c0.05,0.02,0.09,0.04,0.13,0.06c-0.05,0.05-0.12,0.12-0.18,0.19
				C24.66,20.56,24.62,20.53,24.58,20.5z"/>
		</g>
		<path class="st0" d="M25.02,20.07c0.2-0.2,0.4-0.39,0.6-0.58c0.02-0.02,0.04-0.04,0.06-0.04c0.09,0,0.19-0.01,0.27,0.03
			c0.09,0.04,0.18,0.09,0.27,0.15c-0.01,0-0.42-0.15-0.51-0.09l-0.01,0.01c0,0,0.01-0.01,0.01-0.01c0,0,0,0-0.01,0
			c0,0-0.01,0.01-0.01,0.01l0.01,0c-0.03,0.02-0.07,0.07-0.04,0.12c0.04,0.08,0.54,0.21,0.21,0.15c-0.33-0.06-0.36-0.07-0.44,0.02
			c-0.08,0.09-0.07,0.07-0.04,0.13c0.03,0.06-0.1,0.02-0.17,0.06c-0.02,0.01-0.03,0.01-0.04,0.01c-0.03,0.03-0.05,0.05-0.06,0.07
			c-0.07,0.08-0.01,0.16,0.02,0.18c-0.02-0.01-0.03-0.01-0.05-0.02c-0.03-0.01-0.06-0.02-0.08-0.04c-0.02-0.02-0.04-0.05-0.03-0.07
			C24.97,20.13,24.99,20.09,25.02,20.07z"/>
		<path class="st11" d="M34.22,10.88c0,0,0.65,0.98,0.29,2.63c-0.36,1.65-0.93-0.08-2.67-0.83c-1.73-0.75-2.85-0.72-1.43-1.2
			C31.84,11.01,33.89,10.62,34.22,10.88z"/>
		<path class="st0" d="M34.38,12.34c0,0-0.01-1.24-0.38-1.32c-0.38-0.07-1.72,0.05-2.08,0.27c-0.36,0.23,1.05-0.18,1.62,0.38
			S34.37,12.87,34.38,12.34z"/>
		<path class="st5" d="M31.4,16.1c0,0-0.79,0.32-2.11-0.1c-1.31-0.42-1.46-0.97-1.63-1.65c-0.16-0.68-0.08-0.5,0.5,0.11
			C28.75,15.06,29.2,15.94,31.4,16.1z"/>
		<path class="st6" d="M33.46,24.17c-0.68,0.02-1.21-0.04-1.54-0.1c0.01-0.01,0.01-0.01,0.01-0.01c0.02-0.01,0.05-0.01,0.07-0.02
			c0.29-0.1,0.54-0.25,0.77-0.44l0,0c0,0-0.18,0.24,0.18,0.08c0.36-0.17,0.77-0.87,0.82-1.21c0.05-0.34-0.29-0.22-0.31-0.21
			c0,0,0,0,0,0l0.02-0.02c0.02-0.01,0.04-0.02,0.07-0.03c0.01,0,0.02-0.01,0.02-0.01c0.54-0.19,1.08-0.37,1.62-0.56
			c0,0,0.01,0,0.01-0.01c0.05-0.02,0.08-0.04,0.09-0.03c0.04-0.02,0.09-0.04,0.13-0.06c-0.01,0.01-0.01,0.02-0.02,0.02
			c0.02-0.01,0.04-0.02,0.06-0.03C34.61,22.56,33.67,23.87,33.46,24.17z"/>
		<path class="st5" d="M33.83,22.11c0,0,0.52-0.18,0.5,0.27c-0.01,0.45-0.4,1.13-0.4,1.13s1.36-1.54,1.38-1.61
			c0.03-0.06,0.3-0.5,0.3-0.5L33.83,22.11z"/>
		<path class="st5" d="M27.45,23.86c0,0-0.35-0.39-0.53-0.53c-0.18-0.14-0.56-0.28-0.56-0.28s0.31,0.31,0.52,0.46
			C27.09,23.65,27.45,23.86,27.45,23.86z"/>
		<path class="st5" d="M25.51,22.53c0,0-0.02,0.08,0.09,0.36c0.11,0.29,0.17,0.39,0.17,0.39s-0.26-0.11-0.38-0.38
			C25.26,22.64,25.51,22.53,25.51,22.53z"/>
		<path class="st12" d="M28.25,23.17c0,0,0.02-0.01,0.05-0.02c0.03-0.02,0.09-0.05,0.14-0.09c0.06-0.05,0.13-0.11,0.19-0.19
			c0.03-0.04,0.07-0.09,0.1-0.14c0.03-0.05,0.04-0.11,0.06-0.17c0.04-0.12,0.06-0.26,0.08-0.4c0.01-0.07,0.02-0.15,0.01-0.22
			c0-0.04,0-0.08,0-0.11l0-0.01l0-0.01l0-0.01l0-0.03l0-0.06c0-0.04,0-0.08-0.01-0.11c0-0.04-0.01-0.08-0.01-0.12
			c-0.01-0.08-0.02-0.16-0.04-0.24c-0.03-0.16-0.07-0.32-0.11-0.48c-0.04-0.16-0.09-0.31-0.15-0.46c-0.03-0.08-0.05-0.15-0.08-0.22
			c-0.03-0.07-0.06-0.14-0.09-0.21c-0.06-0.14-0.12-0.27-0.18-0.4c-0.03-0.06-0.06-0.12-0.09-0.18c-0.03-0.06-0.06-0.11-0.09-0.17
			c-0.01-0.03-0.03-0.05-0.04-0.08c-0.01-0.03-0.03-0.05-0.05-0.07c-0.04-0.04-0.07-0.08-0.11-0.12c-0.07-0.07-0.13-0.13-0.19-0.18
			c-0.05-0.05-0.1-0.08-0.13-0.11c-0.03-0.02-0.05-0.04-0.05-0.04s0.01,0.02,0.03,0.05c0.02,0.03,0.04,0.08,0.07,0.15
			c0.03,0.06,0.06,0.14,0.1,0.23c0.02,0.04,0.04,0.09,0.06,0.14c0.01,0.03,0.02,0.05,0.04,0.07c0.02,0.02,0.03,0.05,0.04,0.07
			c0.03,0.05,0.06,0.1,0.09,0.16c0.03,0.06,0.06,0.11,0.09,0.17c0.06,0.12,0.12,0.25,0.18,0.39c0.03,0.07,0.06,0.14,0.09,0.21
			c0.03,0.07,0.06,0.14,0.08,0.22c0.05,0.15,0.1,0.29,0.14,0.45c0.04,0.15,0.08,0.3,0.11,0.45c0.01,0.08,0.03,0.15,0.03,0.22
			c0,0.04,0.01,0.07,0.01,0.11c0,0.04,0,0.08,0.01,0.11l0,0.06l0,0.03l0,0.01l0,0c0-0.01,0,0,0,0l0,0l0,0.01c0,0.04,0,0.07,0,0.1
			c0,0.07-0.01,0.14-0.01,0.2c-0.02,0.13-0.04,0.25-0.07,0.35c-0.01,0.03-0.01,0.05-0.03,0.08c-0.01,0.02-0.02,0.05-0.03,0.07
			c-0.01,0.05-0.02,0.1-0.04,0.14c-0.03,0.09-0.06,0.16-0.09,0.23C28.31,23.1,28.25,23.17,28.25,23.17z"/>
		<path class="st6" d="M28.13,18.24c0.43,0.13,1.3,0.35,2.31,0.32c0.37-0.01,0.76-0.06,1.16-0.16c0.01,0,0.01,0,0.02,0
			c0.01,0,0.02,0,0.03-0.01c1.95-0.51,2.7-1.47,2.7-1.47c-0.44,1.13-2,1.78-2.87,2.27c-0.87,0.49-1.01,1.87-0.95,2.82
			c0.02,0.28,0.15,0.47,0.32,0.61l-1.26,0.17l1.88,0.09l0,0c0.26,0.05,0.48,0.05,0.48,0.05c-0.09,0.08-0.18,0.15-0.27,0.21
			c-0.31,0.21-0.65,0.32-1.01,0.4c-0.17,0.04-0.34,0.07-0.52,0.09c-0.11,0.01-0.23,0-0.34-0.02c-0.11-0.03-0.22-0.08-0.33-0.13
			c-0.26-0.11-0.53-0.22-0.78-0.33c0.06-0.04,0.13-0.08,0.19-0.14c0.06-0.06,0.1-0.13,0.15-0.2c0.18-0.24,0.24-0.52,0.27-0.8
			c0.02-0.17,0.01-0.34,0.02-0.51c0-0.24-0.03-0.47-0.09-0.7c-0.11-0.47-0.32-0.9-0.52-1.33c-0.02-0.05-0.05-0.1-0.08-0.14
			c-0.25-0.37-0.5-0.74-0.74-1.12c-0.01-0.02-0.03-0.04-0.06-0.07C27.84,18.14,27.94,18.18,28.13,18.24z"/>
		<path class="st5" d="M35.86,19.75c0,0-0.08-0.81-0.34-1.46c-0.25-0.66-0.68-1.45-0.68-1.45l-0.06,0.15c0,0,0.85,1.42,0.79,2.28"/>
		<path class="st5" d="M27.84,18.14c0,0,1.07,0.48,1.85,0.59c0.78,0.11,1.01,0.14,1.01,0.14s-0.39,0.21-1.18,0.07
			c-0.79-0.14-1.02-0.03-0.84,0.46c0.18,0.49-0.6-0.71-0.62-0.74c-0.02-0.02-0.37-0.47-0.39-0.5
			C27.65,18.15,27.84,18.14,27.84,18.14z"/>
		<path class="st5" d="M14.89,27.61c0.93,1.09,5.17,5.51,14.79,7.89c11,2.72,18.54-1.56,18.6-1.59c-1.05,1.64-3.25,2.93-6.39,3.7
			c-3.62,0.9-8.1,0.99-11.97,0.24c-3.71-0.72-7.9-1.72-10.9-3.73C16.53,32.46,15.17,30.31,14.89,27.61z"/>
		<g>
			<g>
				<path class="st5" d="M9.38,19.72l0.69,0.17l0,0c0.47-0.26,1.03-0.38,1.65-0.33c1.82,0.13,3.05,0.99,3.14,1.05
					c0.14,0.09,2.49,1.7,2.01,3.34c-0.48,1.63-3.09,2.51-5.02,2.18c-0.6-0.1-1.11-0.24-1.55-0.43c-0.63-0.27-1.11-0.63-1.42-1.09
					l0,0l-0.86-0.24C8,24.37,7.98,24.36,7.95,24.35c-0.61-0.26-0.8-1.39-0.43-2.65C7.9,20.4,8.72,19.53,9.38,19.72z"/>
				<path class="st3" d="M8.5,22.32c-0.14,0.7-0.09,1.32,0.13,1.84l-0.51-0.14c-0.39-0.11-0.6-1.05-0.26-2.22
					c0.34-1.16,1.02-1.84,1.41-1.73l0.01,0l0.37,0.09C9.09,20.64,8.69,21.37,8.5,22.32z"/>
				<path class="st3" d="M11.7,19.92c0.82,0.06,1.52,0.28,2.03,0.5c0.57,0.24,0.91,0.48,0.92,0.49l0.01,0
					c0.02,0.02,2.27,1.54,1.86,2.93c-0.42,1.43-2.86,2.22-4.6,1.92c-1.35-0.23-2.27-0.69-2.74-1.37c-0.36-0.53-0.47-1.2-0.31-2.01
					C9.02,21.6,9.6,19.77,11.7,19.92z"/>
				<g>
					<path class="st0" d="M14.52,21.24L14.52,21.24c-0.01-0.01-0.35-0.25-0.92-0.49c-0.51-0.22-1.21-0.44-2.03-0.5
						c-1.41-0.1-2.13,0.69-2.51,1.46c0.32-0.85,1.03-1.9,2.64-1.79c0.82,0.06,1.52,0.28,2.03,0.5c0.57,0.24,0.91,0.48,0.92,0.49
						l0.01,0c0.02,0.02,2.27,1.54,1.86,2.93c-0.03,0.12-0.08,0.23-0.14,0.34c0,0,0-0.01,0-0.01C16.79,22.78,14.54,21.25,14.52,21.24
						z"/>
				</g>
				<path class="st3" d="M11.69,20.13c0.67,0.05,1.33,0.21,1.96,0.48c0.55,0.23,0.87,0.46,0.88,0.47l0.01,0.01
					c0.6,0.4,2.08,1.67,1.78,2.7c-0.38,1.29-2.72,2.06-4.37,1.78c-1.29-0.22-2.16-0.65-2.6-1.28c-0.33-0.48-0.42-1.1-0.28-1.85
					C9.25,21.51,9.83,20,11.69,20.13z"/>
				<path class="st6" d="M12.04,21.08c0,0-1.05-0.06-1.79,0.58c-0.74,0.63-0.8,0.81-0.8,0.81S11.06,21.15,12.04,21.08z"/>
				<path class="st5" d="M9.56,23.2c1.86,1.56,4.79,1.41,5.81,0.92c1.02-0.49,0.61-1.44,0.61-1.44l0.07-0.1
					c0.25,0.39,0.38,0.81,0.27,1.2c-0.38,1.29-2.72,2.06-4.37,1.78c-1.29-0.22-2.16-0.65-2.6-1.28c-0.28-0.41-0.39-0.93-0.33-1.54
					C9.18,22.88,9.36,23.04,9.56,23.2z"/>
				<path class="st5" d="M8.36,22c-0.02,0.09-0.04,0.19-0.06,0.28c-0.11,0.58-0.11,1.1,0.01,1.58l-0.13-0.04
					c-0.04-0.01-0.09-0.06-0.13-0.14c-0.17-0.3-0.22-0.98,0.02-1.82c0.02-0.07,0.04-0.13,0.06-0.19C8.21,21.79,8.29,21.9,8.36,22z"
					/>
				<path class="st6" d="M9.28,21.7c0.32-0.82,0.99-1.67,2.4-1.56c0.67,0.05,1.33,0.21,1.96,0.48c0.55,0.23,0.87,0.46,0.88,0.47
					l0.01,0.01c0.48,0.32,1.54,1.21,1.77,2.08c-0.02-0.03-0.92-1.62-2.13-1.47c-1.21,0.15-2.4,0.84-2.4,0.84s0.06-0.68,0.89-1.2
					C13.5,20.82,10.71,19.86,9.28,21.7z"/>
				<path class="st0" d="M9.28,20.08L9.28,20.08l0.38,0.09c-0.1,0.08-0.19,0.17-0.27,0.26c-0.1-0.06-0.28-0.13-0.54-0.03
					c-0.42,0.15-0.8,0.96-0.93,1.27C8.26,20.59,8.9,19.96,9.28,20.08z"/>
			</g>
			<path class="st0" d="M15.01,21.44c-0.01-0.03-0.75-0.56-1.56-0.23c0,0,0.82-0.36,0.09-0.65c0,0,0.22-0.02,0.32,0.02
				c0.1,0.04,0.18,0.08,0.38,0.18c0.2,0.1,0.29,0.14,0.41,0.21c0.12,0.07,0.28,0.24,0.28,0.24l0.13,0.09"/>
			<g>
				<polyline class="st3" points="13.23,23.15 11.33,25.09 12.47,23.39 				"/>
				<path class="st5" d="M14.17,24.16c0,0-1.61,0.08-2.47-0.2c-0.86-0.27-0.96-0.31-0.96-0.31s1.42,0.16,2.02,0.27
					C13.37,24.04,14.17,24.16,14.17,24.16z"/>
				<polyline class="st5" points="11.72,24.51 12.83,22.83 11.28,24.45 				"/>
			</g>
		</g>
		<path class="st3" d="M32.09,25.68c-0.05-0.01-0.1-0.02-0.15-0.03c-0.21-0.06-0.38-0.2-0.56-0.31c0.05-0.06,0.1-0.12,0.15-0.19
			c0.05-0.07,0.07-0.16,0.07-0.25c2.59,0.49,6.97,0.14,7.87-1.66c0.95-1.9-1.1-3.21-1.19-3.26c0.47,0.27,0.82,0.57,1.08,0.83
			c0.26,0.28,0.62,0.8,0.77,1.56c0.04,0.24,0.08,0.75-0.11,1.26c-0.01,0.02-0.02,0.04-0.03,0.06c-0.04,0.08-0.08,0.15-0.12,0.23
			c-0.17,0.28-0.43,0.54-0.83,0.74c-0.07,0.03-0.13,0.07-0.2,0.1c-0.53,0.25-1.15,0.51-1.87,0.71c-0.08,0.02-0.16,0.04-0.24,0.06
			c-1.11,0.29-2.41,0.44-3.88,0.26C32.59,25.75,32.34,25.7,32.09,25.68z"/>
		<path class="st3" d="M26.67,17.04c0,0.01,0,0.02,0,0.03l0,0.04c0,0.01,0,0.02,0,0.03c0,0-0.54-0.05-1.15,0.11l0,0
			c0,0-2.34,0.27-1.68,3.61l-0.19,0.23c-0.01-0.02-0.01-0.04-0.02-0.07c-0.11-0.34-0.29-1.08-0.1-2.01
			c0.01-0.06,0.02-0.11,0.04-0.17C23.91,17.48,25.21,16.78,26.67,17.04z"/>
		<path class="st6" d="M25.53,17.25L25.53,17.25c-0.08,0.02-0.16,0.04-0.24,0.07c-0.37,0.15-0.73,0.42-0.97,0.88l0,0
			c-0.06,0.12-0.1,0.25-0.14,0.39c-0.09,0.28-0.1,0.57-0.11,0.85c-0.01,0.34,0.04,0.67,0.11,0.99l-0.34,0.41
			C23.19,17.53,25.53,17.25,25.53,17.25z"/>
		<path class="st0" d="M30.19,23.93c0.21,0.06,0.43,0.09,0.64,0.15c0.24,0.07,0.49,0.1,0.73,0.13c0.36,0.09,1.75,0.37,3.71-0.05
			c2.04-0.43,2.76-0.71,3.63-1.42c0.25-0.21,0.41-0.43,0.47-0.66l0,0c0,0-0.33,1.95-3.37,2.47c-1.64,0.28-3.16,0.25-4.51,0.03
			c-0.02-0.03-0.04-0.05-0.07-0.07c-0.2-0.15-0.42-0.23-0.66-0.3c-0.23-0.06-0.45-0.1-0.68-0.18c-0.17-0.06-0.37-0.07-0.55-0.09
			c-0.11-0.01-0.23,0.02-0.34,0.03c0.01-0.13-0.07-0.22-0.16-0.32c-0.08-0.08-0.16-0.16-0.23-0.24c0.21,0.08,0.42,0.18,0.63,0.26
			C29.68,23.78,29.93,23.86,30.19,23.93z"/>
		<path class="st0" d="M49.02,30.17c0.28,0.77,0.38,1.55,0.21,2.3c-0.21,0.94-0.76,1.8-1.6,2.56c-0.37-0.54-0.49-1.5-0.27-2.53
			C47.65,31.27,48.34,30.33,49.02,30.17z"/>
		<path class="st0" d="M40.53,22.78c0-0.17-0.02-0.33-0.04-0.47c-0.06-0.29-0.13-0.54-0.22-0.74c0.91,0.57,2.84,1.84,4.67,3.44
			c2.22,1.93,4.74,4.74,4.33,7.27l-0.23,0.03c0,0-1.2-5.44-8.52-9.29C40.53,22.93,40.53,22.86,40.53,22.78z"/>
		<path class="st0" d="M17.33,19.63c1.51-1.94,4.08-3.38,8.44-2.97c-0.06,0-0.13,0.01-0.19,0.01c-0.31,0.03-0.58,0.16-0.82,0.28
			C23.65,16.92,19.73,17,17.33,19.63z"/>
		<g>
			<g>
				<path class="st5" d="M47.45,27.08c0.34-0.12,0.57-0.03,0.7,0.06c0.77,0.55,0.69,1.81,0.68,1.87c-0.01,0.08-0.07,0.14-0.14,0.14
					c-0.08,0.01-0.15-0.04-0.17-0.11c-0.04-0.16-0.23-0.63-0.53-0.83c-0.05-0.04-0.13-0.02-0.19,0c-0.47,0.18-1.24,1.2-1.87,3.48
					c-0.08,0.27-0.14,0.53-0.2,0.77c-0.38,1.55-0.24,2.58-0.19,2.86c0.01,0.03,0.01,0.05,0.02,0.08c0.04,0.19,0.08,0.32,0.08,0.34
					c0.01,0.03,0.02,0.07,0.04,0.1c0.05,0.15,0.12,0.24,0.22,0.27c0.2,0.06,0.48-0.12,0.58-0.19c0.06-0.05,0.15-0.05,0.2,0.01
					c0.06,0.05,0.07,0.14,0.03,0.2c-0.17,0.26-0.63,0.87-1.15,0.89c-0.08,0-0.17-0.01-0.27-0.05c-0.1-0.04-0.21-0.12-0.32-0.26
					c-0.5-0.66-0.95-2.66-0.16-5.49C45.5,28.77,46.66,27.36,47.45,27.08z"/>
				<path class="st5" d="M40.85,28.73c0.92-1.94,2.99-4.63,4.34-4.44c0.53,0.08,0.86,0.54,1,1.4c0.02,0.1-0.04,0.19-0.14,0.22
					c-0.09,0.03-0.14-0.2-0.23-0.11c0,0-0.13-0.28-0.37-0.37c-0.14-0.05-0.31-0.02-0.5,0.08c-0.4,0.22-1.21,1.03-1.95,2.11
					c-0.66,0.96-1.5,2.49-1.79,4.32c-0.59,3.66-0.16,4.94,0.3,5.37c0.24,0.23,0.57,0.29,0.99,0.19c0.08-0.02,0.17,0.02,0.21,0.09
					c0.04,0.07,0.04,0.16-0.02,0.23c-0.03,0.04-0.82,0.94-1.66,0.72c-0.05-0.01-0.11-0.03-0.16-0.05c-0.54-0.23-0.94-0.91-1.19-2.04
					c0,0,0,0,0-0.01C39.16,33.66,39.99,30.55,40.85,28.73z"/>
			</g>
			<path class="st6" d="M45.13,24.68c0.19,0.03,0.35,0.16,0.47,0.39c-0.01,0-0.02-0.01-0.03-0.01c-0.25-0.09-0.53-0.05-0.82,0.11
				c-0.86,0.48-3.38,3.27-3.93,6.71c-0.5,3.12-0.36,4.99,0.42,5.72c0.21,0.19,0.45,0.3,0.74,0.33c-0.24,0.17-0.55,0.31-0.86,0.23
				c-0.46-0.12-0.82-0.74-1.06-1.79c-0.5-2.68,0.3-5.7,1.14-7.47C42.16,26.87,44.13,24.53,45.13,24.68z"/>
			<path class="st6" d="M47.56,27.37c0.17-0.06,0.31-0.05,0.41,0.02c0.27,0.19,0.41,0.51,0.48,0.81c-0.08-0.1-0.17-0.19-0.28-0.26
				c-0.09-0.06-0.25-0.11-0.47-0.03c-0.56,0.21-1.4,1.29-2.07,3.69c-0.08,0.27-0.14,0.54-0.2,0.78c-0.39,1.61-0.24,2.7-0.19,3
				c0.01,0.03,0.01,0.06,0.02,0.09c0.05,0.22,0.09,0.36,0.09,0.36c0,0,0,0,0,0.01c0.01,0.03,0.02,0.07,0.04,0.1
				c0.08,0.25,0.23,0.41,0.43,0.47c0.08,0.02,0.16,0.03,0.24,0.02c-0.18,0.17-0.36,0.27-0.51,0.27c-0.12,0-0.23-0.06-0.33-0.18
				c-0.44-0.58-0.86-2.51-0.11-5.22C45.74,29.07,46.82,27.64,47.56,27.37z"/>
			<path class="st0" d="M45.12,31.3c0.63-2.23,1.7-3.67,2.44-3.93c0.17-0.06,0.31-0.05,0.41,0.02c0.27,0.19,0.41,0.51,0.48,0.81
				c0,0-0.52-1.89-2.06,0.47c-0.62,0.96-1.02,1.88-1.29,2.64C45.11,31.31,45.12,31.31,45.12,31.3z"/>
			<path class="st0" d="M45.13,24.68c0.19,0.03,0.35,0.16,0.47,0.39c0,0-0.53-0.76-1.73,0.36c-1.08,1.01-1.96,2.19-2.48,3.1
				C42.4,26.59,44.19,24.54,45.13,24.68z"/>
		</g>
		<g>
			<path class="st3" d="M45.05,24.85c-0.13,0.03-0.26,0.08-0.39,0.15c-0.89,0.49-3.47,3.34-4.03,6.84
				c-0.52,3.23-0.37,5.09,0.48,5.88c0.11,0.1,0.23,0.18,0.36,0.25c-0.1,0.03-0.21,0.03-0.31,0.01c-0.38-0.1-0.71-0.68-0.93-1.65
				c-0.49-2.64,0.3-5.61,1.13-7.35C42.35,26.9,44.21,24.84,45.05,24.85z"/>
			<path class="st3" d="M47.62,27.55L47.62,27.55c0.11-0.04,0.19-0.04,0.25,0c0.06,0.04,0.11,0.09,0.16,0.15
				c-0.11-0.02-0.24-0.01-0.39,0.05c-0.79,0.3-1.6,1.72-2.18,3.81c-0.08,0.28-0.15,0.54-0.21,0.79c-0.4,1.64-0.25,2.77-0.19,3.08
				c0.01,0.03,0.01,0.06,0.02,0.09c0.05,0.22,0.09,0.36,0.09,0.38l0,0.01c0.01,0.03,0.02,0.07,0.03,0.1
				c0.09,0.27,0.24,0.43,0.38,0.51c-0.02,0.01-0.04,0.01-0.05,0.01c-0.03,0-0.09,0-0.17-0.11c-0.36-0.47-0.84-2.32-0.07-5.06
				C45.9,29.2,46.94,27.79,47.62,27.55z"/>
		</g>
		<path class="st3" d="M25.81,33.51c0,0,0.19,1.83,0.69,2.81c0,0-0.92-1.66-1.01-3.15"/>
		<path class="st3" d="M17.8,29.69c0,0-0.02,1.84,0.36,2.87c0,0-0.72-1.75-0.65-3.24"/>
		<path class="st6" d="M40.36,29.08c0,0-1.5,3.71-0.84,5.86c0.66,2.15,1.26-6.1,1.45-6.46c0.19-0.36,0.37-0.94,0.37-0.94"/>
		<path class="st6" d="M45.11,29.39c0,0-1.63,2.88-0.62,6.04c1.02,3.16,0.89-3.6,0.85-3.84c-0.05-0.24,0.01-0.92,0.12-1.16
			c0.11-0.24,0.26-0.55,0.28-0.6C45.76,29.78,45.11,29.39,45.11,29.39z"/>
		<path class="st5" d="M26.78,26.36c-0.01,0.03-0.02,0.07-0.03,0.1c-0.04,0.12-0.07,0.25-0.11,0.37c-0.03,0.12-0.06,0.25-0.09,0.38
			c-0.03,0.13-0.06,0.25-0.09,0.38l-0.04,0.19l-0.04,0.19c-0.05,0.26-0.1,0.52-0.14,0.77c-0.04,0.26-0.07,0.51-0.11,0.76l-0.01,0.09
			l-0.01,0.1c-0.01,0.06-0.01,0.13-0.02,0.19c-0.01,0.13-0.03,0.25-0.04,0.38c-0.01,0.06-0.01,0.12-0.02,0.19
			c0,0.06-0.01,0.12-0.01,0.19C26.01,30.76,26,30.88,25.99,31c-0.02,0.24-0.02,0.48-0.03,0.72c0,0.06,0,0.12,0,0.18l0,0.09l0,0.09
			c0,0.11,0,0.23,0,0.34c0,0.11,0,0.22,0.01,0.33c0.01,0.11,0.01,0.22,0.02,0.32c0.01,0.11,0.01,0.21,0.02,0.31
			c0.01,0.1,0.02,0.2,0.02,0.3c0.01,0.1,0.01,0.19,0.03,0.29c0.01,0.09,0.02,0.18,0.03,0.27c0.02,0.18,0.04,0.35,0.07,0.5
			c0.02,0.16,0.05,0.3,0.07,0.44c0.02,0.14,0.05,0.26,0.07,0.37c0.05,0.22,0.09,0.4,0.12,0.52c0.03,0.12,0.05,0.18,0.05,0.18
			s-0.03-0.06-0.07-0.18c-0.04-0.12-0.1-0.29-0.17-0.51c-0.03-0.11-0.07-0.23-0.1-0.37c-0.03-0.13-0.07-0.28-0.1-0.44
			c-0.03-0.16-0.07-0.32-0.1-0.5c-0.02-0.09-0.03-0.18-0.05-0.27c-0.02-0.09-0.03-0.19-0.04-0.29c-0.01-0.1-0.03-0.2-0.04-0.3
			c-0.01-0.1-0.02-0.21-0.03-0.31c-0.01-0.11-0.02-0.21-0.03-0.32c-0.01-0.11-0.01-0.22-0.02-0.34c-0.01-0.11-0.01-0.23-0.02-0.35
			l0-0.09l0-0.09c0-0.06,0-0.12,0-0.18c0-0.24-0.01-0.48,0.01-0.73c0.01-0.5,0.05-1.01,0.11-1.53c0.04-0.26,0.07-0.52,0.11-0.78
			c0.04-0.26,0.09-0.52,0.14-0.77l0.04-0.19l0.05-0.2c0.03-0.13,0.06-0.26,0.09-0.39c0.03-0.13,0.06-0.26,0.09-0.38
			c0.04-0.13,0.08-0.25,0.11-0.38c0.01-0.05,0.03-0.09,0.04-0.14L26.78,26.36z"/>
		<path class="st3" d="M34.54,23.56c0.22-0.34,0.48-0.74,0.76-1.13c-0.94,1.48,1.45,0.83,1.53,0.81c-0.43,0.14-0.97,0.27-1.68,0.42
			c-0.33,0.07-0.55,0.11-0.76,0.14C34.44,23.72,34.49,23.64,34.54,23.56z"/>
		<path class="st3" d="M26.66,34.91c0,0,0.01-0.01,0.02,0c0.01,0,0.01,0.01,0,0.02c-0.01,0.02-0.02,0.04-0.01,0.07
			c0.01,0.02,0.02,0.05,0.04,0.06c0.02,0.01,0.05,0.02,0.07,0.01c0.02-0.01,0.05-0.02,0.06-0.04c0.01-0.02,0.02-0.05,0.01-0.07
			c0-0.02-0.02-0.04-0.04-0.06c-0.01,0-0.01-0.01,0-0.02s0.01-0.01,0.02-0.01c0.04,0.02,0.08,0.06,0.09,0.11
			c0.01,0.04,0,0.08-0.02,0.11c-0.02,0.03-0.06,0.06-0.1,0.06c-0.02,0.01-0.05,0-0.07,0c-0.05-0.01-0.1-0.06-0.11-0.11
			C26.62,34.99,26.63,34.95,26.66,34.91z"/>
		<path class="st3" d="M27.01,36.59c0,0,0.01-0.01,0.02,0c0.01,0,0.01,0.01,0,0.02c-0.01,0.02-0.02,0.04-0.01,0.07
			c0.01,0.02,0.02,0.05,0.04,0.06c0.02,0.01,0.05,0.02,0.07,0.01c0.02-0.01,0.05-0.02,0.06-0.04c0.01-0.02,0.02-0.05,0.01-0.07
			c0-0.02-0.02-0.04-0.04-0.06c-0.01,0-0.01-0.01,0-0.02c0-0.01,0.01-0.01,0.02-0.01c0.04,0.02,0.08,0.06,0.09,0.11
			c0.01,0.04,0,0.08-0.02,0.11c-0.02,0.03-0.06,0.06-0.1,0.06c-0.02,0.01-0.05,0-0.07,0c-0.05-0.01-0.1-0.06-0.11-0.11
			C26.97,36.67,26.98,36.62,27.01,36.59z"/>
		<path class="st3" d="M18.29,31.03c0.01,0,0.01,0,0.02,0c0,0,0.01,0.01,0,0.02c-0.01,0.02-0.02,0.04-0.02,0.06
			c0,0.03,0.01,0.05,0.03,0.06c0.02,0.02,0.04,0.02,0.07,0.02c0.03,0,0.05-0.01,0.06-0.03c0.02-0.02,0.02-0.04,0.02-0.07
			c0-0.02-0.01-0.04-0.03-0.06c0,0-0.01-0.01,0-0.02c0-0.01,0.01-0.01,0.02,0c0.04,0.03,0.07,0.07,0.07,0.12
			c0,0.04-0.01,0.08-0.04,0.11c-0.03,0.03-0.06,0.05-0.1,0.05c-0.02,0-0.05,0-0.07-0.01c-0.05-0.02-0.09-0.07-0.09-0.13
			C18.23,31.11,18.25,31.06,18.29,31.03z"/>
		<path class="st3" d="M18.51,32.75c0.01,0,0.01,0,0.02,0c0,0,0.01,0.01,0,0.02c-0.01,0.02-0.02,0.04-0.02,0.06
			c0,0.03,0.01,0.05,0.03,0.06c0.02,0.02,0.04,0.02,0.07,0.02c0.03,0,0.05-0.01,0.06-0.03c0.02-0.02,0.02-0.04,0.02-0.07
			c0-0.02-0.01-0.04-0.03-0.06c0,0-0.01-0.01,0-0.02c0-0.01,0.01-0.01,0.02,0c0.04,0.03,0.07,0.07,0.07,0.12
			c0,0.04-0.01,0.08-0.04,0.11c-0.03,0.03-0.06,0.05-0.1,0.05c-0.02,0-0.05,0-0.07-0.01c-0.05-0.02-0.09-0.07-0.09-0.13
			C18.45,32.83,18.47,32.78,18.51,32.75z"/>
		<path class="st5" d="M40.52,23c0,0,1.37,0.74,2.04,1.21c0,0-1.97-0.65-2.53,0.1c0,0-0.04-0.31,0.01-0.43
			c0.05-0.12,0.21-0.46,0.22-0.48"/>
		<path class="st5" d="M24.76,16.95c0,0-1.43-0.06-2.51,0.19c0,0,2.23-0.19,1.82,0.29c-0.41,0.48,0.19,0.07,0.22,0.01
			c0.04-0.06,0.32-0.18,0.35-0.22C24.68,17.18,24.76,16.95,24.76,16.95z"/>
		<g>
			<g>
				<path class="st5" d="M47.45,27.08c0.34-0.12,0.57-0.03,0.7,0.06c0.77,0.55,0.69,1.81,0.68,1.87c-0.01,0.08-0.07,0.14-0.14,0.14
					c-0.08,0.01-0.15-0.04-0.17-0.11c-0.04-0.16-0.23-0.63-0.53-0.83c-0.05-0.04-0.13-0.02-0.19,0c-0.47,0.18-1.24,1.2-1.87,3.48
					c-0.08,0.27-0.14,0.53-0.2,0.77c-0.38,1.55-0.24,2.58-0.19,2.86c0.01,0.03,0.01,0.05,0.02,0.08c0.04,0.19,0.08,0.32,0.08,0.34
					c0.01,0.03,0.02,0.07,0.04,0.1c0.05,0.15,0.12,0.24,0.22,0.27c0.2,0.06,0.48-0.12,0.58-0.19c0.06-0.05,0.15-0.05,0.2,0.01
					c0.06,0.05,0.07,0.14,0.03,0.2c-0.17,0.26-0.63,0.87-1.15,0.89c-0.08,0-0.17-0.01-0.27-0.05c-0.1-0.04-0.21-0.12-0.32-0.26
					c-0.5-0.66-0.95-2.66-0.16-5.49C45.5,28.77,46.66,27.36,47.45,27.08z"/>
				<path class="st5" d="M40.85,28.73c0.92-1.94,2.99-4.63,4.34-4.44c0.53,0.08,0.86,0.54,1,1.4c0.02,0.1-0.04,0.19-0.14,0.22
					c-0.09,0.03-0.14-0.2-0.23-0.11c0,0-0.13-0.28-0.37-0.37c-0.14-0.05-0.31-0.02-0.5,0.08c-0.4,0.22-1.21,1.03-1.95,2.11
					c-0.66,0.96-1.5,2.49-1.79,4.32c-0.59,3.66-0.16,4.94,0.3,5.37c0.24,0.23,0.57,0.29,0.99,0.19c0.08-0.02,0.17,0.02,0.21,0.09
					c0.04,0.07,0.04,0.16-0.02,0.23c-0.03,0.04-0.82,0.94-1.66,0.72c-0.05-0.01-0.11-0.03-0.16-0.05c-0.54-0.23-0.94-0.91-1.19-2.04
					c0,0,0,0,0-0.01C39.16,33.66,39.99,30.55,40.85,28.73z"/>
			</g>
			<path class="st6" d="M45.13,24.68c0.19,0.03,0.35,0.16,0.47,0.39c-0.01,0-0.02-0.01-0.03-0.01c-0.25-0.09-0.53-0.05-0.82,0.11
				c-0.86,0.48-3.38,3.27-3.93,6.71c-0.5,3.12-0.36,4.99,0.42,5.72c0.21,0.19,0.45,0.3,0.74,0.33c-0.24,0.17-0.55,0.31-0.86,0.23
				c-0.46-0.12-0.82-0.74-1.06-1.79c-0.5-2.68,0.3-5.7,1.14-7.47C42.16,26.87,44.13,24.53,45.13,24.68z"/>
			<path class="st6" d="M47.56,27.37c0.17-0.06,0.31-0.05,0.41,0.02c0.27,0.19,0.41,0.51,0.48,0.81c-0.08-0.1-0.17-0.19-0.28-0.26
				c-0.09-0.06-0.25-0.11-0.47-0.03c-0.56,0.21-1.4,1.29-2.07,3.69c-0.08,0.27-0.14,0.54-0.2,0.78c-0.39,1.61-0.24,2.7-0.19,3
				c0.01,0.03,0.01,0.06,0.02,0.09c0.05,0.22,0.09,0.36,0.09,0.36c0,0,0,0,0,0.01c0.01,0.03,0.02,0.07,0.04,0.1
				c0.08,0.25,0.23,0.41,0.43,0.47c0.08,0.02,0.16,0.03,0.24,0.02c-0.18,0.17-0.36,0.27-0.51,0.27c-0.12,0-0.23-0.06-0.33-0.18
				c-0.44-0.58-0.86-2.51-0.11-5.22C45.74,29.07,46.82,27.64,47.56,27.37z"/>
			<g>
				<path class="st0" d="M41.2,28.9c0.96-2.03,2.93-4.36,3.93-4.22c0.19,0.03,0.35,0.16,0.47,0.39c-0.01,0-0.02-0.01-0.03-0.01
					c-0.11-0.04-0.22-0.05-0.34-0.04c-0.01,0-0.02-0.01-0.04-0.01c-1-0.14-2.97,2.19-3.93,4.22c-0.81,1.71-1.59,4.58-1.19,7.19
					c0-0.02-0.01-0.04-0.01-0.06C39.56,33.68,40.36,30.66,41.2,28.9z"/>
			</g>
			<g>
				<path class="st0" d="M47.56,27.37c0.17-0.06,0.31-0.05,0.41,0.02c0.27,0.19,0.41,0.51,0.48,0.81c-0.03-0.04-0.07-0.08-0.11-0.12
					c-0.08-0.14-0.18-0.27-0.31-0.36c-0.11-0.07-0.24-0.08-0.41-0.02c-0.74,0.26-1.82,1.7-2.44,3.93c-0.45,1.61-0.48,2.94-0.35,3.88
					c-0.2-0.95-0.22-2.41,0.29-4.21C45.74,29.07,46.82,27.64,47.56,27.37z"/>
			</g>
		</g>
	</g>
</g>
</svg>
