<?xml version="1.0" encoding="utf-8"?>
<!-- Generator: Adobe Illustrator 23.0.0, SVG Export Plug-In . SVG Version: 6.00 Build 0)  -->
<svg version="1.1" id="Layer_1" xmlns="http://www.w3.org/2000/svg" xmlns:xlink="http://www.w3.org/1999/xlink" x="0px" y="0px"
	 viewBox="0 0 50 50" style="enable-background:new 0 0 50 50;" xml:space="preserve">
<style type="text/css">
	.st0{fill:#FFFFFF;}
	.st1{fill:#B92B2B;}
	.st2{fill:#C37539;}
	.st3{fill:#727086;}
	.st4{fill:#E2D156;}
	.st5{fill:#1B1A3C;}
	.st6{fill:#C4C4CD;}
	.st7{fill:#467C99;}
	.st8{fill:#E58F22;}
	.st9{fill:#74CD30;}
	.st10{fill:#CD0700;}
	.st11{fill:#65B1E1;}
	.st12{fill:#121118;}
</style>
<g>
	<path class="st0" d="M49.41,21.86c-0.18,0.13-0.32,0.22-0.46,0.28c-0.48,0.2-0.96,0.08-2.41-0.65c-0.29-0.15-0.56-0.24-0.8-0.3
		l0.88-0.22l-1.68-0.19c-0.04,0-0.87-0.1-1.72,0.27c-0.34,0.15-0.64,0.34-0.89,0.59c-0.17,0.17-0.32,0.36-0.45,0.54
		c-0.38-0.33-0.79-0.45-1.16-0.35l-0.56,0.14c-0.5-0.25-1.07-0.36-1.7-0.31c-0.76,0.05-1.51,0.24-2.22,0.54
		c-0.23,0.1-0.43,0.2-0.59,0.28c-0.17-0.28-0.36-0.55-0.55-0.8c0.05-0.06,0.1-0.11,0.14-0.17l0.74-0.21l0,0l0,0
		c0.04-0.01,0.07-0.02,0.11-0.04c0.38-0.16,0.64-0.55,0.75-1.1c0.88,0.36,1.62,0.21,2.1,0.01c0.35-0.15,0.67-0.37,0.94-0.65
		c0.23-0.24,0.39-0.5,0.55-0.76c0.23-0.38,0.43-0.71,0.81-0.87c0.17-0.07,0.37-0.11,0.6-0.12c0.34-0.01,0.65-0.07,0.91-0.18
		c0.84-0.36,0.94-1.09,0.94-1.12l0.09-0.73l-0.59,0.44c-0.18,0.13-0.32,0.22-0.46,0.28c-0.48,0.2-0.96,0.08-2.41-0.66
		c-0.29-0.15-0.56-0.24-0.8-0.3l0.88-0.22l-1.68-0.19c-0.04,0-0.87-0.1-1.72,0.27c-0.34,0.15-0.64,0.34-0.89,0.59
		c-0.17,0.17-0.32,0.35-0.45,0.54c-0.39-0.35-0.81-0.49-1.2-0.39l-0.56,0.14c-0.5-0.25-1.07-0.36-1.7-0.31
		c-0.76,0.05-1.51,0.24-2.22,0.54c-0.59,0.25-0.95,0.5-1.03,0.55c-0.11,0.08-0.92,0.63-1.51,1.42c-0.84-0.09-1.74-0.1-2.69-0.02
		c0.06-0.09,0.11-0.19,0.16-0.28c0.41-0.78,0.69-1.58,0.81-2.4c0.07-0.47,0.1-0.97,0.07-1.6c-0.01-0.33-0.07-0.68-0.17-1.07
		c-0.12-0.45-0.3-0.87-0.55-1.27c-0.18-0.29-0.41-0.56-0.66-0.8c-0.41-0.39-0.9-0.71-1.45-0.94c-0.77-0.33-1.62-0.5-2.53-0.5
		c-0.69,0-1.4,0.1-2.11,0.29c-0.27,0.08-0.54,0.17-0.78,0.27c-0.19,0.08-0.37,0.17-0.55,0.27c-0.36,0.2-0.67,0.43-0.94,0.7
		c-0.24,0.23-0.44,0.5-0.61,0.78c-0.04,0.01-0.08,0.02-0.12,0.04c-0.07,0.03-0.13,0.07-0.2,0.12c-0.08,0.06-0.15,0.13-0.21,0.21
		c-0.16,0.2-0.27,0.43-0.35,0.72c-0.12,0.44-0.15,0.8-0.07,1.15c0.04,0.18,0.12,0.33,0.26,0.47c0,0.05,0,0.09,0,0.14l0,0
		c0,0.3,0,0.6,0.02,0.91c0.02,0.34,0.06,0.7,0.12,1.06c0.06,0.35,0.15,0.69,0.22,0.95c0.05,0.19,0.11,0.36,0.18,0.54
		c-0.08,0.02-0.17,0.04-0.26,0.06l-0.06,0.01c-0.04,0.01-0.08,0.02-0.12,0.02c-0.08,0.01-0.17,0.03-0.27,0.06
		c-0.14,0.04-0.27,0.09-0.38,0.14l-0.03,0.01l-0.07,0.03c-0.05,0.02-0.11,0.04-0.16,0.07c-0.1,0.04-0.18,0.08-0.26,0.12
		c-0.02,0.01-0.04,0.02-0.07,0.03c-0.19,0.1-0.41,0.2-0.6,0.37c-0.03,0.03-0.07,0.05-0.11,0.09c-0.05,0.04-0.12,0.09-0.18,0.14
		c-0.07,0.06-0.13,0.12-0.19,0.18c-0.04,0.04-0.08,0.08-0.13,0.12c-0.26,0.24-0.47,0.51-0.64,0.81c-0.17,0.31-0.3,0.55-0.42,0.78
		c-0.13,0.25-0.26,0.51-0.39,0.76l0,0c-0.07,0.13-0.13,0.27-0.2,0.4c-0.02,0.05-0.05,0.09-0.07,0.14c-0.05,0.1-0.11,0.21-0.16,0.32
		c-0.03,0.06-0.06,0.11-0.1,0.17l-0.01,0.01c-0.02,0.02-0.03,0.04-0.05,0.06l-0.01,0.01l0,0c-0.42,0.25-2.48,1.51-4.59,3.25
		c-0.15-0.03-0.29-0.03-0.43-0.01c-0.11,0.02-0.21,0.04-0.31,0.08c-0.46,0.2-0.77,0.67-0.92,1.4c-0.42,0.41-0.81,0.82-1.15,1.21
		c-0.18-0.02-0.35,0-0.51,0.07c-0.06,0.03-0.12,0.06-0.18,0.1c-0.71,0.5-0.81,1.45-0.81,1.92c-0.75,1.35-1,2.61-0.74,3.75
		c0.17,0.74,0.52,1.45,1.04,2.09c0.5,0.62,1.15,1.18,1.95,1.68c0.29,0.4,0.74,0.86,1.29,0.88c0.11,0,0.22-0.01,0.32-0.04
		c0.72,0.31,1.53,0.59,2.39,0.82c0.28,0.29,1.02,0.92,1.86,0.71c0.07-0.02,0.14-0.04,0.2-0.07c0.09-0.04,0.18-0.09,0.26-0.15
		c3.27,0.53,6.99,0.48,10.21-0.14c2.55-0.49,5.52-1.15,8.17-2.27c1.07-0.46,2.03-0.97,2.86-1.52c0.31-0.21,0.61-0.43,0.9-0.66
		c1.03,0.45,2.29,0.62,3.34,0.44c0.61-0.1,1.15-0.25,1.6-0.44c0.63-0.27,1.13-0.63,1.47-1.09l0.74-0.21l0,0l0,0
		c0.04-0.01,0.07-0.02,0.11-0.04c0.27-0.12,0.48-0.34,0.62-0.67c0.85,0.33,1.57,0.18,2.04-0.02c0.35-0.15,0.67-0.37,0.94-0.65
		c0.23-0.24,0.39-0.5,0.55-0.76c0.23-0.38,0.43-0.71,0.81-0.87c0.17-0.07,0.37-0.11,0.6-0.12c0.34-0.01,0.65-0.07,0.91-0.18
		c0.84-0.36,0.94-1.09,0.94-1.12l0.09-0.73l-0.59,0.44c-0.18,0.13-0.32,0.22-0.46,0.28c-0.48,0.2-0.96,0.08-2.41-0.65
		c-0.29-0.15-0.56-0.24-0.8-0.3l0.88-0.22L41.9,29.1c-0.04,0-0.87-0.1-1.72,0.27c-0.34,0.15-0.64,0.34-0.89,0.59
		c-0.06,0.06-0.13,0.13-0.18,0.2c-0.41-0.4-0.86-0.57-1.27-0.45l-0.56,0.14c-0.08-0.04-0.16-0.07-0.24-0.1
		c0.06-0.3,0.1-0.61,0.13-0.91c0.43,0.03,0.86,0.01,1.24-0.06c0.61-0.1,1.15-0.25,1.6-0.44c0.63-0.27,1.13-0.63,1.47-1.09l0.74-0.21
		l0,0l0,0c0.04-0.01,0.07-0.02,0.11-0.04c0.39-0.16,0.65-0.57,0.75-1.13c0.86,0.34,1.58,0.19,2.06-0.01
		c0.35-0.15,0.67-0.37,0.94-0.65c0.23-0.24,0.39-0.5,0.55-0.76c0.23-0.38,0.43-0.71,0.81-0.87c0.17-0.07,0.37-0.11,0.6-0.12
		c0.34-0.01,0.65-0.07,0.91-0.18c0.84-0.36,0.94-1.09,0.94-1.12L50,21.42L49.41,21.86z"/>
	<g>
		<g>
			<path class="st1" d="M46.4,21.76c-1.81-0.91-2.51,0.28-2.51,0.28c0.05-0.73,1.01-0.97,1.01-0.97s-1.43-0.16-2.36,0.77
				c-0.42,0.42-0.65,0.84-0.76,1.17c-0.07,0.22-0.19,0.71,0.01,1.24c0.2,0.55,0.71,0.95,1.06,1.15c1.3,0.71,2.41,0.2,3.01-0.42
				c0.7-0.72,0.76-1.8,2.18-1.84s1.55-1.03,1.55-1.03C48.72,22.77,48.21,22.66,46.4,21.76z"/>
			<path class="st2" d="M48.32,22.8c-0.51-0.06-1.11-0.33-2.04-0.79c-0.65-0.33-1.13-0.35-1.47-0.27v0c0,0-0.05,0.01-0.14,0.04
				c-0.02,0.01-0.05,0.02-0.08,0.03c0,0,0,0,0,0c-0.51,0.2-0.84,0.59-1.02,0.87c-0.12,0.18-0.18,0.32-0.18,0.32
				c-0.3-0.87,0.39-1.54,0.39-1.55c-0.35,0.1-0.73,0.27-1.04,0.58c-0.33,0.33-0.56,0.68-0.7,1.06c-0.06,0.17-0.16,0.6,0,1.05
				c0.2,0.54,0.76,0.9,0.93,1c1.4,0.76,2.4-0.09,2.67-0.37c0.19-0.19,0.32-0.42,0.47-0.66c0.35-0.58,0.76-1.24,1.91-1.27
				c0.15,0,0.28-0.02,0.39-0.04C48.4,22.81,48.36,22.8,48.32,22.8z"/>
			<path class="st3" d="M44.6,21.81c0.03-0.01,0.05-0.02,0.08-0.03C44.65,21.79,44.62,21.8,44.6,21.81z"/>
			<path class="st4" d="M43.07,22.1c0,0-1.21,0.65-0.82,2c0.38,1.35,2.43,0.37,3.06-0.64c0.62-1,1.66-0.68,1.66-0.68
				s-1.18-1-2.2-0.34c-1.02,0.66-1.27,1.57-1.87,1.69c-0.6,0.12,0.34-0.25,0.23-1C43,22.38,42.89,22.43,43.07,22.1z"/>
		</g>
		<g>
			<path class="st1" d="M40.19,16.07c-1.81-0.91-2.51,0.28-2.51,0.28c0.05-0.73,1.01-0.97,1.01-0.97s-1.43-0.16-2.36,0.77
				c-0.42,0.42-0.65,0.84-0.76,1.17c-0.07,0.22-0.19,0.71,0.01,1.24c0.2,0.55,0.71,0.95,1.06,1.15c1.3,0.71,2.41,0.2,3.01-0.42
				c0.7-0.72,0.76-1.8,2.18-1.84c1.43-0.04,1.55-1.03,1.55-1.03C42.51,17.08,42,16.97,40.19,16.07z"/>
			<path class="st2" d="M42.1,17.11c-0.51-0.06-1.11-0.33-2.04-0.79c-0.65-0.33-1.13-0.35-1.47-0.27v0c0,0-0.05,0.01-0.14,0.04
				c-0.02,0.01-0.05,0.02-0.08,0.03c0,0,0,0,0,0c-0.51,0.2-0.84,0.59-1.02,0.87c-0.12,0.18-0.18,0.32-0.18,0.32
				c-0.3-0.87,0.39-1.54,0.39-1.55c-0.35,0.1-0.73,0.27-1.04,0.58c-0.33,0.33-0.56,0.68-0.7,1.06c-0.06,0.17-0.16,0.6,0,1.05
				c0.2,0.54,0.76,0.9,0.93,1c1.4,0.76,2.4-0.09,2.67-0.37c0.19-0.19,0.32-0.42,0.47-0.66c0.35-0.58,0.76-1.24,1.91-1.27
				c0.15,0,0.28-0.02,0.39-0.04C42.18,17.12,42.14,17.11,42.1,17.11z"/>
			<path class="st3" d="M38.38,16.12c0.03-0.01,0.05-0.02,0.08-0.03C38.44,16.1,38.41,16.11,38.38,16.12z"/>
			<path class="st4" d="M36.85,16.4c0,0-1.21,0.65-0.82,2c0.38,1.35,2.43,0.37,3.06-0.64c0.62-1,1.66-0.68,1.66-0.68
				s-1.18-1-2.2-0.34c-1.02,0.66-1.27,1.57-1.87,1.69c-0.6,0.12,0.34-0.25,0.23-1C36.79,16.69,36.68,16.74,36.85,16.4z"/>
		</g>
		<g>
			<path class="st1" d="M43.36,30.09c-1.81-0.91-2.51,0.28-2.51,0.28c0.05-0.73,1.01-0.97,1.01-0.97s-1.43-0.16-2.36,0.77
				c-0.42,0.42-0.65,0.84-0.76,1.17c-0.07,0.22-0.19,0.71,0.01,1.24c0.2,0.55,0.71,0.95,1.06,1.15c1.3,0.71,2.41,0.2,3.01-0.42
				c0.7-0.72,0.76-1.8,2.18-1.84c1.43-0.04,1.55-1.03,1.55-1.03C45.67,31.1,45.17,31,43.36,30.09z"/>
			<path class="st2" d="M45.27,31.13c-0.51-0.06-1.11-0.33-2.04-0.79c-0.65-0.33-1.13-0.35-1.47-0.27v0c0,0-0.05,0.01-0.14,0.04
				c-0.02,0.01-0.05,0.02-0.08,0.03c0,0,0,0,0,0c-0.51,0.2-0.84,0.59-1.02,0.87c-0.12,0.18-0.18,0.32-0.18,0.32
				c-0.3-0.87,0.39-1.54,0.39-1.55c-0.35,0.1-0.73,0.27-1.04,0.58c-0.33,0.33-0.56,0.68-0.7,1.06c-0.06,0.17-0.16,0.6,0,1.05
				c0.2,0.54,0.76,0.9,0.93,1c1.4,0.76,2.4-0.09,2.67-0.37c0.19-0.19,0.32-0.42,0.47-0.66c0.35-0.58,0.76-1.24,1.91-1.27
				c0.15,0,0.28-0.02,0.39-0.04C45.35,31.14,45.31,31.14,45.27,31.13z"/>
			<path class="st3" d="M41.55,30.15c0.03-0.01,0.05-0.02,0.08-0.03C41.6,30.12,41.58,30.13,41.55,30.15z"/>
			<path class="st4" d="M40.02,30.43c0,0-1.21,0.65-0.82,2c0.38,1.35,2.43,0.37,3.06-0.64c0.62-1,1.66-0.68,1.66-0.68
				s-1.18-1-2.2-0.34c-1.02,0.66-1.27,1.57-1.87,1.69c-0.6,0.12,0.34-0.25,0.23-1S39.84,30.76,40.02,30.43z"/>
		</g>
		<g>
			<g>
				<path class="st5" d="M37.91,30l-0.68,0.17l0,0c-0.47-0.26-1.02-0.37-1.63-0.33c-1.8,0.13-3.02,0.98-3.1,1.04
					c-0.13,0.09-2.46,1.68-1.98,3.3c0.47,1.61,3.06,2.48,4.96,2.16c0.59-0.1,1.1-0.24,1.53-0.42c0.63-0.27,1.09-0.62,1.41-1.07l0,0
					l0.85-0.24c0.03-0.01,0.05-0.02,0.07-0.03c0.6-0.26,0.79-1.38,0.43-2.62C39.38,30.67,38.57,29.81,37.91,30z"/>
				<path class="st3" d="M38.78,32.57c0.13,0.69,0.09,1.3-0.13,1.82l0.5-0.14c0.39-0.11,0.59-1.04,0.25-2.19
					c-0.34-1.15-1.01-1.82-1.4-1.71l-0.01,0l-0.37,0.09C38.2,30.91,38.6,31.63,38.78,32.57z"/>
				<path class="st3" d="M35.62,30.2c-0.81,0.06-1.5,0.28-2.01,0.49c-0.57,0.24-0.9,0.48-0.91,0.48l-0.01,0
					c-0.02,0.02-2.24,1.52-1.84,2.9c0.41,1.41,2.83,2.19,4.55,1.9c1.33-0.23,2.24-0.68,2.7-1.35c0.36-0.52,0.46-1.19,0.31-1.99
					C38.27,31.86,37.69,30.05,35.62,30.2z"/>
				<g>
					<path class="st0" d="M32.84,31.5L32.84,31.5c0.01-0.01,0.35-0.25,0.91-0.49c0.51-0.21,1.2-0.43,2.01-0.49
						c1.39-0.1,2.11,0.68,2.48,1.44c-0.31-0.84-1.02-1.88-2.61-1.77c-0.81,0.06-1.5,0.28-2.01,0.49c-0.57,0.24-0.9,0.48-0.91,0.48
						l-0.01,0c-0.02,0.02-2.24,1.52-1.84,2.9c0.03,0.12,0.08,0.23,0.14,0.33c0,0,0-0.01,0-0.01C30.59,33.02,32.81,31.52,32.84,31.5z
						"/>
				</g>
				<path class="st3" d="M35.63,30.41c-0.66,0.05-1.31,0.21-1.94,0.47c-0.54,0.23-0.86,0.46-0.87,0.46l-0.01,0.01
					c-0.59,0.4-2.06,1.65-1.76,2.67c0.38,1.28,2.69,2.03,4.32,1.76c1.27-0.22,2.14-0.64,2.57-1.27c0.33-0.47,0.42-1.09,0.28-1.83
					C38.04,31.77,37.47,30.27,35.63,30.41z"/>
				<path class="st6" d="M35.28,31.34c0,0,1.03-0.06,1.77,0.57c0.73,0.63,0.79,0.8,0.79,0.8S36.25,31.42,35.28,31.34z"/>
				<path class="st5" d="M37.74,33.44C35.9,34.98,33,34.84,32,34.35c-1-0.48-0.61-1.43-0.61-1.43l-0.07-0.1
					c-0.24,0.39-0.38,0.81-0.27,1.19c0.38,1.28,2.69,2.03,4.32,1.76c1.27-0.22,2.14-0.64,2.57-1.27c0.28-0.41,0.39-0.92,0.32-1.53
					C38.11,33.12,37.94,33.28,37.74,33.44z"/>
				<path class="st5" d="M38.92,32.25c0.02,0.09,0.04,0.18,0.06,0.28c0.11,0.57,0.11,1.09-0.01,1.56l0.13-0.04
					c0.04-0.01,0.09-0.06,0.13-0.14c0.16-0.3,0.22-0.97-0.02-1.8c-0.02-0.07-0.04-0.13-0.06-0.19C39.07,32.04,39,32.15,38.92,32.25z
					"/>
				<path class="st6" d="M38.01,31.95c-0.32-0.81-0.98-1.65-2.38-1.55c-0.66,0.05-1.31,0.21-1.94,0.47
					c-0.54,0.23-0.86,0.46-0.87,0.46l-0.01,0.01c-0.48,0.32-1.52,1.2-1.75,2.06c0.02-0.03,0.91-1.61,2.1-1.46
					c1.2,0.15,2.37,0.83,2.37,0.83s-0.06-0.68-0.88-1.18C33.84,31.09,36.59,30.14,38.01,31.95z"/>
				<path class="st5" d="M33.18,34.39c0,0,1.59,0.08,2.44-0.19c0.85-0.27,0.95-0.31,0.95-0.31s-1.4,0.16-2,0.27
					C33.97,34.27,33.18,34.39,33.18,34.39z"/>
				<path class="st0" d="M38.01,30.35L38.01,30.35l-0.38,0.09c0.1,0.08,0.19,0.17,0.27,0.26c0.1-0.06,0.28-0.12,0.54-0.03
					c0.41,0.15,0.79,0.94,0.92,1.26C39.02,30.86,38.39,30.24,38.01,30.35z"/>
			</g>
			<polyline class="st3" points="34.11,33.39 35.99,35.31 34.86,33.63 			"/>
			<polyline class="st5" points="35.6,34.74 34.5,33.07 36.04,34.68 			"/>
			<path class="st0" d="M32.35,31.7c0.01-0.03,0.74-0.55,1.54-0.22c0,0-0.81-0.36-0.09-0.64c0,0-0.22-0.02-0.32,0.02
				c-0.1,0.04-0.18,0.08-0.38,0.18c-0.2,0.1-0.28,0.13-0.41,0.21c-0.12,0.07-0.27,0.23-0.27,0.23l-0.13,0.09"/>
		</g>
		<g>
			<g>
				<path class="st5" d="M34.55,16.39l-0.68,0.17l0,0c-0.47-0.26-1.02-0.37-1.63-0.33c-1.8,0.13-3.02,0.98-3.1,1.04
					c-0.13,0.09-2.46,1.68-1.98,3.3c0.47,1.61,3.06,2.48,4.96,2.16c0.59-0.1,1.1-0.24,1.53-0.42c0.63-0.27,1.09-0.62,1.41-1.07l0,0
					l0.85-0.24c0.03-0.01,0.05-0.02,0.07-0.03c0.6-0.26,0.79-1.38,0.43-2.62C36.01,17.06,35.21,16.2,34.55,16.39z"/>
				<path class="st3" d="M35.42,18.95c0.13,0.69,0.09,1.3-0.13,1.82l0.5-0.14c0.39-0.11,0.59-1.04,0.25-2.19
					c-0.34-1.15-1.01-1.82-1.4-1.71l-0.01,0l-0.37,0.09C34.83,17.3,35.23,18.02,35.42,18.95z"/>
				<path class="st3" d="M32.26,16.59c-0.81,0.06-1.5,0.28-2.01,0.49c-0.57,0.24-0.9,0.48-0.91,0.48l-0.01,0
					c-0.02,0.02-2.24,1.52-1.84,2.9c0.41,1.41,2.83,2.19,4.55,1.9c1.33-0.23,2.24-0.68,2.7-1.35c0.36-0.52,0.46-1.19,0.31-1.99
					C34.91,18.24,34.33,16.44,32.26,16.59z"/>
				<g>
					<path class="st0" d="M29.47,17.89L29.47,17.89c0.01-0.01,0.35-0.25,0.91-0.49c0.51-0.21,1.2-0.43,2.01-0.49
						c1.39-0.1,2.11,0.68,2.48,1.44c-0.31-0.84-1.02-1.88-2.61-1.77c-0.81,0.06-1.5,0.28-2.01,0.49c-0.57,0.24-0.9,0.48-0.91,0.48
						l-0.01,0c-0.02,0.02-2.24,1.52-1.84,2.9c0.03,0.12,0.08,0.23,0.14,0.33c0,0,0-0.01,0-0.01C27.23,19.41,29.45,17.9,29.47,17.89z
						"/>
				</g>
				<path class="st3" d="M32.27,16.79c-0.66,0.05-1.31,0.21-1.94,0.47c-0.54,0.23-0.86,0.46-0.87,0.46l-0.01,0.01
					c-0.59,0.4-2.06,1.65-1.76,2.67c0.38,1.28,2.69,2.03,4.32,1.76c1.27-0.22,2.14-0.64,2.57-1.27c0.33-0.47,0.42-1.09,0.28-1.83
					C34.68,18.16,34.11,16.66,32.27,16.79z"/>
				<path class="st6" d="M31.92,17.73c0,0,1.03-0.06,1.77,0.57c0.73,0.63,0.79,0.8,0.79,0.8S32.89,17.8,31.92,17.73z"/>
				<path class="st5" d="M34.38,19.83c-1.84,1.54-4.74,1.39-5.74,0.91c-1-0.48-0.61-1.43-0.61-1.43l-0.07-0.1
					c-0.24,0.39-0.38,0.81-0.27,1.19c0.38,1.28,2.69,2.03,4.32,1.76c1.27-0.22,2.14-0.64,2.57-1.27c0.28-0.41,0.39-0.92,0.32-1.53
					C34.75,19.51,34.57,19.66,34.38,19.83z"/>
				<path class="st5" d="M35.56,18.64c0.02,0.09,0.04,0.18,0.06,0.28c0.11,0.57,0.11,1.09-0.01,1.56l0.13-0.04
					c0.04-0.01,0.09-0.06,0.13-0.14c0.16-0.3,0.22-0.97-0.02-1.8c-0.02-0.07-0.04-0.13-0.06-0.19
					C35.71,18.43,35.63,18.54,35.56,18.64z"/>
				<path class="st6" d="M34.65,18.34c-0.32-0.81-0.98-1.65-2.38-1.55c-0.66,0.05-1.31,0.21-1.94,0.47
					c-0.54,0.23-0.86,0.46-0.87,0.46l-0.01,0.01c-0.48,0.32-1.52,1.2-1.75,2.06c0.02-0.03,0.91-1.61,2.1-1.46
					c1.2,0.15,2.37,0.83,2.37,0.83s-0.06-0.68-0.88-1.18C30.47,17.47,33.23,16.52,34.65,18.34z"/>
				<path class="st5" d="M29.82,20.77c0,0,1.59,0.08,2.44-0.19c0.85-0.27,0.95-0.31,0.95-0.31s-1.4,0.16-2,0.27
					C30.61,20.65,29.82,20.77,29.82,20.77z"/>
				<path class="st0" d="M34.65,16.74L34.65,16.74l-0.38,0.09c0.1,0.08,0.19,0.17,0.27,0.26c0.1-0.06,0.28-0.12,0.54-0.03
					c0.41,0.15,0.79,0.94,0.92,1.26C35.66,17.25,35.02,16.63,34.65,16.74z"/>
			</g>
			<polyline class="st3" points="30.74,19.78 32.62,21.7 31.5,20.01 			"/>
			<polyline class="st5" points="32.24,21.12 31.14,19.46 32.67,21.06 			"/>
			<path class="st0" d="M28.98,18.09c0.01-0.03,0.74-0.55,1.54-0.22c0,0-0.81-0.36-0.09-0.64c0,0-0.22-0.02-0.32,0.02
				c-0.1,0.04-0.18,0.08-0.38,0.18c-0.2,0.1-0.28,0.13-0.41,0.21c-0.12,0.07-0.27,0.23-0.27,0.23l-0.13,0.09"/>
		</g>
		<path class="st6" d="M30.58,19.61c0.61,0.3,1.16,0.67,1.66,1.11c1.58,1.39,2.62,3.52,3.01,6.15c0.33,2.23,0.1,4.2-0.69,5.88
			c-0.23,0.48-0.5,0.94-0.82,1.38c0.75-0.48,1.5-1.43,2.03-2.61c0.8-1.81,0.98-3.86,0.49-5.77c-0.68-2.71-2.08-4.64-4.04-5.6
			C31.62,19.86,31.05,19.7,30.58,19.61z"/>
		<path class="st5" d="M31.67,19.92c0.35,0.22,0.69,0.47,1,0.74c1.58,1.39,2.62,3.52,3.01,6.15c0.33,2.23,0.1,4.2-0.69,5.88
			c-0.1,0.2-0.2,0.4-0.31,0.6c0.41-0.48,0.78-1.08,1.09-1.76c0.8-1.81,0.98-3.86,0.49-5.77c-0.68-2.71-2.08-4.64-4.04-5.6
			C32.04,20.06,31.86,19.98,31.67,19.92z"/>
		<path class="st6" d="M34.9,26.93c-0.49-3.29-2.49-8.58-10.31-7.84c0.06,0,0.13,0.01,0.19,0.01c0.31,0.03,0.59,0.16,0.83,0.28
			c0.35,0.18,0.66,0.43,0.92,0.75c0.26,0.32,0.42,0.62,0.52,0.92c0.15,0.47,0.23,0.95,0.22,1.43c0,0.08-0.01,0.17-0.02,0.25l0,0
			c0,0-0.04,0.6-0.3,1.12c0.1,0.23,0.18,0.46,0.24,0.69c0.08,0.35,0.09,0.72,0.02,1.1c-0.03,0.18-0.11,0.35-0.24,0.51
			c-0.12,0.15-0.24,0.29-0.36,0.42l-0.03,0.04c-0.09,0.11-0.19,0.22-0.29,0.32c-0.1,0.11-0.2,0.23-0.3,0.34
			c-0.28,0.32-0.6,0.59-0.94,0.81c-0.16,0.1-0.33,0.2-0.49,0.29c-0.07,0.04-0.14,0.08-0.21,0.12c-0.02,0.01-0.05,0.03-0.07,0.04
			c-0.06,0.04-0.13,0.08-0.2,0.11c-0.11,0.06-0.23,0.11-0.34,0.16c-0.05,0.02-0.09,0.04-0.14,0.07c-0.01,0-0.01,0.01-0.02,0.01
			c0,0,0,0,0,0c0,0-0.01,0-0.01,0c0,0,0,0,0,0c-0.05,0.03-0.11,0.06-0.16,0.08c-0.14,0.06-0.31,0.1-0.5,0.11
			c-0.1,0.01-0.2-0.02-0.3-0.07c-0.02,0.03-0.04,0.06-0.06,0.09c-0.1,0.17-0.24,0.3-0.45,0.43c-0.22,0.14-0.46,0.26-0.68,0.39
			c-0.08,0.04-0.16,0.09-0.24,0.13c-0.09,0.05-0.19,0.1-0.29,0.14c-0.16,0.07-0.33,0.13-0.54,0.19c-0.12,0.03-0.24,0.03-0.36,0.02
			c-0.14-0.01-0.29-0.03-0.41-0.13c0,0,0,0,0,0c0,0-0.19,0.01-0.42-0.13c-0.03-0.02-0.06-0.04-0.08-0.06
			c-0.16-0.15-0.22-0.37-0.22-0.37c-0.15-0.1-0.23-0.24-0.28-0.38c0,0,0-0.01,0-0.01c0-0.01-0.01-0.02-0.01-0.03c0,0,0,0,0,0
			c-0.02-0.08-0.03-0.15-0.04-0.21c0-0.05,0-0.1,0-0.15c0-0.01,0-0.02,0-0.03c-0.17-0.15-0.25-0.33-0.24-0.54
			c-0.32,0.07-0.61,0.12-0.9,0.15c-0.23,0.03-0.46,0.05-0.69,0.06c-0.04,0-0.09,0.01-0.13,0.01c-0.1,0-0.21,0.01-0.32,0
			c-2.29,0.01-4.04-0.75-4.94-1.22c-1.14-0.6-1.26-1.7-1.26-1.7l0,0c-0.03-0.16-0.05-0.33-0.05-0.5c0-0.16,0.02-0.32,0.04-0.47
			c0.06-0.29,0.13-0.53,0.21-0.73c-0.9,0.56-2.81,1.82-4.62,3.4c-2.25,1.96-4.82,4.84-4.24,7.38c0.52,2.27,2.97,4.06,6.9,5.04
			c3.58,0.89,8.01,0.98,11.83,0.24c3.67-0.71,7.82-1.7,10.78-3.69C34.2,34.1,35.51,31.03,34.9,26.93z"/>
		<path class="st3" d="M34.9,26.93c-0.49-3.29-2.49-8.58-10.31-7.84c0.06,0,0.13,0.01,0.19,0.01c0.31,0.03,0.59,0.16,0.83,0.28
			c0.35,0.18,0.66,0.43,0.92,0.75c0.26,0.32,0.42,0.62,0.52,0.92c0.15,0.47,0.23,0.95,0.22,1.43c0,0.08-0.01,0.17-0.02,0.25l0,0
			c0,0-0.04,0.6-0.3,1.12c0.1,0.23,0.18,0.46,0.24,0.69c0.08,0.35,0.09,0.72,0.02,1.1c-0.03,0.18-0.11,0.35-0.24,0.51
			c-0.12,0.15-0.24,0.29-0.36,0.42l-0.03,0.04c-0.09,0.11-0.19,0.22-0.29,0.32c-0.1,0.11-0.2,0.23-0.3,0.34
			c-0.28,0.32-0.6,0.59-0.94,0.81c-0.16,0.1-0.33,0.2-0.49,0.29c-0.07,0.04-0.14,0.08-0.21,0.12c-0.02,0.01-0.05,0.03-0.07,0.04
			c-0.06,0.04-0.13,0.08-0.2,0.11c-0.11,0.06-0.23,0.11-0.34,0.16c-0.05,0.02-0.09,0.04-0.14,0.07c-0.01,0-0.01,0.01-0.02,0.01
			c0,0,0,0,0,0c0,0-0.01,0-0.01,0c0,0,0,0,0,0c-0.05,0.03-0.11,0.06-0.16,0.08c-0.14,0.06-0.31,0.1-0.5,0.11
			c-0.1,0.01-0.2-0.02-0.3-0.07c-0.02,0.03-0.04,0.06-0.06,0.09c-0.1,0.17-0.24,0.3-0.45,0.43c-0.22,0.14-0.46,0.26-0.68,0.39
			c-0.08,0.04-0.16,0.09-0.24,0.13c-0.09,0.05-0.19,0.1-0.29,0.14c-0.16,0.07-0.33,0.13-0.54,0.19c-0.12,0.03-0.24,0.03-0.36,0.02
			c-0.14-0.01-0.29-0.03-0.41-0.13c0,0,0,0,0,0c0,0-0.19,0.01-0.42-0.13c-0.03-0.02-0.06-0.04-0.08-0.06
			c-0.16-0.15-0.22-0.37-0.22-0.37c-0.15-0.1-0.23-0.24-0.28-0.38c0,0,0-0.01,0-0.01c0-0.01-0.01-0.02-0.01-0.03c0,0,0,0,0,0
			c-0.02-0.08-0.03-0.15-0.04-0.21c0-0.05,0-0.1,0-0.15c0-0.01,0-0.02,0-0.03c-0.17-0.15-0.25-0.33-0.24-0.54
			c-0.32,0.07-0.61,0.12-0.9,0.15c-0.23,0.03-0.46,0.05-0.69,0.06c-0.04,0-0.09,0.01-0.13,0.01c-0.1,0-0.21,0.01-0.32,0
			c-2.29,0.01-4.04-0.75-4.94-1.22c-1.14-0.6-1.26-1.7-1.26-1.7l0,0c-0.03-0.16-0.05-0.33-0.05-0.5c0-0.16,0.02-0.32,0.04-0.47
			c0.06-0.29,0.13-0.53,0.21-0.73c-0.9,0.56-2.81,1.82-4.62,3.4c-2.25,1.96-4.82,4.84-4.24,7.38c0.52,2.27,2.97,4.06,6.9,5.04
			c3.58,0.89,8.01,0.98,11.83,0.24c3.67-0.71,7.82-1.7,10.78-3.69C34.2,34.1,35.51,31.03,34.9,26.93z"/>
		<g>
			<path class="st5" d="M32.37,19.82c-1.44-0.7-2.69-0.68-2.92-0.67c-1.52-0.49-3.29-0.62-5.32-0.38c0.21-0.29,0.37-0.54,0.51-0.8
				c0.4-0.74,0.66-1.52,0.78-2.3c0.07-0.45,0.09-0.93,0.07-1.54c-0.01-0.3-0.06-0.63-0.16-1c-0.11-0.42-0.28-0.81-0.51-1.18
				c-0.17-0.27-0.38-0.52-0.61-0.74c-0.39-0.37-0.84-0.66-1.36-0.88c-0.73-0.31-1.54-0.47-2.4-0.48c-0.66,0-1.34,0.09-2.03,0.28
				c-0.26,0.07-0.51,0.16-0.74,0.26c-0.18,0.08-0.35,0.16-0.52,0.25c-0.34,0.19-0.62,0.4-0.87,0.65c-0.26,0.25-0.47,0.54-0.64,0.85
				c-0.06,0-0.13,0.01-0.19,0.03c-0.04,0.02-0.08,0.04-0.13,0.08c-0.06,0.05-0.11,0.1-0.16,0.16c-0.13,0.16-0.23,0.36-0.29,0.61
				c-0.11,0.39-0.13,0.7-0.07,1c0.04,0.19,0.17,0.32,0.26,0.39c0,0.09,0,0.19,0,0.28c0,0.29,0,0.59,0.02,0.89
				c0.02,0.33,0.06,0.67,0.12,1.03c0.06,0.34,0.15,0.67,0.21,0.92c0.08,0.28,0.18,0.55,0.3,0.79c-0.04,0.02-0.07,0.03-0.1,0.05
				c-0.06,0.03-0.12,0.05-0.18,0.07c-0.11,0.03-0.21,0.06-0.33,0.08l-0.06,0.01c-0.04,0.01-0.09,0.02-0.14,0.03
				c-0.08,0.01-0.16,0.03-0.24,0.05c-0.12,0.03-0.24,0.08-0.35,0.13l-0.03,0.01l-0.07,0.03c-0.05,0.02-0.11,0.04-0.16,0.07
				c-0.09,0.04-0.17,0.07-0.24,0.11c-0.02,0.01-0.04,0.02-0.07,0.03c-0.18,0.09-0.37,0.19-0.54,0.33c-0.04,0.03-0.08,0.07-0.13,0.1
				c-0.05,0.04-0.11,0.08-0.16,0.12c-0.06,0.06-0.12,0.12-0.18,0.17c-0.05,0.05-0.09,0.09-0.13,0.13c-0.23,0.21-0.43,0.46-0.58,0.73
				c-0.17,0.31-0.3,0.54-0.41,0.77c-0.13,0.25-0.26,0.51-0.39,0.76c-0.07,0.13-0.14,0.27-0.2,0.4c-0.02,0.05-0.05,0.1-0.08,0.15
				c-0.05,0.1-0.11,0.2-0.15,0.3c-0.04,0.08-0.08,0.15-0.13,0.22l0,0c0,0,0,0,0,0c-0.02,0.03-0.04,0.06-0.07,0.08
				c-0.01,0.01-0.02,0.03-0.03,0.04c-0.21,0.12-2.78,1.66-5.18,3.75c-1.47,1.28-2.6,2.52-3.34,3.68c-0.95,1.48-1.29,2.84-1.02,4.05
				c0.55,2.41,3.09,4.3,7.17,5.31c3.63,0.9,8.12,0.99,11.99,0.24c2.66-0.51,5.56-1.17,8.11-2.25c1-0.43,1.95-0.92,2.8-1.49
				c0.83-0.56,1.54-1.17,2.13-1.84c0.09-0.03,0.18-0.06,0.27-0.1c0.97-0.41,1.94-1.52,2.59-3c0.84-1.88,1.02-4.02,0.51-6.01
				C35.72,22.1,33.81,20.52,32.37,19.82z M30.91,36.31c-2.96,1.99-7.11,2.98-10.78,3.69c-3.83,0.74-8.25,0.65-11.83-0.24
				C4.36,38.79,1.9,37,1.39,34.73c-0.58-2.55,1.99-5.42,4.24-7.38c1.81-1.58,3.72-2.84,4.62-3.4c-0.08,0.2-0.16,0.45-0.21,0.73
				c-0.02,0.14-0.04,0.3-0.04,0.47c0,0.18,0.02,0.34,0.05,0.5l0,0c0,0,0.11,1.1,1.26,1.7c0.89,0.47,2.65,1.23,4.94,1.22
				c0.11,0,0.21,0,0.32,0c0.04,0,0.09,0,0.13-0.01c0.23-0.01,0.46-0.03,0.69-0.06c0.29-0.03,0.58-0.07,0.9-0.15
				c-0.01,0.2,0.07,0.39,0.24,0.54c0,0.01,0,0.02,0,0.03c0,0.05,0,0.1,0,0.15c0.01,0.06,0.02,0.13,0.04,0.21c0,0,0,0,0,0
				c0,0.01,0.01,0.02,0.01,0.03c0,0,0,0.01,0,0.01c0.05,0.14,0.13,0.28,0.28,0.38c0,0,0.05,0.22,0.22,0.37
				c0.03,0.02,0.05,0.04,0.08,0.06c0.23,0.15,0.42,0.13,0.42,0.13c0,0,0,0,0,0c0.13,0.1,0.27,0.12,0.41,0.13
				c0.12,0.01,0.24,0.01,0.36-0.02c0.2-0.06,0.38-0.12,0.54-0.19c0.1-0.04,0.2-0.09,0.29-0.14c0.08-0.04,0.16-0.09,0.24-0.13
				c0.23-0.12,0.46-0.25,0.68-0.39c0.21-0.13,0.35-0.27,0.45-0.43c0.02-0.03,0.04-0.06,0.06-0.09c0.1,0.05,0.2,0.07,0.3,0.07
				c0.19-0.01,0.35-0.04,0.5-0.11c0.06-0.02,0.11-0.05,0.16-0.08c0,0,0,0,0,0c0,0,0,0,0.01,0c0,0,0,0,0,0
				c0.01,0,0.01-0.01,0.02-0.01c0.05-0.02,0.09-0.04,0.14-0.07c0.11-0.05,0.23-0.11,0.34-0.16c0.07-0.04,0.14-0.07,0.2-0.11
				c0.02-0.01,0.05-0.03,0.07-0.04c0.07-0.04,0.14-0.08,0.21-0.12c0.16-0.09,0.33-0.19,0.49-0.29c0.35-0.22,0.67-0.49,0.94-0.81
				c0.1-0.12,0.2-0.23,0.3-0.34c0.09-0.11,0.19-0.21,0.29-0.32l0.03-0.04c0.12-0.14,0.24-0.28,0.36-0.42
				c0.13-0.16,0.21-0.34,0.24-0.51c0.07-0.38,0.06-0.74-0.02-1.1c-0.05-0.23-0.13-0.46-0.24-0.69c0.26-0.52,0.3-1.12,0.3-1.12l0,0
				c0.01-0.08,0.02-0.17,0.02-0.25c0.01-0.48-0.07-0.96-0.22-1.43c-0.1-0.3-0.26-0.6-0.52-0.92c-0.25-0.32-0.56-0.57-0.92-0.75
				c-0.24-0.12-0.52-0.26-0.83-0.28c-0.06-0.01-0.13-0.01-0.19-0.01c7.82-0.74,9.82,4.55,10.31,7.84
				C35.51,31.03,34.2,34.1,30.91,36.31z M36.27,25.75c0.48,1.91,0.31,3.96-0.49,5.77c-0.52,1.18-1.27,2.13-2.03,2.61
				c0.32-0.44,0.6-0.9,0.82-1.38c0.79-1.67,1.02-3.65,0.69-5.88c-0.39-2.63-1.43-4.76-3.01-6.15c-0.5-0.44-1.06-0.81-1.66-1.11
				c0.47,0.09,1.05,0.25,1.65,0.54C34.19,21.11,35.58,23.05,36.27,25.75z"/>
		</g>
		<path class="st6" d="M34.14,24.13c-1.15-2.81-3.75-5.58-9.55-5.04c0.06,0,0.13,0.01,0.19,0.01c0.31,0.03,0.59,0.16,0.83,0.28
			c0.35,0.18,0.66,0.43,0.92,0.75c0.26,0.32,0.42,0.62,0.52,0.92c0.15,0.47,0.23,0.95,0.22,1.43c0,0.08-0.01,0.17-0.02,0.25l0,0
			c0,0-0.04,0.6-0.3,1.12c0.1,0.23,0.18,0.46,0.24,0.69c0.08,0.35,0.09,0.72,0.02,1.1c-0.03,0.18-0.11,0.35-0.24,0.51
			c-0.12,0.15-0.24,0.29-0.36,0.42l-0.03,0.04c-0.09,0.11-0.19,0.22-0.29,0.32c-0.1,0.11-0.2,0.23-0.3,0.34
			c-0.28,0.32-0.6,0.59-0.94,0.81c-0.16,0.1-0.33,0.2-0.49,0.29c-0.07,0.04-0.14,0.08-0.21,0.12c-0.02,0.01-0.05,0.03-0.07,0.04
			c-0.06,0.04-0.13,0.08-0.2,0.11c-0.11,0.06-0.23,0.11-0.34,0.16c-0.05,0.02-0.09,0.04-0.14,0.07c-0.01,0-0.01,0.01-0.02,0.01
			c0,0,0,0,0,0c0,0-0.01,0-0.01,0c0,0,0,0,0,0c-0.05,0.03-0.11,0.06-0.16,0.08c-0.14,0.06-0.31,0.1-0.5,0.11
			c-0.1,0.01-0.2-0.02-0.3-0.07c-0.02,0.03-0.04,0.06-0.06,0.09c-0.1,0.17-0.24,0.3-0.45,0.43c-0.22,0.14-0.46,0.26-0.68,0.39
			c-0.08,0.04-0.16,0.09-0.24,0.13c-0.09,0.05-0.19,0.1-0.29,0.14c-0.16,0.07-0.33,0.13-0.54,0.19c-0.12,0.03-0.24,0.03-0.36,0.02
			c-0.14-0.01-0.29-0.03-0.41-0.13c0,0,0,0,0,0c0,0-0.19,0.01-0.42-0.13c-0.03-0.02-0.06-0.04-0.08-0.06
			c-0.16-0.15-0.22-0.37-0.22-0.37c-0.15-0.1-0.23-0.24-0.28-0.38c0,0,0-0.01,0-0.01c0-0.01-0.01-0.02-0.01-0.03c0,0,0,0,0,0
			c-0.02-0.08-0.03-0.15-0.04-0.21c0-0.05,0-0.1,0-0.15c0-0.01,0-0.02,0-0.03c-0.17-0.15-0.25-0.33-0.24-0.54
			c-0.32,0.07-0.61,0.12-0.9,0.15c-0.23,0.03-0.46,0.05-0.69,0.06c-0.04,0-0.09,0.01-0.13,0.01c-0.1,0-0.21,0.01-0.32,0
			c-2.29,0.01-4.04-0.75-4.94-1.22c-1.14-0.6-1.26-1.7-1.26-1.7l0,0c-0.03-0.16-0.05-0.33-0.05-0.5c0-0.16,0.02-0.32,0.04-0.47
			c0.06-0.29,0.13-0.53,0.21-0.73c-0.9,0.56-2.81,1.82-4.62,3.4c-2.13,1.86-4.54,4.53-4.31,6.97l0.61,0.09c0,0,2.38-3.24,7.55-2.79
			c5.17,0.45,7.21,4.1,12.82,0.83C27.55,29.39,27.12,25.63,34.14,24.13z"/>
		<g>
			<path class="st5" d="M13.52,32.63c0,0,0.23,0.08,0.64,0.22c0.2,0.07,0.45,0.15,0.73,0.25c0.28,0.09,0.6,0.19,0.96,0.29
				c0.04,0.01,0.09,0.02,0.13,0.04c0.05,0.01,0.09,0.02,0.14,0.03c0.09,0.02,0.19,0.04,0.28,0.06l0.07,0.02l0.07,0.01
				c0.05,0.01,0.1,0.02,0.15,0.03c0.1,0.02,0.2,0.04,0.3,0.05c0.1,0.01,0.21,0.02,0.31,0.03c0.05,0.01,0.11,0.01,0.16,0.02
				c0.05,0,0.11,0,0.16,0c0.11,0,0.22,0.01,0.33,0.01c0.11,0,0.22-0.01,0.34-0.02c0.06,0,0.11-0.01,0.17-0.01
				c0.06,0,0.11-0.01,0.17-0.02c0.11-0.02,0.23-0.03,0.34-0.05c0.06-0.01,0.11-0.02,0.17-0.03c0.06-0.01,0.11-0.03,0.17-0.04
				c0.11-0.03,0.23-0.05,0.35-0.08c0.11-0.03,0.23-0.07,0.34-0.1l0.17-0.05c0.06-0.02,0.11-0.04,0.17-0.06
				c0.11-0.04,0.23-0.09,0.34-0.13l0.17-0.07l0.16-0.08l0.33-0.15l0.16-0.08l0.16-0.09c0.11-0.06,0.21-0.12,0.32-0.17l0.16-0.09
				l0.08-0.04l0.08-0.05c0.42-0.25,0.81-0.5,1.18-0.76c0.37-0.26,0.72-0.54,1.04-0.81c0.08-0.07,0.16-0.14,0.23-0.2
				c0.08-0.07,0.15-0.14,0.22-0.2c0.15-0.13,0.29-0.26,0.42-0.39c0.26-0.26,0.5-0.5,0.71-0.71c0.21-0.22,0.39-0.4,0.54-0.56
				c0.15-0.16,0.27-0.28,0.35-0.36c0.08-0.08,0.12-0.13,0.12-0.13s-0.16,0.19-0.43,0.52c-0.14,0.16-0.3,0.37-0.5,0.59
				c-0.2,0.23-0.42,0.48-0.67,0.75c-0.26,0.27-0.54,0.55-0.85,0.84c-0.32,0.28-0.66,0.57-1.03,0.85c-0.09,0.07-0.19,0.14-0.28,0.2
				c-0.05,0.03-0.1,0.07-0.14,0.1c-0.05,0.03-0.1,0.07-0.15,0.1c-0.1,0.07-0.2,0.13-0.3,0.2c-0.1,0.06-0.21,0.12-0.31,0.19
				l-0.08,0.05c-0.03,0.02-0.05,0.03-0.08,0.05l-0.16,0.09c-0.11,0.06-0.22,0.12-0.32,0.18l-0.16,0.09l-0.17,0.08l-0.34,0.16
				l-0.17,0.08l-0.17,0.07c-0.12,0.04-0.23,0.09-0.35,0.13c-0.06,0.02-0.11,0.05-0.17,0.06l-0.18,0.05
				c-0.12,0.04-0.24,0.07-0.35,0.1c-0.06,0.02-0.12,0.03-0.18,0.04c-0.06,0.01-0.12,0.02-0.18,0.04c-0.06,0.01-0.12,0.02-0.18,0.04
				c-0.06,0.01-0.12,0.02-0.18,0.03c-0.12,0.01-0.24,0.03-0.36,0.04c-0.06,0.01-0.12,0.02-0.18,0.02c-0.06,0-0.12,0-0.18,0.01
				c-0.12,0-0.23,0.01-0.35,0.01c-0.11-0.01-0.23-0.01-0.34-0.02c-0.06,0-0.11-0.01-0.17-0.01c-0.06-0.01-0.11-0.01-0.16-0.02
				c-0.11-0.01-0.22-0.03-0.32-0.04c-0.11-0.02-0.21-0.04-0.31-0.06c-0.1-0.02-0.2-0.04-0.3-0.07c-0.1-0.03-0.19-0.05-0.28-0.08
				c-0.05-0.01-0.09-0.03-0.14-0.04c-0.04-0.01-0.09-0.03-0.13-0.04c-0.35-0.11-0.67-0.23-0.95-0.34c-0.28-0.11-0.52-0.21-0.72-0.29
				C13.75,32.73,13.52,32.63,13.52,32.63z"/>
		</g>
		<path class="st5" d="M26.87,19.82c0,0,0.06,0.03,0.17,0.09c0.05,0.03,0.12,0.07,0.19,0.12c0.07,0.05,0.16,0.1,0.25,0.17
			c0.05,0.03,0.1,0.07,0.15,0.1c0.05,0.04,0.1,0.08,0.16,0.12c0.05,0.04,0.11,0.09,0.17,0.13c0.06,0.05,0.11,0.1,0.17,0.15
			c0.12,0.1,0.24,0.22,0.37,0.34c0.07,0.06,0.13,0.12,0.19,0.19c0.06,0.07,0.13,0.14,0.2,0.21c0.03,0.04,0.07,0.07,0.1,0.11
			c0.03,0.04,0.06,0.08,0.1,0.12c0.07,0.08,0.13,0.16,0.2,0.24c0.03,0.04,0.07,0.08,0.1,0.12c0.03,0.04,0.06,0.09,0.1,0.13
			c0.07,0.09,0.13,0.18,0.2,0.27c0.03,0.05,0.07,0.09,0.1,0.14c0.03,0.05,0.06,0.1,0.1,0.14c0.06,0.1,0.13,0.19,0.19,0.29
			c0.03,0.05,0.07,0.1,0.1,0.15c0.03,0.05,0.06,0.1,0.09,0.16c0.06,0.1,0.12,0.21,0.18,0.32c0.03,0.05,0.06,0.11,0.09,0.16
			c0.03,0.05,0.06,0.11,0.09,0.17c0.06,0.11,0.11,0.22,0.17,0.34c0.03,0.06,0.06,0.11,0.09,0.17l0.04,0.09l0.04,0.09
			c0.05,0.12,0.1,0.24,0.15,0.36c0.05,0.12,0.1,0.24,0.15,0.36c0.05,0.12,0.09,0.24,0.13,0.37c0.04,0.12,0.09,0.25,0.13,0.37
			l0.07,0.19l0.06,0.19c0.07,0.25,0.15,0.5,0.22,0.75c0.06,0.25,0.12,0.51,0.19,0.76c0.11,0.5,0.2,1,0.26,1.49
			c0.04,0.24,0.06,0.48,0.08,0.72c0.01,0.06,0.01,0.12,0.02,0.18l0.01,0.09l0,0.09c0.01,0.12,0.01,0.23,0.02,0.34
			c0.01,0.11,0.01,0.22,0.02,0.33c0,0.11,0,0.22,0,0.32c0,0.11,0,0.21,0,0.31c0,0.1-0.01,0.2-0.01,0.3c0,0.1,0,0.19-0.01,0.29
			c-0.01,0.09-0.01,0.18-0.02,0.27c-0.01,0.18-0.03,0.35-0.05,0.5c-0.01,0.16-0.04,0.31-0.06,0.44c-0.02,0.14-0.04,0.26-0.06,0.37
			c-0.04,0.22-0.08,0.4-0.11,0.52c-0.03,0.12-0.05,0.18-0.05,0.18s0.01-0.06,0.03-0.18c0.02-0.12,0.04-0.3,0.07-0.52
			c0.01-0.11,0.03-0.24,0.03-0.37c0.01-0.14,0.02-0.28,0.03-0.44c0.01-0.16,0.01-0.32,0.01-0.5c0-0.09,0-0.18,0-0.27
			c0-0.09,0-0.19,0-0.28c0-0.1,0-0.2-0.01-0.3c0-0.1-0.01-0.2-0.02-0.31c-0.01-0.1-0.01-0.21-0.02-0.32
			c-0.01-0.11-0.02-0.22-0.03-0.33c-0.01-0.11-0.02-0.22-0.03-0.34l-0.01-0.09l-0.01-0.09c-0.01-0.06-0.02-0.11-0.02-0.17
			c-0.03-0.23-0.05-0.47-0.1-0.7c-0.02-0.12-0.04-0.24-0.06-0.36c-0.01-0.06-0.02-0.12-0.03-0.18c-0.01-0.06-0.03-0.12-0.04-0.18
			c-0.03-0.12-0.05-0.24-0.08-0.37c-0.01-0.06-0.03-0.12-0.04-0.19l-0.02-0.09l-0.02-0.09c-0.06-0.24-0.12-0.49-0.19-0.74
			c-0.07-0.25-0.15-0.5-0.22-0.75l-0.05-0.19l-0.06-0.18c-0.04-0.12-0.08-0.24-0.13-0.36c-0.04-0.12-0.08-0.24-0.13-0.36
			c-0.05-0.12-0.1-0.23-0.15-0.35c-0.05-0.12-0.1-0.23-0.14-0.35l-0.04-0.09l-0.04-0.08c-0.03-0.06-0.05-0.11-0.08-0.17
			c-0.05-0.11-0.11-0.22-0.16-0.33c-0.03-0.05-0.05-0.11-0.08-0.16c-0.03-0.05-0.06-0.11-0.09-0.16c-0.06-0.11-0.11-0.21-0.17-0.31
			c-0.03-0.05-0.06-0.1-0.08-0.16c-0.03-0.05-0.06-0.1-0.09-0.15c-0.06-0.1-0.12-0.2-0.18-0.29c-0.03-0.05-0.06-0.1-0.09-0.14
			c-0.03-0.05-0.06-0.09-0.09-0.14c-0.25-0.37-0.5-0.7-0.74-1c-0.13-0.15-0.24-0.29-0.36-0.42c-0.12-0.13-0.23-0.25-0.35-0.36
			c-0.06-0.06-0.11-0.11-0.16-0.16c-0.05-0.05-0.11-0.1-0.16-0.14c-0.05-0.05-0.1-0.09-0.15-0.13c-0.05-0.04-0.09-0.08-0.14-0.11
			c-0.17-0.15-0.32-0.25-0.42-0.32C26.92,19.85,26.87,19.82,26.87,19.82z"/>
		<g>
			<path class="st5" d="M27,25.23c-0.06,0-0.11-0.03-0.13-0.09c-0.03-0.07,0.01-0.16,0.08-0.18l2.96-1.13
				c0.07-0.03,0.16,0.01,0.18,0.08c0.03,0.07-0.01,0.16-0.08,0.18l-2.96,1.13C27.03,25.23,27.02,25.23,27,25.23z"/>
		</g>
		<path class="st0" d="M14.46,21.17c0.01-0.04,0.02-0.09,0.03-0.13c0.09-0.37,0.24-0.72,0.37-1.08c0.14-0.39,0.35-0.73,0.62-1.04
			c0.04-0.05,0.08-0.1,0.12-0.14c-0.02,0-0.03,0-0.04,0c-0.17,0.05-0.33,0.11-0.51,0.14c-0.15,0.02-0.3,0.06-0.43,0.13
			c-0.05,0.02-0.1,0.04-0.15,0.05c-0.12,0.04-0.24,0.08-0.35,0.13c-0.14,0.06-0.27,0.15-0.41,0.21c-0.21,0.1-0.37,0.27-0.55,0.4
			c-0.11,0.08-0.2,0.19-0.3,0.28c-0.19,0.18-0.35,0.38-0.48,0.6c-0.19,0.33-0.37,0.66-0.56,0.99c-0.19,0.33-0.39,0.66-0.54,1
			c-0.01,0.02-0.02,0.03-0.03,0.04c0,0-0.02,0.04-0.05,0.1c0.39-0.36,0.86-0.65,1.39-0.91C13.34,21.6,14.19,21.27,14.46,21.17z"/>
		<path class="st7" d="M21.81,18.54c-0.36,0.14-0.73,0.22-1.11,0.27c-0.67,0.08-1.33,0.04-1.98-0.1c-0.52-0.11-1.01-0.3-1.47-0.57
			c-0.34-0.2-0.64-0.43-0.92-0.71c-0.12-0.12-0.23-0.25-0.34-0.38c-0.03-0.03-0.04-0.08-0.06-0.12c-0.16-0.51-0.25-1.04-0.26-1.57
			c-0.01-0.47,0.03-0.93,0.13-1.39c0.06-0.24,0.13-0.48,0.23-0.71c0.02-0.04,0.05-0.06,0.09-0.07c0.34-0.06,0.68-0.09,1.02-0.08
			c0.85,0.02,1.66,0.22,2.46,0.51c0.54,0.2,1.07,0.43,1.58,0.71c0.45,0.25,0.89,0.51,1.33,0.78c0.16,0.1,0.32,0.21,0.47,0.32
			c0.02,0.02,0.05,0.05,0.05,0.08c0.08,0.72,0.01,1.41-0.32,2.07c-0.12,0.25-0.28,0.48-0.47,0.68
			C22.08,18.41,22.02,18.45,21.81,18.54z"/>
		<path class="st0" d="M24.31,11.9c-0.18-0.23-0.38-0.43-0.6-0.61c-0.39-0.32-0.83-0.55-1.3-0.72c-0.6-0.22-1.23-0.32-1.87-0.34
			c-0.59-0.01-1.17,0.06-1.74,0.19c-0.4,0.09-0.79,0.22-1.17,0.39c-0.37,0.17-0.7,0.39-1,0.66c-0.09,0.08-0.18,0.17-0.26,0.26
			c0,0.01,0.01,0.01,0.01,0.02c0.01-0.01,0.02-0.02,0.03-0.03c0.25-0.22,0.52-0.41,0.82-0.57c0.39-0.2,0.8-0.34,1.24-0.39
			c0.79-0.1,1.56,0.01,2.29,0.32c0.54,0.23,1,0.56,1.41,0.98c0.21,0.21,0.39,0.44,0.57,0.68c0.21,0.29,0.39,0.59,0.54,0.92
			c0.08,0.18,0.16,0.35,0.24,0.53c0.12,0.28,0.21,0.57,0.29,0.86c0.01,0.03,0.02,0.05,0.06,0.04c0.1-0.01,0.21-0.03,0.31-0.03
			c0.15,0,0.29-0.03,0.44,0.04c0.21,0.11,0.31,0.28,0.34,0.51c0.03,0.24-0.03,0.47-0.12,0.69c-0.04,0.1-0.1,0.18-0.2,0.24
			c-0.12,0.08-0.26,0.09-0.4,0.12c-0.17,0.04-0.34,0.05-0.51,0.07c-0.07,0.01-0.13-0.02-0.16-0.08c-0.06-0.13-0.14-0.26-0.17-0.4
			c-0.04-0.17-0.03-0.35-0.04-0.52c0-0.02-0.01-0.04-0.02-0.06c-0.02-0.02-0.05-0.04-0.09-0.07c0,0.04,0,0.06,0,0.08
			c0.04,0.49,0,0.97-0.15,1.43c-0.15,0.49-0.41,0.92-0.75,1.3c-0.11,0.12-0.25,0.21-0.4,0.28c-0.33,0.15-0.68,0.24-1.04,0.29
			c-0.98,0.14-1.94,0.07-2.87-0.25c-0.78-0.27-1.45-0.7-2.01-1.3c-0.09-0.1-0.17-0.21-0.25-0.32c-0.11-0.17-0.13-0.37-0.18-0.56
			c-0.04-0.18-0.07-0.36-0.11-0.55c0,0.05,0,0.11,0.01,0.16c0.05,0.31,0.1,0.62,0.17,0.92c0.07,0.29,0.17,0.57,0.27,0.85
			c0.06,0.17,0.14,0.35,0.26,0.49c0.16,0.18,0.32,0.36,0.49,0.51c0.38,0.34,0.81,0.61,1.28,0.81c0.58,0.25,1.19,0.37,1.82,0.37
			c0.71,0,1.4-0.13,2.08-0.35c0.29-0.1,0.56-0.21,0.84-0.34l0,0c0,0,0.71-0.27,1.09-0.84c0,0,0,0,0-0.01
			c0.06-0.08,0.11-0.15,0.17-0.23c0.25-0.37,0.48-0.75,0.63-1.17c0.1-0.26,0.2-0.52,0.28-0.79c0.16-0.53,0.22-1.07,0.25-1.61
			c0.02-0.42-0.02-0.84-0.09-1.25c-0.05-0.25-0.12-0.5-0.21-0.74C24.7,12.48,24.53,12.18,24.31,11.9z"/>
		<path class="st0" d="M23.39,15.44c-0.07-0.05-0.14-0.11-0.21-0.16c-0.4-0.26-0.79-0.52-1.19-0.76c-0.71-0.43-1.45-0.79-2.23-1.09
			c-0.58-0.22-1.17-0.39-1.77-0.48c-0.61-0.09-1.21-0.11-1.82,0c-0.16,0.03-0.32,0.07-0.5,0.12c0.02-0.06,0.04-0.12,0.07-0.17
			c0.14-0.27,0.33-0.51,0.54-0.74c0.26-0.29,0.56-0.53,0.89-0.73c0.34-0.2,0.7-0.34,1.08-0.41c0.86-0.17,1.7-0.06,2.5,0.29
			c0.36,0.16,0.69,0.37,0.99,0.64c0.21,0.19,0.41,0.39,0.59,0.61c0.22,0.25,0.4,0.53,0.57,0.82c0.18,0.32,0.34,0.65,0.48,1
			c0.08,0.22,0.15,0.45,0.23,0.67c0.02,0.05,0.01,0.08-0.03,0.13C23.5,15.25,23.45,15.34,23.39,15.44z"/>
		<path class="st0" d="M16.99,23.89c-0.05,0.06-0.11,0.12-0.17,0.19c-0.51-0.1-0.99-0.33-1.48-0.51c0.02-0.08,0.03-0.15,0.05-0.23
			c0.01-0.05-0.01-0.08-0.05-0.1c-0.19-0.09-0.38-0.18-0.59-0.29c0.03-0.06,0.07-0.13,0.1-0.21c0.08-0.18,0.15-0.36,0.22-0.54
			c0.01-0.02,0.01-0.04,0.02-0.06c0.04-0.08,0.02-0.11-0.06-0.14C15,22,14.98,21.99,14.96,21.99c-0.02,0-0.04-0.01-0.07-0.01
			c0.04-0.09,0.08-0.18,0.11-0.27c0.04-0.1,0.07-0.2,0.11-0.29c0.02-0.06,0.05-0.11,0.08-0.17c0.05-0.1,0.11-0.2,0.16-0.29
			c0.03-0.05,0.06-0.05,0.11-0.03c0.1,0.04,0.2,0.05,0.3,0.09c0.1,0.03,0.19,0.08,0.29,0.11c0.2,0.07,0.4,0.14,0.6,0.21
			c0.25,0.1,0.51,0.2,0.76,0.3c0.06,0.02,0.12,0.05,0.19,0.07c-0.02,0.03-0.03,0.06-0.04,0.08c-0.04,0.08-0.04,0.11,0.04,0.15
			c0.13,0.07,0.27,0.13,0.4,0.2c0.02,0.01,0.05,0.02,0.08,0.02c-0.01,0.03-0.02,0.06-0.03,0.08c-0.12,0.29-0.23,0.59-0.35,0.88
			c-0.07,0.18-0.14,0.36-0.2,0.55c-0.02,0.07-0.06,0.09-0.13,0.1c-0.09,0.01-0.18,0.05-0.27,0.07c0.03-0.08,0.07-0.15,0.1-0.23
			c0.01-0.02,0.01-0.04,0.02-0.06c0.02-0.11,0.01-0.13-0.09-0.18c-0.04-0.02-0.08-0.03-0.11-0.05c-0.01-0.01-0.04-0.01-0.05,0
			c-0.03,0.04-0.05,0.01-0.07-0.01c-0.05-0.03-0.11-0.04-0.17-0.03c0.02,0.07,0.01,0.12-0.05,0.15c-0.01,0.01-0.02,0.03-0.03,0.05
			c-0.01,0.05-0.03,0.09-0.04,0.14c-0.02,0.09,0,0.12,0.09,0.15C16.78,23.82,16.89,23.86,16.99,23.89z M16.15,21.54
			c-0.07-0.18-0.27-0.33-0.45-0.32c-0.16,0.01-0.3,0.06-0.39,0.19c-0.11,0.18-0.14,0.37-0.09,0.58c0.04,0.13,0.19,0.27,0.32,0.28
			c0.22,0.03,0.44-0.1,0.55-0.3C16.17,21.82,16.22,21.68,16.15,21.54z M17.67,22.58c0.06-0.1,0.08-0.21,0.09-0.32
			c0-0.03-0.02-0.07-0.05-0.08c-0.12-0.06-0.24-0.12-0.37-0.17c-0.15-0.06-0.31-0.1-0.47-0.15c-0.08-0.03-0.12-0.02-0.16,0.06
			c-0.04,0.09-0.07,0.18-0.1,0.27c-0.02,0.06,0.01,0.09,0.06,0.12c0.25,0.1,0.5,0.2,0.77,0.26c0.02,0,0.05,0.01,0.06,0
			C17.57,22.52,17.62,22.53,17.67,22.58z M16.17,23.08c-0.02-0.02-0.04-0.04-0.06-0.05c-0.14-0.05-0.27-0.11-0.41-0.16
			c-0.05-0.02-0.09,0.01-0.1,0.06c-0.04,0.12-0.07,0.25-0.11,0.37c-0.01,0.05,0,0.09,0.05,0.1c0.13,0.04,0.25,0.08,0.38,0.12
			c0.03,0.01,0.08-0.01,0.09-0.04c0.05-0.11,0.1-0.22,0.15-0.33C16.17,23.13,16.17,23.1,16.17,23.08z M16.14,23.56
			c0.05,0.05,0.23,0.16,0.3,0.16c0.02,0,0.05-0.01,0.06-0.02c0.01-0.01,0-0.05-0.01-0.05c-0.1-0.04-0.2-0.07-0.3-0.1
			C16.17,23.54,16.15,23.55,16.14,23.56z"/>
		<path class="st0" d="M22.16,25.37c-0.05,0.03-0.1,0.05-0.16,0.02c-0.08-0.04-0.16-0.06-0.23-0.1c-0.2-0.12-0.31-0.31-0.37-0.52
			c-0.16-0.58-0.13-1.17,0.05-1.75c0.05-0.16,0.09-0.32,0.16-0.47c0.17-0.36,0.3-0.73,0.52-1.06c0.16-0.24,0.32-0.48,0.5-0.7
			c0.1-0.13,0.22-0.23,0.39-0.26c0.12-0.03,0.23,0,0.33,0.05c0.07,0.03,0.08,0.06,0.05,0.13c-0.02,0.04-0.04,0.08-0.07,0.12
			c-0.08,0.12-0.16,0.23-0.24,0.34c-0.07,0.1-0.13,0.2-0.21,0.29c-0.18,0.24-0.29,0.51-0.4,0.79c-0.17,0.44-0.32,0.89-0.43,1.35
			c-0.05,0.18-0.06,0.38-0.07,0.57c-0.01,0.14-0.01,0.28-0.01,0.43c0,0.2,0.02,0.4,0.1,0.59C22.09,25.25,22.13,25.3,22.16,25.37z"/>
		<path class="st0" d="M14.42,22.49c0.06-0.32,0.13-0.64,0.18-0.97c0.08-0.55,0.3-1.05,0.49-1.56c0.12-0.32,0.29-0.6,0.49-0.86
			c0.07-0.1,0.15-0.21,0.22-0.3c0.02-0.03,0.07-0.04,0.1-0.06c0.01,0.03,0.03,0.06,0.04,0.1c0.02,0.07,0.03,0.14,0.04,0.21
			c0.02,0.07,0.02,0.13-0.02,0.2c-0.11,0.2-0.22,0.39-0.33,0.59c-0.15,0.26-0.26,0.53-0.37,0.8c-0.14,0.35-0.25,0.7-0.44,1.03
			c-0.14,0.25-0.24,0.52-0.36,0.79C14.45,22.46,14.44,22.47,14.42,22.49C14.43,22.49,14.42,22.49,14.42,22.49z"/>
		<path class="st6" d="M17.89,24.28c-0.08-0.16-0.21-0.19-0.36-0.17c-0.08,0.01-0.16,0.02-0.23,0.03c-0.08,0.01-0.16,0.04-0.21,0.1
			c-0.04,0.05-0.05,0.12-0.07,0.18c0,0.01-0.01,0.03-0.01,0.05c-0.16-0.06-0.32-0.11-0.48-0.16c-0.24-0.08-0.47-0.16-0.71-0.24
			c-0.23-0.08-0.45-0.17-0.68-0.25c-0.02-0.01-0.04-0.02-0.06-0.02c-0.15-0.01-0.2-0.12-0.24-0.25c0.04,0.02,0.07,0.03,0.1,0.05
			c0.27,0.1,0.53,0.2,0.8,0.3c0.21,0.08,0.41,0.16,0.62,0.23c0.1,0.04,0.21,0.07,0.31,0.1c0.07,0.02,0.13,0.03,0.15,0.11
			c0,0.01,0.02,0.02,0.03,0.03c0.03-0.05,0.05-0.1,0.07-0.15c0.06-0.14,0.15-0.23,0.3-0.25c0.12-0.02,0.25-0.04,0.37-0.04
			c0.1-0.01,0.2,0.02,0.25,0.14c0.02,0.04,0.06,0.07,0.09,0.1c0.01,0,0.01-0.01,0.02-0.01c0-0.02,0.01-0.04,0.01-0.05
			c-0.02-0.13,0.03-0.24,0.07-0.35c0.09-0.25,0.2-0.5,0.3-0.76c0.1-0.25,0.18-0.51,0.27-0.76c0.01-0.02,0.01-0.04,0.02-0.07
			c0.12,0.01,0.23,0.02,0.34,0.03c-0.04,0.13-0.09,0.26-0.13,0.4c-0.05,0.16-0.06,0.32-0.13,0.48c-0.11,0.24-0.22,0.49-0.33,0.73
			c-0.05,0.11-0.12,0.22-0.18,0.33c-0.01,0.01-0.02,0.03-0.03,0.03C18.06,24.19,17.97,24.23,17.89,24.28z"/>
		<path class="st6" d="M25.28,22.66c-0.15,0.06-0.31,0.12-0.48,0.17c-0.07,0.02-0.12,0.01-0.17-0.04c-0.09-0.09-0.18-0.18-0.27-0.26
			c-0.11-0.1-0.23-0.2-0.35-0.3c-0.06-0.05-0.06-0.07,0-0.12c0.14-0.08,0.27-0.17,0.41-0.24c0.08-0.03,0.18-0.02,0.27-0.03
			c0.02,0,0.04,0.02,0.06,0.03c0.2,0.19,0.39,0.38,0.59,0.58c0.03,0.02,0.04,0.06,0.05,0.1c0,0.02-0.01,0.05-0.03,0.07
			C25.34,22.64,25.31,22.65,25.28,22.66z"/>
		<path class="st6" d="M24.49,21.65c-0.13,0.06-0.26,0.11-0.39,0.17c-0.13,0.06-0.25,0.13-0.37,0.2c-0.09,0.06-0.1,0.15-0.02,0.23
			c0.17,0.15,0.31,0.33,0.51,0.46c0.12,0.07,0.21,0.18,0.31,0.27c0.06,0.05,0.12,0.08,0.19,0.12c0.03,0.01,0.07,0.01,0.1,0
			c0.13-0.06,0.25-0.13,0.38-0.19c0.06-0.03,0.12-0.05,0.18-0.08c0.07-0.03,0.14-0.06,0.22-0.1c0.05,0.05,0.11,0.11,0.17,0.16
			c-0.11,0.1-0.25,0.14-0.37,0.19c-0.17,0.07-0.35,0.14-0.52,0.22c-0.09,0.04-0.16,0.02-0.23-0.03c-0.25-0.19-0.51-0.38-0.75-0.59
			c-0.19-0.17-0.35-0.37-0.52-0.55c-0.03-0.03-0.01-0.06,0.01-0.07c0.08-0.05,0.16-0.11,0.24-0.15c0.09-0.05,0.18-0.11,0.28-0.15
			c0.16-0.06,0.33-0.11,0.49-0.15c0.02-0.01,0.06,0.02,0.09,0.03C24.49,21.63,24.49,21.64,24.49,21.65z"/>
		<path class="st0" d="M24.65,15.39c-0.05-0.06-0.15-0.11-0.24-0.11c0.04,0.02,0.07,0.05,0.1,0.08c0.09,0.11,0.1,0.24,0.1,0.37
			c-0.01,0.13-0.02,0.26-0.05,0.38c-0.03,0.11-0.12,0.18-0.2,0.22c-0.03,0.01-0.06,0.02-0.09,0.02c0.06,0.04,0.13,0.05,0.22,0.01
			c0.08-0.04,0.17-0.11,0.2-0.22c0.03-0.12,0.05-0.25,0.05-0.38C24.76,15.63,24.74,15.5,24.65,15.39z"/>
		<path class="st6" d="M24.56,16.11c0.03-0.12,0.05-0.25,0.05-0.38c0.01-0.13-0.01-0.26-0.1-0.37c-0.02-0.03-0.06-0.06-0.1-0.08
			c-0.02,0-0.04,0-0.06,0.01c-0.09,0.03-0.14,0.12-0.17,0.2c-0.07,0.19-0.1,0.39-0.06,0.59c0.01,0.08,0.02,0.16,0.09,0.23
			c0.02,0.02,0.04,0.03,0.06,0.04c0.03,0,0.05-0.01,0.09-0.02C24.44,16.29,24.53,16.22,24.56,16.11z"/>
		<path class="st0" d="M17.79,23.78c-0.05-0.01-0.14-0.03-0.22-0.05c0.11-0.31,0.23-0.63,0.34-0.95c0.07-0.19,0.15-0.37,0.22-0.55
			c0.04-0.1,0.03-0.12-0.06-0.16c-0.15-0.07-0.3-0.14-0.46-0.22c0.02-0.04,0.04-0.08,0.05-0.1c0.07,0.02,0.13,0.04,0.2,0.07
			c0.16,0.07,0.32,0.13,0.49,0.2c0.09,0.04,0.1,0.04,0.07,0.13c-0.1,0.29-0.19,0.57-0.29,0.86c-0.07,0.19-0.13,0.37-0.21,0.56
			C17.88,23.64,17.83,23.71,17.79,23.78z"/>
		<path class="st0" d="M18.85,21.94c-0.11-0.01-0.21,0.02-0.32-0.03c-0.17-0.07-0.35-0.12-0.52-0.19c-0.13-0.05-0.26-0.12-0.39-0.17
			c-0.4-0.16-0.8-0.35-1.21-0.47c-0.2-0.06-0.4-0.15-0.6-0.23c-0.07-0.03-0.13-0.05-0.22-0.07c0.08-0.02,0.14-0.05,0.2-0.06
			c0.04,0,0.09,0.03,0.14,0.04c0.12,0.04,0.23,0.09,0.35,0.14c0.27,0.1,0.55,0.19,0.82,0.3c0.25,0.09,0.49,0.2,0.74,0.3
			c0.22,0.09,0.45,0.17,0.68,0.26c0.11,0.04,0.21,0.1,0.32,0.15c0.01,0,0.01,0.02,0.02,0.02C18.85,21.93,18.85,21.94,18.85,21.94z"
			/>
		<path class="st0" d="M15.79,13.26c-0.32,0.86-0.39,1.74-0.29,2.63c-0.01,0-0.01,0-0.02,0c-0.01-0.13-0.02-0.27-0.03-0.4
			c-0.04-0.56-0.03-1.11,0.03-1.66c0.02-0.15,0.05-0.3,0.08-0.45c0-0.02,0.01-0.04,0.03-0.04C15.65,13.31,15.71,13.29,15.79,13.26z"
			/>
		<path class="st0" d="M17.89,24.81c0.02,0.06,0.05,0.11,0.07,0.17c-0.12,0.04-0.21,0.1-0.29,0.19c-0.07,0.09-0.14,0.18-0.21,0.29
			c-0.04-0.07-0.08-0.15-0.12-0.23c-0.01-0.02,0.01-0.05,0.02-0.07c0.08-0.18,0.21-0.28,0.4-0.33
			C17.8,24.83,17.84,24.82,17.89,24.81z"/>
		<path class="st0" d="M14.43,23.16c0.07-0.03,0.13-0.06,0.19-0.08c0.01-0.01,0.03,0,0.05,0c0.15,0.06,0.31,0.13,0.46,0.2
			c0.05,0.02,0.11,0.05,0.16,0.08c-0.02,0.19-0.06,0.21-0.23,0.14c-0.13-0.05-0.26-0.11-0.38-0.17
			C14.6,23.28,14.52,23.21,14.43,23.16z"/>
		<path class="st0" d="M14.4,23.05c0.15-0.33,0.29-0.66,0.44-1c0.05,0.02,0.09,0.03,0.14,0.05c-0.04,0.09-0.07,0.18-0.1,0.27
			c-0.08,0.18-0.16,0.35-0.23,0.53c-0.02,0.05-0.05,0.09-0.1,0.11c-0.04,0.01-0.09,0.04-0.13,0.05
			C14.42,23.06,14.41,23.05,14.4,23.05z"/>
		<path class="st0" d="M23.53,15.77c0.01-0.04,0.02-0.08,0.02-0.12c0.02-0.11,0.02-0.11,0.13-0.13c0.02,0,0.04-0.03,0.06-0.04
			c-0.02-0.02-0.03-0.04-0.06-0.05c-0.02-0.01-0.04-0.01-0.06-0.01c0.04-0.11,0.07-0.13,0.17-0.13c0.09,0,0.18-0.01,0.26-0.01
			c-0.03,0.08-0.07,0.15-0.1,0.24c-0.02,0.06-0.03,0.13-0.04,0.19c0,0.02-0.02,0.04-0.04,0.04C23.77,15.75,23.65,15.76,23.53,15.77z
			"/>
		<path class="st0" d="M18.16,25.24c-0.21,0.13-0.37,0.29-0.39,0.56c-0.07-0.07-0.13-0.13-0.17-0.19c-0.02-0.03-0.01-0.09,0.01-0.13
			c0.1-0.16,0.21-0.31,0.4-0.38c0.01,0,0.04,0,0.05,0.01C18.09,25.15,18.12,25.19,18.16,25.24z"/>
		<path class="st0" d="M17.26,25.08c-0.03-0.09-0.07-0.16-0.07-0.24c0-0.05,0.04-0.11,0.09-0.14c0.14-0.11,0.3-0.15,0.47-0.15
			c0.04,0,0.07,0.02,0.08,0.06c0.01,0.03,0.02,0.06,0.03,0.09C17.59,24.72,17.39,24.83,17.26,25.08z"/>
		<path class="st0" d="M18.34,25.43c-0.15,0.17-0.26,0.34-0.28,0.57c-0.05-0.03-0.1-0.06-0.14-0.1c-0.01-0.01-0.01-0.03-0.02-0.05
			c-0.01-0.15,0.05-0.27,0.15-0.37c0.04-0.04,0.1-0.08,0.14-0.12c0.04-0.03,0.06-0.03,0.09,0.01C18.3,25.4,18.32,25.42,18.34,25.43z
			"/>
		<path class="st0" d="M18.45,25.53c0.05,0.04,0.1,0.08,0.14,0.12c-0.05,0.08-0.11,0.15-0.14,0.24c-0.03,0.08-0.03,0.18-0.05,0.28
			c-0.04-0.02-0.1-0.04-0.16-0.07c-0.01-0.01-0.02-0.03-0.03-0.05c-0.01-0.07-0.01-0.14,0.02-0.21
			C18.29,25.73,18.35,25.62,18.45,25.53z"/>
		<path class="st0" d="M17.14,24.64c0-0.06,0-0.12,0.02-0.17c0.01-0.03,0.04-0.07,0.07-0.08c0.12-0.04,0.24-0.07,0.36-0.09
			c0.09-0.02,0.13,0.06,0.18,0.13C17.52,24.4,17.32,24.47,17.14,24.64z"/>
		<path class="st0" d="M18.71,25.73c0.05,0.03,0.09,0.05,0.13,0.08c-0.11,0.14-0.16,0.29-0.12,0.46c-0.12-0.01-0.15-0.03-0.17-0.14
			C18.53,25.97,18.62,25.86,18.71,25.73z"/>
		<path class="st0" d="M19.06,26.34c-0.11,0.04-0.16,0.02-0.19-0.1c-0.03-0.12,0-0.22,0.07-0.32c0.02-0.03,0.04-0.04,0.08-0.02
			c0.03,0.02,0.07,0.03,0.12,0.04C19.04,26.06,19.01,26.2,19.06,26.34z"/>
		<path class="st8" d="M16.79,23.42c0.09,0.02,0.17,0.04,0.25,0.06c0.04,0.01,0.05,0.03,0.03,0.07c-0.02,0.06-0.04,0.12-0.07,0.19
			c-0.1-0.03-0.19-0.06-0.29-0.1C16.74,23.58,16.76,23.5,16.79,23.42z"/>
		<path class="st0" d="M23.53,15.92c0.13-0.01,0.25-0.03,0.37-0.04c0,0.05,0,0.09,0.01,0.14c-0.11,0.02-0.23,0.04-0.35,0.05
			C23.54,16.02,23.53,15.97,23.53,15.92z"/>
		<path class="st0" d="M19.38,26.03c-0.01,0.09-0.02,0.17-0.03,0.27c-0.03,0.01-0.07,0.02-0.11,0.02c-0.02,0-0.04-0.02-0.05-0.04
			c-0.03-0.07,0-0.22,0.06-0.27C19.26,26,19.28,26,19.29,26C19.32,26.01,19.36,26.02,19.38,26.03z"/>
		<path class="st0" d="M15.63,12.5c-0.06,0.13-0.11,0.26-0.17,0.4c-0.04-0.01-0.08-0.02-0.14-0.03c0.08-0.15,0.15-0.29,0.29-0.38
			C15.61,12.49,15.62,12.5,15.63,12.5z"/>
		<path class="st0" d="M23.93,16.19c0.01,0.03,0.02,0.05,0.03,0.09c-0.11,0.02-0.22,0.04-0.33,0.04c-0.02,0-0.04-0.04-0.07-0.07
			c0-0.01,0.01-0.02,0.01-0.03C23.69,16.22,23.81,16.2,23.93,16.19z"/>
		<path class="st0" d="M19.5,26.25c0-0.03-0.01-0.05-0.01-0.07c0-0.08,0.03-0.11,0.11-0.09c0.03,0.01,0.06,0.01,0.08,0.02
			C19.65,26.23,19.64,26.24,19.5,26.25z"/>
		<path class="st0" d="M23.69,16.47c0.1-0.01,0.2-0.02,0.31-0.03c0.02,0,0.03,0.02,0.05,0.03c0,0.01,0,0.01-0.01,0.02
			c-0.1,0.01-0.2,0.03-0.3,0.03c-0.02,0-0.04-0.03-0.06-0.04C23.69,16.48,23.69,16.48,23.69,16.47z"/>
		<path class="st0" d="M15.28,13.73c-0.15-0.04-0.16-0.05-0.13-0.16c0.05,0.01,0.1,0.03,0.15,0.05
			C15.29,13.65,15.28,13.69,15.28,13.73z"/>
		<path class="st0" d="M15.18,13.32c0-0.03,0.01-0.05,0.01-0.08c0.06,0.01,0.11,0.02,0.17,0.04c-0.01,0.03-0.01,0.05-0.02,0.08
			C15.29,13.35,15.23,13.33,15.18,13.32z"/>
		<path class="st0" d="M15.26,12.99c0.06,0.02,0.11,0.03,0.16,0.05c-0.01,0.02-0.02,0.05-0.02,0.07c-0.06-0.01-0.11-0.03-0.16-0.04
			C15.25,13.05,15.25,13.02,15.26,12.99z"/>
		<path class="st0" d="M19.81,26.13c0.04,0.01,0.08,0.01,0.12,0.01c0,0,0,0.01,0,0.01c-0.04,0.01-0.09,0.03-0.15,0.04
			C19.8,26.17,19.8,26.15,19.81,26.13z"/>
		<path class="st9" d="M16,21.57c0.04,0.09,0.05,0.18-0.01,0.26c-0.05,0.08-0.1,0.17-0.17,0.24c-0.1,0.11-0.29,0.1-0.39-0.01
			c-0.05-0.05-0.08-0.11-0.09-0.18c-0.01-0.18,0.01-0.35,0.17-0.46C15.67,21.31,15.93,21.38,16,21.57z"/>
		<path class="st10" d="M17.6,22.5c-0.28-0.1-0.56-0.2-0.83-0.3c0.02-0.07,0.04-0.13,0.06-0.2c0.06,0.02,0.12,0.03,0.18,0.05
			c0.19,0.06,0.38,0.13,0.57,0.2c0.05,0.02,0.06,0.05,0.05,0.09C17.62,22.39,17.61,22.44,17.6,22.5z"/>
		<path class="st8" d="M15.72,23.01c0.11,0.04,0.21,0.07,0.32,0.11c-0.04,0.08-0.07,0.16-0.1,0.23c0,0.01-0.03,0.02-0.04,0.01
			c-0.08-0.02-0.15-0.04-0.23-0.06c-0.04-0.01-0.04-0.03-0.03-0.06C15.67,23.17,15.69,23.09,15.72,23.01z"/>
		<path class="st0" d="M26.6,23.92c-0.12-0.18-0.26-0.35-0.39-0.53c-0.05-0.06-0.09-0.12-0.14-0.18c-0.07,0.04-0.12,0.08-0.18,0.12
			c-0.16,0.12-0.33,0.22-0.51,0.29c-0.17,0.07-0.33,0.14-0.5,0.21c-0.07,0.03-0.15,0.05-0.21,0.09c-0.09,0.05-0.13,0.07-0.21,0.01
			c-0.13-0.09-0.26-0.19-0.38-0.29c-0.05-0.05-0.1-0.11-0.14-0.16c0.01-0.01,0.01-0.01,0.02-0.02c0.06,0.03,0.12,0.06,0.18,0.09
			c0.13,0.07,0.26,0.15,0.39,0.22c0.01,0.01,0.04,0.01,0.05,0.01c0.1-0.04,0.2-0.08,0.3-0.12c0.12-0.05,0.25-0.12,0.37-0.17
			c0.24-0.09,0.45-0.23,0.68-0.35c0.02-0.01,0.03-0.05,0.03-0.07c-0.01-0.02-0.04-0.03-0.07-0.04c-0.02,0-0.04,0.01-0.06,0.02
			c-0.13,0.06-0.26,0.12-0.39,0.17c-0.07,0.03-0.13,0.06-0.2,0.09c-0.13,0.06-0.27,0.13-0.4,0.18c-0.1,0.04-0.19,0.06-0.22,0.17
			c0,0.02-0.03,0.02-0.05,0.04c-0.01-0.02-0.03-0.04-0.02-0.06c0-0.06,0.01-0.12,0.03-0.18c0.01-0.04,0-0.06-0.03-0.08
			c-0.06-0.04-0.13-0.07-0.19-0.12c-0.2-0.16-0.4-0.32-0.59-0.48c-0.09-0.08-0.16-0.18-0.24-0.27c-0.09-0.1-0.18-0.19-0.27-0.3
			c-0.03,0.05-0.05,0.1-0.08,0.15c-0.05,0.09-0.05,0.11,0.02,0.19c0.12,0.13,0.24,0.26,0.32,0.42c0.02,0.04,0.04,0.08,0.06,0.13
			c-0.01,0-0.01,0.01-0.02,0.01c-0.06-0.01-0.1-0.04-0.14-0.09c-0.1-0.12-0.2-0.25-0.31-0.37c-0.01-0.02-0.03-0.03-0.04-0.05
			c-0.06-0.1-0.08-0.19-0.02-0.3c0.05-0.09,0.1-0.18,0.14-0.27c0.05-0.09,0.1-0.18,0.19-0.23c0.04-0.02,0.07-0.04,0.11-0.06
			c0.19-0.11,0.38-0.23,0.59-0.28c0.06-0.02,0.12-0.03,0.2-0.05c-0.23-0.21-0.46-0.4-0.68-0.6c-0.01-0.01-0.04-0.01-0.05,0
			c-0.04,0.03-0.08,0.07-0.11,0.11c-0.28,0.37-0.52,0.77-0.68,1.22c-0.16,0.46-0.34,0.91-0.46,1.38c-0.02,0.07-0.04,0.14-0.05,0.2
			c-0.04,0.28-0.07,0.57-0.05,0.85c0.01,0.13,0,0.26,0.04,0.39c0.04,0.12,0.09,0.23,0.15,0.34c0.02-0.01,0.05-0.02,0.07-0.03
			c0.12-0.06,0.24-0.13,0.37-0.18c0.17-0.07,0.34-0.13,0.5-0.21c0.2-0.08,0.39-0.17,0.59-0.26c0.03-0.01,0.05-0.02,0.08-0.03
			c0,0.01,0.01,0.01,0.01,0.02c-0.05,0.04-0.09,0.09-0.14,0.13c-0.2,0.16-0.43,0.27-0.66,0.38c-0.16,0.08-0.32,0.15-0.47,0.23
			c-0.12,0.06-0.23,0.13-0.35,0.18c-0.28,0.12-0.54,0.27-0.77,0.48c-0.1,0.1-0.23,0.19-0.25,0.35c0,0.02,0.01,0.05,0.02,0.07
			c0.13,0.16,0.26,0.32,0.38,0.48c0.02,0.02,0.01,0.06,0.01,0.09c-0.03-0.01-0.06-0.01-0.08-0.03c-0.08-0.08-0.16-0.16-0.24-0.24
			c-0.13-0.13-0.29-0.23-0.48-0.26c-0.16-0.03-0.31-0.01-0.47,0.03c-0.27,0.07-0.54,0.14-0.81,0.21c-0.15,0.04-0.32,0.07-0.45,0.17
			c-0.07,0.05-0.15,0.1-0.19,0.18c-0.09,0.16-0.01,0.34,0.14,0.45c0.01,0.01,0.03,0,0.04,0c0.1-0.04,0.19-0.08,0.29-0.12
			c0.13-0.05,0.26-0.1,0.39-0.14c0.06-0.02,0.13-0.02,0.2-0.03c0,0.01,0.01,0.02,0.01,0.02c-0.02,0.02-0.05,0.05-0.07,0.06
			c-0.08,0.05-0.16,0.09-0.24,0.14c-0.17,0.09-0.34,0.17-0.5,0.27c-0.2,0.12-0.4,0.26-0.6,0.4c-0.07,0.05-0.12,0.23-0.08,0.31
			c0.04,0.08,0.08,0.15,0.13,0.23c0.03-0.02,0.05-0.04,0.07-0.06c0.25-0.21,0.5-0.41,0.81-0.52c0.03-0.01,0.07-0.02,0.1-0.02
			c0.02,0,0.04,0.02,0.04,0.04c0,0.01-0.01,0.03-0.02,0.05c-0.05,0.04-0.09,0.08-0.14,0.12c-0.23,0.18-0.45,0.36-0.68,0.53
			c-0.08,0.06-0.1,0.14-0.09,0.23c0.01,0.06,0.04,0.12,0.04,0.17c0,0.09,0.05,0.13,0.12,0.15c0.04-0.04,0.08-0.08,0.12-0.12
			c0.21-0.19,0.43-0.35,0.68-0.48c0.08-0.04,0.16-0.07,0.25-0.09c0.02,0,0.04,0.02,0.06,0.03c-0.01,0.02-0.02,0.04-0.03,0.06
			c-0.03,0.03-0.07,0.06-0.11,0.09c-0.24,0.18-0.48,0.35-0.69,0.55c-0.06,0.06-0.1,0.12-0.09,0.21c0,0.1,0.06,0.15,0.12,0.21
			c0.06,0.06,0.13,0.06,0.2,0.01c0.02-0.01,0.03-0.03,0.05-0.04c0.19-0.17,0.37-0.34,0.58-0.47c0.06-0.04,0.13-0.08,0.2-0.1
			c0.02-0.01,0.05,0.01,0.08,0.02c-0.01,0.02-0.01,0.05-0.03,0.07c-0.12,0.11-0.24,0.22-0.36,0.34c-0.09,0.09-0.18,0.19-0.28,0.28
			c0,0.01,0,0.02-0.01,0.03c0.03,0,0.06,0.01,0.09,0.01c0.17,0.03,0.33,0.02,0.49-0.03c0.21-0.07,0.42-0.15,0.61-0.25
			c0.29-0.16,0.58-0.32,0.87-0.48c0.16-0.09,0.29-0.19,0.4-0.35c0.11-0.16,0.23-0.32,0.39-0.42c0.06-0.03,0.05-0.07,0.03-0.12
			c-0.01-0.01-0.02-0.03-0.03-0.04c-0.13-0.18-0.26-0.37-0.39-0.55c-0.1-0.14-0.19-0.28-0.28-0.41c-0.01-0.02-0.02-0.03-0.02-0.05
			c-0.01-0.05,0-0.07,0.05-0.05c0.04,0.01,0.07,0.04,0.1,0.06c0.19,0.16,0.32,0.36,0.45,0.56c0.11,0.16,0.2,0.32,0.3,0.49
			c0.07,0.12,0.11,0.24,0,0.36c0.17,0,0.32-0.02,0.46-0.1c0.22-0.11,0.44-0.22,0.66-0.34c0.09-0.05,0.17-0.1,0.26-0.15
			c0.37-0.18,0.72-0.4,1.03-0.67c0.21-0.17,0.39-0.37,0.57-0.57l0,0c0,0,0.67-0.68,0.8-0.9c0.01,0,0.01-0.01,0.01-0.01
			c0.05-0.09,0.11-0.18,0.15-0.28c0.1-0.26,0.09-0.53,0.08-0.8c-0.01-0.15-0.04-0.29-0.06-0.44C26.78,24.26,26.7,24.08,26.6,23.92z"
			/>
		<path class="st0" d="M15.25,24c-0.05-0.02-0.08-0.04-0.09-0.03c-0.04-0.02-0.08-0.04-0.13-0.05c0.01,0.01,0.01,0.02,0.02,0.02
			c-0.02-0.01-0.04-0.02-0.06-0.03c0.86,1.02,1.78,2.31,2,2.61c0.67,0.02,1.19-0.04,1.52-0.1c-0.01-0.01-0.01-0.01-0.01-0.01
			c-0.02-0.01-0.05-0.01-0.07-0.02c-0.45-0.16-0.82-0.42-1.09-0.81c-0.18-0.25-0.27-0.54-0.3-0.84c-0.01-0.1-0.05-0.14-0.14-0.16
			c-0.01,0-0.02-0.01-0.02-0.01c-0.53-0.19-1.07-0.37-1.6-0.56C15.26,24.01,15.26,24,15.25,24z"/>
		<path class="st0" d="M11.96,24.92c0.79,0.64,1.44,0.89,3.32,1.29c0.52,0.11,0.79,0.15,1.21,0.18c-0.35-0.49-1.13-1.82-1.92-2.7
			c-0.72-0.8-1.41-0.81-1.95-0.58c-0.14,0.06-0.28,0.14-0.4,0.22c-0.19,0.13-0.63,0.49-0.65,0.9C11.56,24.47,11.69,24.7,11.96,24.92
			z"/>
		<path class="st6" d="M20.97,26.04c-0.24,0.09-0.49,0.17-0.74,0.24c-0.21,0.06-0.42,0.09-0.63,0.15c-0.24,0.07-0.48,0.1-0.73,0.13
			c-0.35,0.09-1.73,0.36-3.67-0.05c-2.02-0.43-2.72-0.7-3.59-1.41c-0.34-0.27-0.5-0.57-0.49-0.89c0.01-0.15,0.05-0.29,0.12-0.42l0,0
			c0,0,0.4-1,1.71-1.62c0.9-0.42,1.29-0.57,1.45-0.63c0.01-0.05,0.02-0.1,0.03-0.16c-0.2,0.07-0.74,0.28-1.8,0.77
			c-0.65,0.3-1.13,0.69-1.45,1.02c-0.26,0.28-0.62,0.79-0.76,1.54c-0.04,0.24-0.08,0.74,0.11,1.24c0.01,0.02,0.02,0.04,0.03,0.06
			c0.04,0.08,0.07,0.15,0.12,0.23c0.17,0.27,0.43,0.53,0.82,0.73c0.07,0.03,0.13,0.07,0.2,0.1c0.52,0.25,1.14,0.51,1.85,0.71
			c0.08,0.02,0.16,0.04,0.23,0.06c1.09,0.28,2.39,0.43,3.83,0.26c0.25-0.04,0.49-0.09,0.74-0.11c0.05-0.01,0.1-0.02,0.15-0.03
			c0.21-0.06,0.38-0.2,0.56-0.3c-0.05-0.06-0.1-0.12-0.15-0.19c-0.12-0.16-0.08-0.49,0.11-0.63c0.2-0.15,0.41-0.23,0.65-0.29
			c0.22-0.06,0.45-0.1,0.67-0.18c0.17-0.06,0.36-0.07,0.55-0.09c0.11-0.01,0.22,0.02,0.34,0.03c-0.01-0.13,0.07-0.22,0.16-0.31
			c0.08-0.08,0.15-0.16,0.23-0.23C21.38,25.86,21.18,25.96,20.97,26.04z"/>
		<path class="st5" d="M27.72,25.18c0,0-0.01,0.01,0,0.02c0.01,0.02,0.02,0.04,0.02,0.06c0,0.02-0.01,0.05-0.03,0.06
			c-0.02,0.02-0.04,0.02-0.07,0.02c-0.02,0-0.05-0.01-0.06-0.03c-0.02-0.02-0.02-0.04-0.02-0.07c0-0.02,0.01-0.04,0.03-0.06
			c0,0,0.01-0.01,0-0.02c0-0.01-0.01-0.01-0.02,0c-0.04,0.02-0.07,0.07-0.07,0.12c-0.01,0.08,0.06,0.15,0.14,0.16
			c0.02,0,0.05,0,0.07-0.01c0.05-0.02,0.09-0.07,0.09-0.13c0-0.05-0.02-0.09-0.05-0.13C27.73,25.18,27.72,25.18,27.72,25.18z"/>
		<path class="st5" d="M28.83,24.76c0,0-0.01,0.01,0,0.02c0.01,0.02,0.02,0.04,0.02,0.06c0,0.05-0.05,0.09-0.1,0.09
			c-0.02,0-0.05-0.01-0.06-0.03c-0.02-0.02-0.02-0.04-0.02-0.07c0-0.02,0.01-0.04,0.03-0.06c0,0,0.01-0.01,0-0.02
			c0-0.01-0.01-0.01-0.02,0c-0.04,0.02-0.07,0.07-0.07,0.12c0,0.04,0.01,0.08,0.04,0.11c0.03,0.03,0.06,0.05,0.1,0.05
			c0.02,0,0.05,0,0.07-0.01c0.05-0.02,0.09-0.07,0.09-0.13c0-0.05-0.02-0.09-0.05-0.13C28.84,24.75,28.83,24.75,28.83,24.76z"/>
		<path class="st5" d="M30.05,24.29c-0.01,0-0.01,0-0.02,0c0,0-0.01,0.01,0,0.02c0.01,0.02,0.02,0.04,0.02,0.06
			c0,0.02-0.01,0.05-0.03,0.06c-0.02,0.02-0.04,0.02-0.07,0.02c-0.02,0-0.05-0.01-0.06-0.03c-0.02-0.02-0.02-0.04-0.02-0.07
			c0-0.02,0.01-0.04,0.03-0.06c0,0,0.01-0.01,0-0.02c0-0.01-0.01-0.01-0.02,0c-0.04,0.02-0.07,0.07-0.07,0.12
			c0,0.04,0.01,0.08,0.04,0.11c0.03,0.03,0.06,0.05,0.1,0.05c0.02,0,0.05,0,0.07-0.01c0.05-0.02,0.09-0.07,0.09-0.13
			C30.1,24.37,30.08,24.32,30.05,24.29z"/>
		<path class="st5" d="M27.56,20.55c-0.01,0-0.01,0-0.02,0c0,0-0.01,0.01,0,0.02c0.01,0.02,0.02,0.04,0.02,0.06
			c0,0.02-0.01,0.05-0.03,0.06c-0.02,0.02-0.04,0.02-0.07,0.02c-0.02,0-0.05-0.01-0.06-0.03c-0.02-0.02-0.02-0.04-0.02-0.07
			c0-0.02,0.01-0.04,0.03-0.06c0,0,0.01-0.01,0-0.02c0-0.01-0.01-0.01-0.02,0c-0.04,0.02-0.07,0.07-0.07,0.12
			c0,0.04,0.01,0.08,0.04,0.11c0.03,0.03,0.06,0.05,0.1,0.05c0.02,0,0.05,0,0.07-0.01c0.05-0.02,0.09-0.07,0.09-0.13
			C27.62,20.63,27.6,20.58,27.56,20.55z"/>
		<path class="st5" d="M28.21,21.22c-0.01,0-0.01,0-0.02,0c0,0-0.01,0.01,0,0.02c0.01,0.02,0.02,0.04,0.02,0.06
			c0,0.02-0.01,0.05-0.03,0.06c-0.02,0.02-0.04,0.02-0.07,0.02c-0.02,0-0.05-0.01-0.06-0.03c-0.02-0.02-0.02-0.04-0.02-0.07
			c0-0.02,0.01-0.04,0.03-0.06c0,0,0.01-0.01,0-0.02c0-0.01-0.01-0.01-0.02,0c-0.04,0.02-0.07,0.07-0.07,0.12
			c0,0.04,0.01,0.08,0.04,0.11c0.03,0.03,0.06,0.05,0.1,0.05c0.02,0,0.05,0,0.07-0.01c0.05-0.02,0.09-0.07,0.09-0.13
			C28.27,21.3,28.25,21.25,28.21,21.22z"/>
		<path class="st5" d="M28.84,22.08c-0.01,0-0.01,0-0.02,0c0,0-0.01,0.01,0,0.02c0.01,0.02,0.02,0.04,0.02,0.06
			c0,0.02-0.01,0.05-0.03,0.06c-0.02,0.02-0.04,0.02-0.07,0.02c-0.02,0-0.05-0.01-0.06-0.03c-0.02-0.02-0.02-0.04-0.02-0.07
			c0-0.02,0.01-0.04,0.03-0.06c0,0,0.01-0.01,0-0.02c0-0.01-0.01-0.01-0.02,0c-0.04,0.02-0.07,0.07-0.07,0.12
			c0,0.04,0.01,0.08,0.04,0.11c0.03,0.03,0.06,0.05,0.1,0.05c0.02,0,0.05,0,0.07-0.01c0.05-0.02,0.09-0.07,0.09-0.13
			C28.89,22.16,28.87,22.11,28.84,22.08z"/>
		<path class="st5" d="M29.49,23.07c-0.01,0-0.01,0-0.02,0c0,0-0.01,0.01,0,0.02c0.01,0.02,0.02,0.04,0.02,0.06
			c0,0.02-0.01,0.05-0.03,0.06c-0.02,0.02-0.04,0.02-0.07,0.02c-0.02,0-0.05-0.01-0.06-0.03c-0.02-0.02-0.02-0.04-0.02-0.07
			c0-0.02,0.01-0.04,0.03-0.06c0,0,0.01-0.01,0-0.02c0-0.01-0.01-0.01-0.02,0c-0.04,0.02-0.07,0.07-0.07,0.12
			c0,0.04,0.01,0.08,0.04,0.11c0.03,0.03,0.06,0.05,0.1,0.05c0.02,0,0.05,0,0.07-0.01c0.05-0.02,0.09-0.07,0.09-0.13
			C29.55,23.15,29.53,23.1,29.49,23.07z"/>
		<path class="st5" d="M30.6,25.47c-0.01,0-0.01,0-0.02,0c0,0-0.01,0.01,0,0.02c0.01,0.02,0.02,0.04,0.02,0.06
			c0,0.02-0.01,0.05-0.03,0.06c-0.02,0.02-0.04,0.02-0.07,0.02c-0.02,0-0.05-0.01-0.06-0.03c-0.02-0.02-0.02-0.04-0.02-0.07
			c0-0.02,0.01-0.04,0.03-0.06c0,0,0.01-0.01,0-0.02c0-0.01-0.01-0.01-0.02,0c-0.04,0.02-0.07,0.07-0.07,0.12
			c0,0.04,0.01,0.08,0.04,0.11c0.03,0.03,0.06,0.05,0.1,0.05c0.02,0,0.05,0,0.07-0.01c0.05-0.02,0.09-0.07,0.09-0.13
			C30.65,25.55,30.64,25.5,30.6,25.47z"/>
		<path class="st5" d="M31.09,26.83c-0.01,0-0.01,0-0.02,0c0,0-0.01,0.01,0,0.02c0.01,0.02,0.02,0.04,0.02,0.06
			c0,0.02-0.01,0.05-0.03,0.06C31.04,27,31.01,27,30.99,27c-0.02,0-0.05-0.01-0.06-0.03c-0.02-0.02-0.02-0.04-0.02-0.07
			c0-0.02,0.01-0.04,0.03-0.06c0,0,0.01-0.01,0-0.02c0-0.01-0.01-0.01-0.02,0c-0.04,0.02-0.07,0.07-0.07,0.12
			c0,0.04,0.01,0.08,0.04,0.11c0.03,0.03,0.06,0.05,0.1,0.05c0.02,0,0.05,0,0.07-0.01c0.05-0.02,0.09-0.07,0.09-0.13
			C31.14,26.91,31.12,26.87,31.09,26.83z"/>
		<path class="st5" d="M31.48,28.32c0,0-0.01,0-0.02,0c0,0-0.01,0.01,0,0.02c0.01,0.02,0.02,0.04,0.02,0.06
			c0,0.02-0.01,0.05-0.03,0.06c-0.02,0.02-0.04,0.02-0.07,0.02c-0.02,0-0.05-0.01-0.06-0.03c-0.02-0.02-0.02-0.04-0.02-0.07
			c0-0.02,0.01-0.04,0.03-0.06c0,0,0.01-0.01,0-0.02c0-0.01-0.01-0.01-0.02,0c-0.04,0.02-0.07,0.07-0.07,0.12
			c0,0.04,0.01,0.08,0.04,0.11c0.03,0.03,0.06,0.05,0.1,0.05c0.02,0,0.05,0,0.07-0.01c0.05-0.02,0.09-0.07,0.09-0.13
			C31.53,28.4,31.51,28.35,31.48,28.32z"/>
		<path class="st5" d="M31.78,29.85c-0.01,0-0.01,0-0.02,0c0,0-0.01,0.01,0,0.02c0.01,0.02,0.02,0.04,0.02,0.06
			c0,0.02-0.01,0.05-0.03,0.06c-0.02,0.02-0.04,0.02-0.07,0.02c-0.02,0-0.05-0.01-0.06-0.03c-0.02-0.02-0.02-0.04-0.02-0.07
			c0-0.02,0.01-0.04,0.03-0.06c0,0,0.01-0.01,0-0.02c0-0.01-0.01-0.01-0.02,0c-0.04,0.02-0.07,0.07-0.07,0.12
			c0,0.04,0.01,0.08,0.04,0.11c0.03,0.03,0.06,0.05,0.1,0.05c0.02,0,0.05,0,0.07-0.01c0.05-0.02,0.09-0.07,0.09-0.13
			C31.84,29.93,31.82,29.88,31.78,29.85z"/>
		<path class="st5" d="M31.97,31.48c-0.01,0-0.01,0-0.02,0c0,0-0.01,0.01,0,0.02c0.01,0.02,0.02,0.04,0.02,0.06
			c0,0.02-0.01,0.05-0.03,0.06c-0.02,0.02-0.04,0.02-0.07,0.02c-0.02,0-0.05-0.01-0.06-0.03c-0.02-0.02-0.02-0.04-0.02-0.07
			c0-0.02,0.01-0.04,0.03-0.06c0,0,0.01-0.01,0-0.02c0-0.01-0.01-0.01-0.02,0c-0.04,0.02-0.07,0.07-0.07,0.12
			c0,0.04,0.01,0.08,0.04,0.11c0.03,0.03,0.06,0.05,0.1,0.05c0.02,0,0.05,0,0.07-0.01c0.05-0.02,0.09-0.07,0.09-0.13
			C32.03,31.56,32.01,31.51,31.97,31.48z"/>
		<path class="st5" d="M31.95,33.55c-0.01,0-0.01,0-0.02,0c0,0-0.01,0.01,0,0.02c0.01,0.02,0.02,0.04,0.02,0.06
			c0,0.02-0.01,0.05-0.03,0.06c-0.02,0.02-0.04,0.02-0.07,0.02c-0.02,0-0.05-0.01-0.06-0.03c-0.02-0.02-0.02-0.04-0.02-0.07
			c0-0.02,0.01-0.04,0.03-0.06c0,0,0.01-0.01,0-0.02s-0.01-0.01-0.02,0c-0.04,0.02-0.07,0.07-0.07,0.12c0,0.04,0.01,0.08,0.04,0.11
			c0.03,0.03,0.06,0.05,0.1,0.05c0.02,0,0.05,0,0.07-0.01c0.05-0.02,0.09-0.07,0.09-0.13C32.01,33.63,31.99,33.58,31.95,33.55z"/>
		<path class="st5" d="M23.22,29.35c0,0-0.01-0.01-0.02,0c-0.01,0-0.01,0.01,0,0.02c0.01,0.02,0.02,0.04,0.01,0.07
			c-0.01,0.02-0.02,0.05-0.04,0.06c-0.02,0.01-0.05,0.02-0.07,0.01c-0.02-0.01-0.05-0.02-0.06-0.04c-0.01-0.02-0.02-0.05-0.01-0.07
			c0-0.02,0.02-0.04,0.04-0.06c0.01,0,0.01-0.01,0-0.02c0-0.01-0.01-0.01-0.02-0.01c-0.04,0.02-0.08,0.06-0.09,0.11
			c-0.01,0.04,0,0.08,0.02,0.11c0.02,0.03,0.06,0.06,0.09,0.06c0.02,0,0.05,0,0.07,0c0.05-0.01,0.09-0.06,0.11-0.11
			C23.27,29.43,23.26,29.38,23.22,29.35z"/>
		<path class="st5" d="M23.54,30.76c0,0-0.01-0.01-0.02,0c-0.01,0-0.01,0.01,0,0.02c0.01,0.02,0.02,0.04,0.01,0.07
			c-0.01,0.02-0.02,0.05-0.04,0.06c-0.02,0.01-0.05,0.02-0.07,0.01c-0.02-0.01-0.05-0.02-0.06-0.04c-0.01-0.02-0.02-0.05-0.01-0.07
			c0-0.02,0.02-0.04,0.04-0.06c0.01,0,0.01-0.01,0-0.02c0-0.01-0.01-0.01-0.02-0.01c-0.04,0.02-0.08,0.06-0.09,0.11
			c-0.01,0.04,0,0.08,0.02,0.11C23.33,30.97,23.36,31,23.4,31c0.02,0,0.05,0,0.07,0c0.05-0.01,0.09-0.06,0.11-0.11
			C23.58,30.84,23.57,30.79,23.54,30.76z"/>
		<path class="st5" d="M23.74,32.28c0,0-0.01-0.01-0.02,0c-0.01,0-0.01,0.01,0,0.02c0.01,0.02,0.02,0.04,0.01,0.07
			c-0.01,0.02-0.02,0.05-0.04,0.06c-0.02,0.01-0.05,0.02-0.07,0.01c-0.02-0.01-0.05-0.02-0.06-0.04c-0.01-0.02-0.02-0.05-0.01-0.07
			c0-0.02,0.02-0.04,0.04-0.06c0.01,0,0.01-0.01,0-0.02c0-0.01-0.01-0.01-0.02-0.01c-0.04,0.02-0.08,0.06-0.09,0.11
			c-0.01,0.04,0,0.08,0.02,0.11c0.02,0.03,0.06,0.06,0.09,0.06c0.02,0,0.05,0,0.07,0c0.05-0.01,0.09-0.06,0.11-0.11
			C23.79,32.36,23.77,32.31,23.74,32.28z"/>
		<path class="st5" d="M23.85,33.84c0,0-0.01-0.01-0.02,0c-0.01,0-0.01,0.01,0,0.02c0.01,0.02,0.02,0.04,0.01,0.07
			c-0.01,0.02-0.02,0.05-0.04,0.06c-0.02,0.01-0.05,0.02-0.07,0.01c-0.02-0.01-0.05-0.02-0.06-0.04c-0.01-0.02-0.02-0.05-0.01-0.07
			c0-0.02,0.02-0.04,0.04-0.06c0.01,0,0.01-0.01,0-0.02c0-0.01-0.01-0.01-0.02-0.01c-0.04,0.02-0.08,0.06-0.09,0.11
			c-0.01,0.04,0,0.08,0.02,0.11c0.02,0.03,0.06,0.06,0.09,0.06c0.02,0,0.05,0,0.07,0c0.05-0.01,0.09-0.06,0.11-0.11
			C23.89,33.92,23.88,33.87,23.85,33.84z"/>
		<path class="st5" d="M23.83,35.48c0,0-0.01-0.01-0.02,0c-0.01,0-0.01,0.01,0,0.02c0.01,0.02,0.02,0.04,0.01,0.07
			c-0.01,0.02-0.02,0.05-0.04,0.06c-0.02,0.01-0.05,0.02-0.07,0.01c-0.02-0.01-0.05-0.02-0.06-0.04c-0.01-0.02-0.02-0.05-0.01-0.07
			c0-0.02,0.02-0.04,0.04-0.06c0.01,0,0.01-0.01,0-0.02c0-0.01-0.01-0.01-0.02-0.01c-0.04,0.02-0.08,0.06-0.09,0.11
			c-0.01,0.04,0,0.08,0.02,0.11c0.02,0.03,0.06,0.06,0.09,0.06c0.02,0,0.05,0,0.07,0c0.05-0.01,0.09-0.06,0.11-0.11
			C23.88,35.56,23.86,35.52,23.83,35.48z"/>
		<path class="st5" d="M23.55,37.53c0,0-0.01-0.01-0.02,0c-0.01,0-0.01,0.01,0,0.02c0.01,0.02,0.02,0.04,0.01,0.07
			c-0.01,0.02-0.02,0.05-0.04,0.06c-0.02,0.01-0.05,0.02-0.07,0.01c-0.02-0.01-0.05-0.02-0.06-0.04c-0.01-0.02-0.02-0.05-0.01-0.07
			c0-0.02,0.02-0.04,0.04-0.06c0.01,0,0.01-0.01,0-0.02c0-0.01-0.01-0.01-0.02-0.01c-0.04,0.02-0.08,0.06-0.09,0.11
			c-0.01,0.04,0,0.08,0.02,0.11c0.02,0.03,0.06,0.06,0.09,0.06c0.02,0,0.05,0,0.07,0c0.05-0.01,0.09-0.06,0.11-0.11
			C23.6,37.61,23.58,37.56,23.55,37.53z"/>
		<path class="st5" d="M15.58,17.08c0,0,0.44,0.94,1.17,1.39c0.74,0.45,0.84,0.5,0.84,0.5s-0.55-0.15-0.96-0.38
			c-0.41-0.23-0.77-0.64-0.77-0.64"/>
		<path class="st6" d="M17.38,12.7c-1.28-0.2-0.34-0.97-0.28-1.02c-0.26,0.17-0.49,0.37-0.7,0.6c-0.18,0.19-0.31,0.36-0.41,0.52
			c0.04-0.01,0.09-0.02,0.13-0.03C16.53,12.7,16.94,12.68,17.38,12.7C17.38,12.7,17.38,12.7,17.38,12.7z"/>
		<path class="st6" d="M22.74,13.46c-0.19-0.33-0.36-0.58-0.55-0.79c-0.2-0.22-0.38-0.42-0.58-0.59c-0.22-0.2-0.47-0.37-0.73-0.51
			c1.17,0.75,0.48,1.96-0.39,1.5c-0.87-0.46-1.51-0.09-1.51-0.09s0,0,0,0c0.27,0.08,0.55,0.17,0.84,0.28
			c0.78,0.3,1.54,0.67,2.26,1.1c0.3,0.18,0.6,0.38,0.88,0.56c0.1,0.07,0.21,0.14,0.31,0.2c0.02,0.01,0.04,0.03,0.07,0.04
			c0.02-0.04,0.05-0.07,0.07-0.1c-0.02-0.06-0.04-0.13-0.06-0.19c-0.05-0.15-0.1-0.3-0.15-0.44C23.08,14.11,22.92,13.78,22.74,13.46
			z"/>
		<path class="st6" d="M24.17,12.01c-0.16-0.21-0.36-0.41-0.57-0.58c-0.13-0.11-0.27-0.21-0.42-0.3c1.33,1.09,0.34,1.79-0.04,1.21
			c-0.38-0.57-0.94-0.54-0.94-0.54l0,0c0.04,0.04,0.08,0.08,0.12,0.12c0.21,0.22,0.41,0.45,0.58,0.7c0.23,0.33,0.42,0.64,0.56,0.94
			c0.06,0.14,0.13,0.28,0.19,0.42l0.05,0.12c0.1,0.23,0.19,0.49,0.27,0.79c0.07-0.01,0.14-0.01,0.22-0.02c0.03,0,0.06,0,0.09,0
			c0.12-0.01,0.28-0.02,0.43,0.07c0.09,0.05,0.16,0.1,0.22,0.17c0.01-0.1,0.01-0.21,0.02-0.32c0.02-0.38-0.01-0.78-0.09-1.21
			c-0.04-0.21-0.1-0.43-0.2-0.71C24.55,12.58,24.39,12.29,24.17,12.01z"/>
		<path class="st5" d="M23.35,14.88c-0.05-0.15-0.1-0.3-0.15-0.44c-0.12-0.33-0.28-0.65-0.46-0.97c-0.08-0.14-0.16-0.26-0.23-0.38
			c0.33,0.56,0.55,1.22,0.39,1.46c-0.16,0.24-0.75-0.14-0.75-0.14l0,0c0.28,0.17,0.55,0.35,0.82,0.53c0.1,0.07,0.21,0.14,0.31,0.2
			c0.02,0.01,0.04,0.03,0.07,0.04c0.02-0.04,0.05-0.07,0.07-0.1C23.39,15,23.37,14.94,23.35,14.88z"/>
		<g>
			<path class="st5" d="M24.77,13.22c0.16,0.69-0.14,1.14-0.54,1.14c-0.33,0-0.63-0.48-0.77-0.76c0.06,0.13,0.12,0.26,0.17,0.38
				l0.05,0.12c0.1,0.23,0.19,0.49,0.27,0.79c0.07-0.01,0.14-0.01,0.22-0.02c0.03,0,0.06,0,0.09,0c0.12-0.01,0.28-0.02,0.43,0.07
				c0.09,0.05,0.16,0.1,0.22,0.17c0.01-0.1,0.01-0.21,0.02-0.32c0.02-0.38-0.01-0.78-0.09-1.21C24.84,13.47,24.81,13.35,24.77,13.22
				z"/>
			<polygon class="st5" points="23.37,13.41 23.37,13.41 23.37,13.41 			"/>
			<path class="st5" d="M24.64,12.82c-0.01-0.03-0.03-0.07-0.04-0.1C24.61,12.75,24.62,12.79,24.64,12.82z"/>
		</g>
		<path class="st0" d="M22.51,20.56c-0.08,0.03-0.17,0.06-0.25,0.09c0.18-0.06,0.29-0.1,0.29-0.1
			C22.52,20.56,22.52,20.56,22.51,20.56z"/>
		<path class="st0" d="M18.81,20.81c0.01,0,0.01,0,0.02,0C18.82,20.81,18.81,20.81,18.81,20.81z"/>
		<path class="st0" d="M22.26,20.65c-0.43,0.13-1.29,0.35-2.29,0.31c-0.37-0.01-0.76-0.06-1.15-0.16c-0.01,0-0.01,0-0.02,0
			c-0.01,0-0.02,0-0.03-0.01c-1.93-0.5-2.67-1.45-2.67-1.45c-0.21,0.44-0.51,0.84-0.64,1.31c0.09-0.03,0.17-0.05,0.25-0.08
			c0.07-0.03,0.14-0.02,0.21,0.01c0.08,0.04,0.16,0.07,0.24,0.1c0.24,0.09,0.49,0.17,0.73,0.26c0.12,0.04,0.23,0.11,0.34,0.15
			c0.17,0.07,0.34,0.14,0.5,0.21c0.19,0.08,0.39,0.16,0.58,0.24c0.26,0.12,0.51,0.24,0.76,0.36c0.09,0.04,0.11,0.09,0.08,0.19
			c-0.06,0.17-0.12,0.34-0.17,0.51c-0.02,0.05-0.01,0.1-0.03,0.15c-0.11,0.31-0.23,0.62-0.39,0.92c-0.1,0.17-0.18,0.35-0.27,0.53
			c-0.01,0.03-0.04,0.05-0.07,0.07c-0.1,0.05-0.2,0.1-0.31,0.15c0.06,0.14,0.11,0.3,0.19,0.43c0.16,0.27,0.39,0.48,0.64,0.65
			c0.3,0.21,0.64,0.32,1,0.39c0.17,0.04,0.34,0.07,0.51,0.09c0.11,0.01,0.23,0,0.33-0.02c0.11-0.03,0.22-0.08,0.33-0.13
			c0.26-0.11,0.52-0.22,0.77-0.33c-0.06-0.04-0.13-0.08-0.19-0.14c-0.06-0.06-0.1-0.13-0.15-0.19c-0.18-0.23-0.23-0.51-0.26-0.8
			c-0.02-0.17-0.01-0.33-0.02-0.5c0-0.23,0.03-0.47,0.09-0.69c0.11-0.46,0.31-0.89,0.52-1.31c0.02-0.05,0.04-0.1,0.07-0.14
			c0.24-0.37,0.49-0.74,0.74-1.1c0.01-0.02,0.03-0.04,0.05-0.07C22.55,20.55,22.44,20.6,22.26,20.65z"/>
		<path class="st0" d="M23.21,20.03c0.17-0.14,0.36-0.4,0.25-0.82c-0.11,0.09-0.21,0.18-0.33,0.25c-0.19,0.11-0.38,0.2-0.58,0.29
			c-0.38,0.16-0.76,0.3-1.16,0.4c-0.41,0.1-0.82,0.17-1.24,0.19c-0.6,0.04-1.2-0.02-1.78-0.2c-0.52-0.16-1-0.4-1.44-0.72
			c-0.12-0.08-0.23-0.18-0.34-0.27c-0.15-0.14-0.29-0.28-0.44-0.42c-0.01,0.05-0.02,0.11-0.03,0.16c-0.03,0.1,0,0.18,0.05,0.25l0,0
			c0,0,0,0,0,0c0,0,0.01,0.01,0.02,0.02c0.12,0.14,0.84,0.91,2.18,1.34c0.11,0.04,0.23,0.08,0.35,0.11
			c0.14,0.03,0.27,0.06,0.41,0.08c0.01,0,0.02,0,0.03,0c0.05,0.01,0.1,0.02,0.15,0.02c0.01,0,0.02,0,0.03,0c0,0,0,0,0,0
			c0.99,0.14,1.87,0.02,2.54-0.16c0.53-0.14,0.93-0.31,1.12-0.4v0c0,0,0.03-0.01,0.07-0.03c0.04-0.02,0.06-0.03,0.06-0.03
			s0,0,0-0.01c0,0,0,0,0.01,0C23.17,20.06,23.19,20.05,23.21,20.03z"/>
		<path class="st6" d="M23.72,17.51c-0.02,0.02-0.44,0.29-0.44,0.29l-0.35,0.34c0,0-0.62,0.92-1.84,1.04
			c-1.22,0.12-2.7-0.05-2.7-0.05l0,0c0,0,1.12,0.94,3.42,0.45c0.83-0.25,1.62-0.73,2.11-1.62C24.72,16.49,23.73,17.49,23.72,17.51z"
			/>
		<g>
			<path class="st5" d="M24.84,16.29c0,0-0.25,0.28-0.64,0.3c-0.39,0.02-0.48,0.1-0.48,0.1l-0.13-0.01l-0.19-0.43
				c0,0,0.06,0.85-0.23,1.46c-0.13,0.27-0.26,0.46-0.36,0.59c0.26-0.24,0.66-0.57,0.87-0.5c0.21,0.07,0.11,0.33,0.01,0.52
				C23.98,17.85,24.75,16.63,24.84,16.29z"/>
		</g>
		<path class="st6" d="M14.4,19.56c-0.29,0.3-0.12,1.12-0.26,0.71C14,19.85,14.11,19.7,13.6,20c-0.5,0.3-0.58,0.43-0.95,0.97
			c-0.33,0.47-0.65,1.17-0.74,1.37c0.22-0.14,0.45-0.27,0.7-0.39c0.73-0.36,1.59-0.69,1.85-0.79c0.01-0.04,0.02-0.09,0.03-0.13
			c0.09-0.37,0.24-0.72,0.37-1.08c0.12-0.33,0.29-0.63,0.51-0.9C15.22,19.1,14.64,19.3,14.4,19.56z"/>
		<path class="st5" d="M13.24,21.72c-0.01-0.01,0.17-0.44,0.34-0.76c0.17-0.32,0.22-0.19,0.24,0.04c0.01,0.22,0.29,0.22,0.46-0.22
			c0.16-0.44,0.21-0.9,0.28-0.56c0.06,0.33,0.21,0.17,0.22,0.15c0.01-0.02-0.12,0.55-0.13,0.64c-0.02,0.09-0.12,0.28-0.12,0.28"/>
		<path class="st6" d="M22.64,28.3c-0.13-0.18-0.26-0.37-0.39-0.55c-0.08-0.12-0.16-0.23-0.24-0.35l-0.22,0.14l0,0
			c-0.07,0.03-0.15,0.08-0.27,0.16c-0.35,0.24-0.18,0.12-0.57-0.24c-0.39-0.37-0.1-0.05,0.39,0.66c0.49,0.7,0.17,0.33-0.19,0.03
			c-0.37-0.3-0.48-0.2-1.17,0.23c-0.44,0.28-0.84,0.6-1.08,0.81c0.01,0.02,0.01,0.04,0.01,0.06c0,0.06,0.02,0.1,0.06,0.12
			c0.11-0.12,0.65-0.71,1.11-0.67c0.02,0,0.04,0.02,0.06,0.03c-0.01,0.02-0.02,0.04-0.03,0.06c-0.03,0.03-0.07,0.06-0.11,0.09
			c-0.24,0.18-0.48,0.35-0.69,0.55c-0.06,0.06-0.1,0.12-0.09,0.21c0,0.09,0.06,0.15,0.11,0.21c0.13-0.12,0.48-0.44,0.73-0.6
			c0.31-0.19,0.39,0.02,0.39,0.02c-0.01,0.02-0.01,0.05-0.03,0.07c-0.12,0.11-0.24,0.22-0.36,0.34c-0.09,0.09-0.18,0.19-0.28,0.28
			c0,0.01,0,0.02-0.01,0.03c0.03,0,0.06,0.01,0.09,0.01c0.17,0.03,0.33,0.02,0.49-0.03c0.21-0.07,0.42-0.15,0.61-0.25
			c0.29-0.16,0.58-0.32,0.87-0.48c0.16-0.09,0.29-0.19,0.4-0.35c0.03-0.04,0.05-0.07,0.08-0.11c0,0,0.01-0.01,0.01-0.01
			c0.01-0.01,0.02-0.03,0.03-0.04c0,0,0,0,0.01-0.01c0.07-0.09,0.15-0.17,0.25-0.24l0,0c0.01,0,0.01-0.01,0.02-0.01
			c0.06-0.03,0.05-0.07,0.03-0.12C22.66,28.33,22.65,28.31,22.64,28.3z"/>
		<path class="st6" d="M20.02,26.99c-0.5,0.08-0.82,0.2-0.97,0.27c0.01,0.11,0.08,0.22,0.18,0.3c0.01,0.01,0.03,0,0.04,0
			c0.1-0.04,0.19-0.08,0.29-0.12c0.13-0.05,0.26-0.1,0.39-0.14c0.06-0.02,0.13-0.02,0.2-0.03c0,0.01,0.01,0.02,0.01,0.02
			c-0.02,0.02-0.05,0.05-0.07,0.06c-0.03,0.02-0.06,0.04-0.09,0.05c0,0,0,0,0,0c0.34-0.11,1.07-0.41,1.07-0.41
			S20.74,26.87,20.02,26.99z"/>
		<path class="st6" d="M20.56,27.81c0,0-0.48-0.06-0.99,0.12c-0.36,0.13-0.72,0.41-0.9,0.57c0.03,0.06,0.07,0.13,0.11,0.2
			c0.03-0.02,0.05-0.04,0.07-0.06c0.25-0.21,0.5-0.41,0.81-0.52c0.03-0.01,0.07-0.02,0.1-0.02c0.02,0,0.04,0.02,0.04,0.04
			c0,0.01-0.01,0.03-0.02,0.05c-0.02,0.02-0.05,0.04-0.07,0.06C19.99,28.03,20.56,27.81,20.56,27.81z"/>
		<g>
			<path class="st5" d="M20.35,28.57C20.36,28.57,20.36,28.57,20.35,28.57C20.35,28.57,20.35,28.58,20.35,28.57z"/>
			<path class="st5" d="M22.31,27.63l0.02,0.03C22.4,27.61,22.31,27.63,22.31,27.63z"/>
			<path class="st5" d="M22.33,27.66c-0.03,0.02-0.09,0.06-0.19,0.12c-0.34,0.19-0.47,0.29-0.55,0.28c-0.08-0.01-0.01-0.02,0.2,0.27
				c0.21,0.29,0.37,0.6-0.06,0.43c-0.43-0.17-0.48-0.42-0.83-0.35c-0.23,0.04-0.27,0.27-0.45,0.43c-0.17,0.17,0.03-0.01,0.42,0.11
				c0.39,0.12,0.2,0.49,0.72,0.27c0.52-0.22,0.47-0.44,0.7-0.64c0.24-0.19,0.35-0.29,0.35-0.29l-0.06-0.15L22.33,27.66z"/>
		</g>
		<path class="st6" d="M25.37,24.38C25.37,24.38,25.36,24.38,25.37,24.38C25.36,24.38,25.37,24.38,25.37,24.38z"/>
		<path class="st5" d="M23.67,27.02C23.66,27.01,23.66,27,23.66,27S23.66,27.01,23.67,27.02z"/>
		<path class="st6" d="M25.25,24.52c1.15,0.44-1.95,2.73-2.46,2.26c-0.51-0.47-0.95-0.57-0.95-0.57s0.23,0.11,0.5,0.43
			c0.27,0.32,0.75,1.21,0.86,1.62c0.11,0.4-0.34,0.45-0.34,0.45c0.17,0,0.32-0.02,0.46-0.1c0.22-0.11,0.44-0.22,0.66-0.34
			c0.09-0.05,0.17-0.1,0.26-0.15c0.37-0.18,0.72-0.4,1.03-0.67c0.21-0.17,0.39-0.37,0.57-0.57l0,0c0,0,0.67-0.68,0.8-0.9
			c0.01,0,0.01-0.01,0.01-0.01c0.05-0.09,0.11-0.18,0.15-0.28c0.05-0.14,0.07-0.28,0.08-0.42C26.6,23.98,25.25,24.52,25.25,24.52z"
			/>
		<path class="st5" d="M23.19,28.26c0.11,0.4-0.34,0.45-0.34,0.45c0.17,0,0.32-0.02,0.46-0.1c0.22-0.11,0.44-0.22,0.66-0.34
			c0.09-0.05,0.17-0.1,0.26-0.15c0.37-0.18,0.72-0.4,1.03-0.67c0.21-0.17,0.39-0.37,0.57-0.57l0,0c0,0,0.67-0.68,0.8-0.9
			c0.01,0,0.01-0.01,0.01-0.01c0.05-0.09,0.11-0.18,0.15-0.28c0.02-0.06,0.04-0.12,0.05-0.18c-0.03-0.69-0.71-0.78-0.71-0.78
			s0.17,0.17,0.07,0.59c-0.09,0.41-0.21,0.76-0.61,0.68c-0.4-0.08-0.83-0.01-0.39,0.06c0.44,0.07,0.69,0.31,0.69,0.31
			s-0.58-0.3-1.12,0.05c-0.55,0.35-0.59,0.77-1.05,1.13c-0.47,0.36-0.61-0.18-0.61-0.18c-0.07-0.25-0.19-0.46-0.33-0.61
			c-0.5-0.45-0.93-0.55-0.93-0.55s0.23,0.11,0.5,0.43C22.6,26.96,23.09,27.85,23.19,28.26z"/>
		<path class="st6" d="M24.98,24.19C25.03,24.16,25.01,24.15,24.98,24.19L24.98,24.19z"/>
		<path class="st6" d="M23.94,24.25c-0.18-0.01-0.35-0.03-0.5-0.06c0.26,0.22,0.74,0.21,0.74,0.21c-1,0.47-1.72-0.5-1.72-0.5
			c0.26,0.22,0.54,0.14,0.54,0.14h0c-0.46-0.22-0.64-0.6-0.53-1.06c-0.06,0.18-0.12,0.37-0.17,0.56c-0.02,0.07-0.04,0.14-0.05,0.2
			c-0.04,0.28-0.07,0.57-0.05,0.85c0.01,0.13,0,0.26,0.04,0.39c0.04,0.12,0.09,0.23,0.15,0.34c0.02-0.01,0.05-0.02,0.07-0.03
			c0.12-0.06,0.24-0.13,0.37-0.18c0.17-0.07,0.34-0.13,0.5-0.21c0.2-0.08,0.39-0.17,0.59-0.26c0.03-0.01,0.05-0.02,0.08-0.03
			c0,0.01,0.01,0.01,0.01,0.02c-0.03,0.03-0.07,0.07-0.1,0.1l0,0c0,0,0.97-0.45,1.06-0.55c0,0,0,0,0-0.01
			C24.89,24.21,24.63,24.28,23.94,24.25z"/>
		<path class="st5" d="M22.19,24.56c0,0,0.07,0.78,0.81,0.47c0.73-0.31,0.02,0.09-0.04,0.13c-0.06,0.04-0.18,0.15-0.36,0.22
			c-0.18,0.07-0.18,0.09-0.22,0.07c-0.04-0.02-0.04,0.01-0.09-0.09c-0.05-0.1-0.12-0.23-0.12-0.25c0-0.02,0-0.02,0-0.02"/>
		<path class="st6" d="M25.22,23.32c-0.13,0.06-0.27,0.13-0.4,0.18c-0.1,0.04-0.19,0.06-0.22,0.17c0,0.02-0.03,0.02-0.05,0.04
			c-0.01-0.02-0.03-0.04-0.02-0.06c0-0.06,0.01-0.12,0.03-0.18c0.01-0.04,0-0.06-0.03-0.08c-0.06-0.04-0.13-0.07-0.19-0.12
			c-0.2-0.16-0.4-0.32-0.59-0.48c-0.09-0.08-0.16-0.18-0.24-0.27c-0.06-0.07-0.13-0.14-0.19-0.21c-0.01,0.02-0.03,0.06-0.06,0.1
			c-0.06,0.1,0.15,0.28,0.28,0.4s0.71,0.8,0.71,0.8l0,0c0.09,0.05,0.18,0.1,0.26,0.15c0.01,0.01,0.04,0.01,0.05,0.01
			c0.1-0.04,0.2-0.08,0.3-0.12c0.12-0.05,0.25-0.12,0.37-0.17c0.24-0.09,0.45-0.23,0.68-0.35c0.02-0.01,0.03-0.05,0.03-0.07
			c-0.01-0.02-0.04-0.03-0.07-0.04c-0.02,0-0.04,0.01-0.06,0.02c-0.13,0.06-0.26,0.12-0.39,0.17
			C25.35,23.26,25.29,23.29,25.22,23.32z"/>
		<path class="st0" d="M25.94,23.07c-0.01-0.02-0.04-0.03-0.07-0.04c-0.02,0-0.04,0.01-0.06,0.02c-0.02,0.01-0.04,0.02-0.06,0.03
			c0.03,0.03,0.06,0.07,0.08,0.1c0.03-0.01,0.05-0.03,0.08-0.04C25.93,23.13,25.94,23.09,25.94,23.07z"/>
		<g>
			<path class="st0" d="M24.49,21.65c0-0.01,0-0.01,0.01-0.02c-0.03-0.01-0.06-0.04-0.09-0.03c-0.16,0.05-0.33,0.09-0.49,0.15
				c-0.1,0.04-0.19,0.1-0.28,0.15c-0.03,0.02-0.05,0.03-0.08,0.05C23.61,21.92,24.31,21.61,24.49,21.65z"/>
			<path class="st0" d="M25.77,22.89c-0.06-0.06-0.11-0.11-0.17-0.16c-0.05,0.02-0.09,0.04-0.13,0.06c0.05,0.05,0.12,0.12,0.18,0.19
				C25.69,22.95,25.73,22.92,25.77,22.89z"/>
		</g>
		<path class="st0" d="M25.34,22.46c-0.19-0.19-0.39-0.38-0.59-0.58c-0.02-0.02-0.04-0.04-0.06-0.03c-0.09,0-0.19-0.01-0.27,0.03
			c-0.09,0.04-0.18,0.09-0.27,0.15c0.01,0,0.41-0.15,0.51-0.09l0.01,0.01c0,0-0.01-0.01-0.01-0.01c0,0,0,0,0.01,0
			c0,0,0.01,0.01,0.01,0.01l-0.01,0c0.03,0.02,0.07,0.07,0.04,0.12c-0.04,0.08-0.53,0.21-0.21,0.14c0.32-0.06,0.36-0.07,0.44,0.02
			c0.08,0.09,0.06,0.07,0.03,0.13c-0.03,0.06,0.1,0.02,0.16,0.06c0.02,0.01,0.03,0.01,0.04,0.01c0.03,0.03,0.05,0.05,0.06,0.07
			c0.06,0.08,0.01,0.16-0.02,0.18c0.02-0.01,0.03-0.01,0.05-0.02c0.03-0.01,0.06-0.02,0.08-0.04c0.02-0.02,0.04-0.05,0.03-0.07
			C25.38,22.52,25.36,22.48,25.34,22.46z"/>
		<path class="st11" d="M16.24,13.38c0,0-0.65,0.97-0.29,2.6c0.36,1.64,0.92-0.08,2.64-0.82c1.71-0.74,2.82-0.71,1.41-1.18
			C18.59,13.51,16.56,13.12,16.24,13.38z"/>
		<path class="st0" d="M16.08,14.82c0,0,0.01-1.23,0.38-1.3c0.37-0.07,1.7,0.04,2.06,0.27c0.36,0.22-1.04-0.18-1.6,0.38
			C16.36,14.72,16.09,15.35,16.08,14.82z"/>
		<path class="st5" d="M19.02,18.54c0,0,0.79,0.32,2.08-0.1c1.3-0.41,1.45-0.96,1.61-1.63c0.16-0.68,0.08-0.49-0.5,0.1
			C21.64,17.5,21.21,18.38,19.02,18.54z"/>
		<path class="st6" d="M16.99,26.52c0.67,0.02,1.19-0.04,1.52-0.1c-0.01-0.01-0.01-0.01-0.01-0.01c-0.02-0.01-0.05-0.01-0.07-0.02
			c-0.28-0.1-0.54-0.24-0.76-0.43l0,0c0,0,0.18,0.24-0.18,0.08c-0.36-0.16-0.76-0.86-0.81-1.2c-0.05-0.34,0.29-0.22,0.3-0.21
			c0,0,0,0,0,0l-0.02-0.02c-0.02-0.01-0.04-0.02-0.07-0.03c-0.01,0-0.02-0.01-0.02-0.01c-0.53-0.19-1.07-0.37-1.6-0.56
			c0,0-0.01,0-0.01-0.01c-0.05-0.02-0.08-0.04-0.09-0.03c-0.04-0.02-0.08-0.04-0.13-0.05c0.01,0.01,0.01,0.02,0.02,0.02
			c-0.02-0.01-0.04-0.02-0.06-0.03C15.85,24.93,16.78,26.22,16.99,26.52z"/>
		<path class="st5" d="M16.62,24.48c0,0-0.51-0.18-0.5,0.26c0.01,0.44,0.39,1.12,0.39,1.12s-1.34-1.52-1.37-1.59
			c-0.02-0.06-0.3-0.5-0.3-0.5L16.62,24.48z"/>
		<path class="st5" d="M22.93,26.21c0,0,0.34-0.39,0.52-0.52c0.18-0.13,0.56-0.28,0.56-0.28s-0.3,0.31-0.52,0.45
			C23.28,26.01,22.93,26.21,22.93,26.21z"/>
		<path class="st5" d="M24.85,24.9c0,0,0.02,0.08-0.09,0.36c-0.1,0.28-0.17,0.38-0.17,0.38s0.25-0.11,0.38-0.37
			C25.1,25,24.85,24.9,24.85,24.9z"/>
		<path class="st12" d="M22.14,25.52c0,0-0.02-0.01-0.05-0.02c-0.03-0.02-0.08-0.05-0.14-0.09c-0.06-0.05-0.13-0.11-0.19-0.19
			c-0.03-0.04-0.06-0.09-0.1-0.14c-0.03-0.05-0.04-0.11-0.06-0.17c-0.04-0.12-0.06-0.26-0.08-0.4c-0.01-0.07-0.02-0.14-0.01-0.22
			c0-0.04,0-0.07,0-0.11l0-0.01l0-0.01l0-0.01l0-0.03l0-0.06c0-0.04,0-0.07,0.01-0.11c0-0.04,0.01-0.08,0.01-0.12
			c0.01-0.08,0.02-0.16,0.04-0.24c0.03-0.16,0.07-0.32,0.11-0.47c0.04-0.16,0.09-0.31,0.15-0.46c0.03-0.08,0.05-0.15,0.08-0.22
			c0.03-0.07,0.06-0.14,0.09-0.21c0.06-0.14,0.12-0.27,0.18-0.39c0.03-0.06,0.06-0.12,0.09-0.18c0.03-0.06,0.06-0.11,0.09-0.17
			c0.01-0.03,0.03-0.05,0.04-0.08c0.01-0.03,0.03-0.05,0.05-0.07c0.04-0.04,0.07-0.08,0.11-0.12c0.07-0.07,0.13-0.13,0.19-0.18
			c0.05-0.05,0.1-0.08,0.13-0.1c0.03-0.02,0.05-0.03,0.05-0.03s-0.01,0.02-0.03,0.05c-0.02,0.03-0.04,0.08-0.07,0.15
			c-0.03,0.06-0.06,0.14-0.1,0.23c-0.02,0.04-0.04,0.09-0.06,0.14c-0.01,0.03-0.02,0.05-0.04,0.07c-0.02,0.02-0.03,0.05-0.04,0.07
			c-0.03,0.05-0.06,0.1-0.09,0.16c-0.03,0.06-0.06,0.11-0.09,0.17c-0.06,0.12-0.12,0.25-0.18,0.38c-0.03,0.07-0.06,0.14-0.08,0.21
			c-0.03,0.07-0.06,0.14-0.08,0.21c-0.05,0.14-0.1,0.29-0.14,0.44c-0.04,0.15-0.08,0.3-0.11,0.45c-0.01,0.07-0.03,0.15-0.03,0.22
			c0,0.04-0.01,0.07-0.01,0.11c0,0.04,0,0.07-0.01,0.11l0,0.06l0,0.03l0,0.01l0,0c0-0.01,0,0,0,0l0,0l0,0.01c0,0.03,0,0.07,0,0.1
			c0,0.07,0.01,0.13,0.01,0.2c0.02,0.13,0.04,0.25,0.07,0.35c0.01,0.03,0.01,0.05,0.03,0.08c0.01,0.02,0.02,0.05,0.03,0.07
			c0.01,0.05,0.02,0.1,0.04,0.14c0.03,0.09,0.06,0.16,0.09,0.22C22.08,25.46,22.14,25.52,22.14,25.52z"/>
		<path class="st6" d="M22.26,20.65c-0.43,0.13-1.29,0.35-2.29,0.31c-0.37-0.01-0.76-0.06-1.15-0.16c-0.01,0-0.01,0-0.02,0
			c-0.01,0-0.02,0-0.03-0.01c-1.93-0.5-2.67-1.45-2.67-1.45c0.44,1.12,1.98,1.76,2.84,2.24c0.86,0.48,0.99,1.85,0.93,2.79
			c-0.02,0.28-0.15,0.47-0.32,0.6l1.24,0.17l-1.85,0.09l0,0c-0.26,0.05-0.47,0.05-0.47,0.05c0.09,0.08,0.18,0.15,0.27,0.21
			c0.3,0.21,0.64,0.32,1,0.39c0.17,0.04,0.34,0.07,0.51,0.09c0.11,0.01,0.23,0,0.33-0.02c0.11-0.03,0.22-0.08,0.33-0.13
			c0.26-0.11,0.52-0.22,0.77-0.33c-0.06-0.04-0.13-0.08-0.19-0.14c-0.06-0.06-0.1-0.13-0.15-0.19c-0.18-0.23-0.23-0.51-0.26-0.8
			c-0.02-0.17-0.01-0.33-0.02-0.5c0-0.23,0.03-0.47,0.09-0.69c0.11-0.46,0.31-0.89,0.52-1.31c0.02-0.05,0.04-0.1,0.07-0.14
			c0.24-0.37,0.49-0.74,0.74-1.1c0.01-0.02,0.03-0.04,0.05-0.07C22.55,20.55,22.44,20.6,22.26,20.65z"/>
		<path class="st5" d="M14.61,22.15c0,0,0.08-0.8,0.33-1.45c0.25-0.65,0.68-1.43,0.68-1.43l0.06,0.15c0,0-0.84,1.4-0.78,2.26"/>
		<path class="st5" d="M22.55,20.55c0,0-1.06,0.47-1.83,0.58c-0.77,0.11-1,0.14-1,0.14s0.39,0.21,1.17,0.07
			c0.78-0.13,1.01-0.03,0.83,0.45c-0.18,0.48,0.59-0.7,0.61-0.73s0.37-0.47,0.39-0.49C22.73,20.56,22.55,20.55,22.55,20.55z"/>
		<path class="st5" d="M35.35,29.92c-0.92,1.08-5.11,5.45-14.63,7.8C9.85,40.4,2.39,36.18,2.34,36.15c1.04,1.62,3.22,2.89,6.32,3.66
			c3.58,0.89,8.01,0.98,11.83,0.24c3.67-0.71,7.82-1.7,10.78-3.69C33.73,34.71,35.08,32.59,35.35,29.92z"/>
		<g>
			<g>
				<path class="st5" d="M40.8,22.12l-0.68,0.17l0,0c-0.47-0.26-1.02-0.37-1.63-0.33c-1.8,0.13-3.02,0.98-3.1,1.04
					c-0.13,0.09-2.46,1.68-1.98,3.3c0.47,1.61,3.06,2.48,4.96,2.16c0.59-0.1,1.1-0.24,1.53-0.42c0.63-0.27,1.09-0.62,1.41-1.07l0,0
					l0.85-0.24c0.03-0.01,0.05-0.02,0.07-0.03c0.6-0.26,0.79-1.38,0.43-2.62C42.26,22.79,41.45,21.93,40.8,22.12z"/>
				<path class="st3" d="M41.66,24.69c0.13,0.69,0.09,1.3-0.13,1.82l0.5-0.14c0.39-0.11,0.59-1.04,0.25-2.19
					c-0.34-1.15-1.01-1.82-1.4-1.71l-0.01,0l-0.37,0.09C41.08,23.03,41.48,23.75,41.66,24.69z"/>
				<path class="st3" d="M38.5,22.32c-0.81,0.06-1.5,0.28-2.01,0.49c-0.57,0.24-0.9,0.48-0.91,0.48l-0.01,0
					c-0.02,0.02-2.24,1.52-1.84,2.9c0.41,1.41,2.83,2.19,4.55,1.9c1.33-0.23,2.24-0.68,2.7-1.35c0.36-0.52,0.46-1.19,0.31-1.99
					C41.15,23.97,40.58,22.17,38.5,22.32z"/>
				<g>
					<path class="st0" d="M35.72,23.62L35.72,23.62c0.01-0.01,0.35-0.25,0.91-0.49c0.51-0.21,1.2-0.43,2.01-0.49
						c1.39-0.1,2.11,0.68,2.48,1.44c-0.31-0.84-1.02-1.88-2.61-1.77c-0.81,0.06-1.5,0.28-2.01,0.49c-0.57,0.24-0.9,0.48-0.91,0.48
						l-0.01,0c-0.02,0.02-2.24,1.52-1.84,2.9c0.03,0.12,0.08,0.23,0.14,0.33c0,0,0-0.01,0-0.01C33.48,25.14,35.7,23.63,35.72,23.62z
						"/>
				</g>
				<path class="st3" d="M38.52,22.52c-0.66,0.05-1.31,0.21-1.94,0.47c-0.54,0.23-0.86,0.46-0.87,0.46l-0.01,0.01
					c-0.59,0.4-2.06,1.65-1.76,2.67c0.38,1.28,2.69,2.03,4.32,1.76c1.27-0.22,2.14-0.64,2.57-1.27c0.33-0.47,0.42-1.09,0.28-1.83
					C40.93,23.89,40.36,22.39,38.52,22.52z"/>
				<path class="st6" d="M38.17,23.46c0,0,1.03-0.06,1.77,0.57c0.73,0.63,0.79,0.8,0.79,0.8S39.14,23.53,38.17,23.46z"/>
				<path class="st5" d="M40.62,25.56c-1.84,1.54-4.74,1.39-5.74,0.91c-1-0.48-0.61-1.43-0.61-1.43l-0.07-0.1
					c-0.24,0.39-0.38,0.81-0.27,1.19c0.38,1.28,2.69,2.03,4.32,1.76c1.27-0.22,2.14-0.64,2.57-1.27c0.28-0.41,0.39-0.92,0.32-1.53
					C41,25.24,40.82,25.4,40.62,25.56z"/>
				<path class="st5" d="M41.81,24.37c0.02,0.09,0.04,0.18,0.06,0.28c0.11,0.57,0.11,1.09-0.01,1.56l0.13-0.04
					c0.04-0.01,0.09-0.06,0.13-0.14c0.16-0.3,0.22-0.97-0.02-1.8c-0.02-0.07-0.04-0.13-0.06-0.19
					C41.96,24.16,41.88,24.27,41.81,24.37z"/>
				<path class="st6" d="M40.9,24.07c-0.32-0.81-0.98-1.65-2.38-1.55c-0.66,0.05-1.31,0.21-1.94,0.47
					c-0.54,0.23-0.86,0.46-0.87,0.46l-0.01,0.01c-0.48,0.32-1.52,1.2-1.75,2.06c0.02-0.03,0.91-1.61,2.1-1.46
					c1.2,0.15,2.37,0.83,2.37,0.83s-0.06-0.68-0.88-1.18C36.72,23.21,39.48,22.25,40.9,24.07z"/>
				<path class="st0" d="M40.89,22.47L40.89,22.47l-0.38,0.09c0.1,0.08,0.19,0.17,0.27,0.26c0.1-0.06,0.28-0.12,0.54-0.03
					c0.41,0.15,0.79,0.94,0.92,1.26C41.9,22.98,41.27,22.36,40.89,22.47z"/>
			</g>
			<path class="st0" d="M35.23,23.82c0.01-0.03,0.74-0.55,1.54-0.22c0,0-0.81-0.36-0.09-0.64c0,0-0.22-0.02-0.32,0.02
				c-0.1,0.04-0.18,0.08-0.38,0.18c-0.2,0.1-0.28,0.13-0.41,0.21c-0.12,0.07-0.27,0.23-0.27,0.23l-0.13,0.09"/>
			<g>
				<polyline class="st3" points="36.99,25.51 38.87,27.43 37.74,25.74 				"/>
				<path class="st5" d="M36.06,26.5c0,0,1.59,0.08,2.44-0.19c0.85-0.27,0.95-0.31,0.95-0.31s-1.4,0.16-2,0.27
					C36.86,26.38,36.06,26.5,36.06,26.5z"/>
				<polyline class="st5" points="38.49,26.86 37.39,25.19 38.92,26.8 				"/>
			</g>
		</g>
		<path class="st3" d="M18.34,28.01c0.05-0.01,0.1-0.02,0.15-0.03c0.21-0.06,0.38-0.2,0.56-0.3c-0.05-0.06-0.1-0.12-0.15-0.19
			c-0.05-0.06-0.07-0.15-0.07-0.25c-2.56,0.48-6.89,0.14-7.78-1.65c-0.93-1.88,1.09-3.17,1.18-3.23c-0.46,0.26-0.81,0.56-1.07,0.82
			c-0.26,0.28-0.62,0.79-0.76,1.54c-0.04,0.24-0.08,0.74,0.11,1.24c0.01,0.02,0.02,0.04,0.03,0.06c0.04,0.08,0.07,0.15,0.12,0.23
			c0.17,0.27,0.43,0.53,0.82,0.73c0.07,0.03,0.13,0.07,0.2,0.1c0.52,0.25,1.14,0.51,1.85,0.71c0.08,0.02,0.16,0.04,0.23,0.06
			c1.09,0.28,2.39,0.43,3.83,0.26C17.85,28.08,18.09,28.03,18.34,28.01z"/>
		<path class="st3" d="M23.7,19.47c0,0.01,0,0.02,0,0.03l0,0.04c0,0.01,0,0.02,0,0.03c0,0,0.53-0.05,1.14,0.1l0,0
			c0,0,2.31,0.27,1.66,3.56l0.18,0.23c0.01-0.02,0.01-0.04,0.02-0.07c0.11-0.33,0.29-1.07,0.1-1.99c-0.01-0.06-0.02-0.11-0.04-0.17
			C26.43,19.9,25.15,19.21,23.7,19.47z"/>
		<path class="st6" d="M24.83,19.68L24.83,19.68c0.08,0.02,0.16,0.04,0.24,0.07c0.37,0.15,0.72,0.42,0.96,0.87l0,0
			c0.06,0.12,0.1,0.25,0.14,0.38c0.08,0.28,0.1,0.56,0.11,0.84c0.01,0.33-0.04,0.66-0.11,0.98l0.33,0.41
			C27.15,19.95,24.83,19.68,24.83,19.68z"/>
		<path class="st0" d="M20.22,26.28c-0.21,0.06-0.42,0.09-0.63,0.15c-0.24,0.07-0.48,0.1-0.73,0.13c-0.35,0.09-1.73,0.36-3.67-0.05
			c-2.02-0.43-2.72-0.7-3.59-1.41c-0.25-0.2-0.41-0.42-0.46-0.65l0,0c0,0,0.33,1.93,3.34,2.44c1.62,0.28,3.13,0.25,4.46,0.03
			c0.02-0.03,0.04-0.05,0.07-0.07c0.2-0.15,0.41-0.23,0.65-0.29c0.22-0.06,0.45-0.1,0.67-0.18c0.17-0.06,0.36-0.07,0.55-0.09
			c0.11-0.01,0.22,0.02,0.34,0.03c-0.01-0.13,0.07-0.22,0.16-0.31c0.08-0.08,0.15-0.16,0.23-0.23c-0.21,0.08-0.42,0.18-0.63,0.26
			C20.72,26.13,20.47,26.21,20.22,26.28z"/>
		<path class="st0" d="M1.6,32.45c-0.28,0.77-0.38,1.53-0.21,2.27c0.21,0.93,0.75,1.78,1.58,2.53c0.37-0.54,0.49-1.49,0.26-2.5
			C2.96,33.53,2.28,32.61,1.6,32.45z"/>
		<path class="st0" d="M9.99,25.14c0-0.16,0.02-0.32,0.04-0.47c0.06-0.29,0.13-0.53,0.21-0.73c-0.9,0.56-2.81,1.82-4.62,3.4
			c-2.19,1.91-4.68,4.69-4.28,7.18l0.23,0.03c0,0,1.19-5.38,8.43-9.19C10,25.29,9.99,25.22,9.99,25.14z"/>
		<path class="st0" d="M32.94,22.03c-1.49-1.91-4.04-3.34-8.35-2.93c0.06,0,0.13,0.01,0.19,0.01c0.31,0.03,0.57,0.16,0.81,0.27
			C26.69,19.35,30.57,19.43,32.94,22.03z"/>
		<g>
			<g>
				<path class="st5" d="M3.15,29.39c-0.33-0.12-0.56-0.03-0.69,0.06c-0.77,0.54-0.68,1.79-0.68,1.85c0.01,0.08,0.06,0.14,0.14,0.14
					C2,31.45,2.07,31.4,2.09,31.33c0.04-0.16,0.22-0.63,0.52-0.82c0.05-0.04,0.13-0.02,0.19,0c0.46,0.18,1.23,1.18,1.85,3.44
					c0.07,0.27,0.14,0.53,0.2,0.76c0.37,1.53,0.24,2.56,0.18,2.83c-0.01,0.03-0.01,0.05-0.02,0.08c-0.04,0.19-0.08,0.31-0.08,0.33
					c-0.01,0.03-0.02,0.07-0.04,0.1c-0.05,0.15-0.12,0.24-0.22,0.26c-0.2,0.06-0.48-0.12-0.57-0.19c-0.06-0.05-0.14-0.04-0.2,0.01
					c-0.06,0.05-0.07,0.14-0.03,0.2c0.17,0.26,0.62,0.87,1.14,0.88c0.08,0,0.17-0.01,0.27-0.05c0.1-0.04,0.21-0.12,0.31-0.25
					c0.49-0.65,0.94-2.63,0.16-5.43C5.08,31.07,3.93,29.67,3.15,29.39z"/>
				<path class="st5" d="M9.68,31.02c-0.91-1.91-2.96-4.58-4.29-4.39c-0.52,0.07-0.85,0.54-0.99,1.38c-0.02,0.1,0.04,0.19,0.14,0.22
					c0.09,0.03,0.14-0.2,0.23-0.11c0,0,0.13-0.28,0.37-0.36c0.14-0.05,0.31-0.02,0.49,0.08c0.39,0.22,1.2,1.02,1.92,2.09
					c0.65,0.95,1.48,2.46,1.77,4.27c0.58,3.62,0.16,4.88-0.3,5.31c-0.24,0.22-0.56,0.29-0.98,0.19c-0.08-0.02-0.17,0.02-0.21,0.09
					C7.8,39.85,7.81,39.94,7.86,40c0.03,0.04,0.81,0.93,1.65,0.72c0.05-0.01,0.11-0.03,0.16-0.05c0.53-0.23,0.93-0.9,1.18-2.01
					c0,0,0,0,0-0.01C11.35,35.9,10.54,32.83,9.68,31.02z"/>
			</g>
			<path class="st6" d="M5.45,27.02c-0.19,0.03-0.35,0.16-0.46,0.39c0.01,0,0.02-0.01,0.03-0.01c0.25-0.09,0.52-0.05,0.81,0.11
				c0.85,0.47,3.35,3.23,3.89,6.63c0.49,3.08,0.36,4.93-0.42,5.65c-0.2,0.19-0.45,0.3-0.73,0.33c0.24,0.16,0.55,0.31,0.85,0.23
				c0.45-0.11,0.82-0.73,1.05-1.77c0.49-2.65-0.3-5.63-1.13-7.38C8.38,29.18,6.44,26.88,5.45,27.02z"/>
			<path class="st6" d="M3.05,29.68c-0.17-0.06-0.3-0.05-0.41,0.02c-0.27,0.19-0.41,0.5-0.48,0.8c0.08-0.1,0.17-0.19,0.28-0.26
				c0.09-0.06,0.24-0.11,0.47-0.03c0.56,0.21,1.39,1.28,2.04,3.65c0.08,0.27,0.14,0.53,0.2,0.77c0.39,1.59,0.24,2.67,0.19,2.96
				c-0.01,0.03-0.01,0.06-0.02,0.08c-0.05,0.22-0.09,0.35-0.09,0.36c0,0,0,0,0,0.01c-0.01,0.03-0.02,0.07-0.04,0.1
				c-0.08,0.25-0.23,0.41-0.42,0.46c-0.08,0.02-0.16,0.03-0.23,0.02c0.18,0.17,0.35,0.26,0.5,0.27c0.12,0,0.23-0.05,0.32-0.18
				c0.44-0.58,0.85-2.49,0.1-5.16C4.84,31.36,3.78,29.94,3.05,29.68z"/>
			<path class="st0" d="M5.46,33.57c-0.62-2.21-1.68-3.62-2.41-3.89c-0.17-0.06-0.3-0.05-0.41,0.02c-0.27,0.19-0.41,0.5-0.48,0.8
				c0,0,0.52-1.87,2.03,0.47c0.61,0.94,1.01,1.86,1.27,2.61C5.46,33.58,5.46,33.58,5.46,33.57z"/>
			<path class="st0" d="M5.45,27.02c-0.19,0.03-0.35,0.16-0.46,0.39c0,0,0.52-0.75,1.71,0.36c1.07,1,1.94,2.16,2.46,3.06
				C8.15,28.91,6.38,26.88,5.45,27.02z"/>
		</g>
		<g>
			<path class="st3" d="M5.53,27.19c0.13,0.03,0.25,0.08,0.38,0.15c0.88,0.49,3.43,3.3,3.98,6.76c0.51,3.19,0.36,5.04-0.47,5.81
				c-0.11,0.1-0.23,0.18-0.35,0.24c0.1,0.03,0.2,0.03,0.3,0.01c0.38-0.09,0.7-0.67,0.91-1.63c0.48-2.61-0.3-5.55-1.11-7.27
				C8.2,29.22,6.36,27.18,5.53,27.19z"/>
			<path class="st3" d="M2.99,29.85L2.99,29.85c-0.11-0.04-0.19-0.04-0.24,0C2.69,29.9,2.63,29.95,2.58,30
				c0.1-0.02,0.23-0.01,0.39,0.05c0.78,0.29,1.58,1.7,2.15,3.77c0.08,0.27,0.14,0.54,0.2,0.78c0.4,1.62,0.25,2.74,0.19,3.04
				C5.51,37.67,5.5,37.7,5.5,37.73c-0.05,0.22-0.09,0.36-0.09,0.37l0,0.01c-0.01,0.03-0.02,0.07-0.03,0.1
				c-0.09,0.27-0.24,0.42-0.38,0.51c0.02,0.01,0.04,0.01,0.05,0.01c0.03,0,0.09,0,0.17-0.11c0.35-0.46,0.83-2.29,0.07-5
				C4.69,31.49,3.66,30.09,2.99,29.85z"/>
		</g>
		<path class="st3" d="M24.55,35.76c0,0-0.19,1.81-0.68,2.78c0,0,0.91-1.64,1-3.11"/>
		<path class="st3" d="M32.48,31.97c0,0,0.02,1.82-0.36,2.84c0,0,0.71-1.73,0.64-3.2"/>
		<path class="st6" d="M10.16,31.37c0,0,1.49,3.67,0.83,5.79c-0.65,2.12-1.24-6.03-1.43-6.39c-0.19-0.36-0.37-0.93-0.37-0.93"/>
		<path class="st6" d="M5.47,31.68c0,0,1.61,2.85,0.61,5.97s-0.88-3.56-0.84-3.8c0.05-0.23-0.01-0.91-0.12-1.15
			c-0.11-0.24-0.25-0.55-0.28-0.59C4.82,32.07,5.47,31.68,5.47,31.68z"/>
		<path class="st5" d="M23.59,28.68c0.01,0.03,0.02,0.07,0.03,0.1c0.04,0.12,0.07,0.24,0.11,0.37c0.03,0.12,0.06,0.25,0.09,0.37
			c0.03,0.12,0.06,0.25,0.09,0.37l0.04,0.18l0.03,0.19c0.05,0.26,0.1,0.51,0.14,0.76c0.04,0.25,0.07,0.5,0.11,0.76l0.01,0.09
			l0.01,0.09c0.01,0.06,0.01,0.13,0.02,0.19c0.01,0.12,0.03,0.25,0.04,0.37c0.01,0.06,0.01,0.12,0.02,0.18
			c0,0.06,0.01,0.12,0.01,0.18c0.01,0.12,0.02,0.24,0.02,0.36c0.02,0.24,0.02,0.48,0.03,0.71c0,0.06,0,0.12,0,0.17l0,0.09l0,0.09
			c0,0.11,0,0.23,0,0.34c0,0.11,0,0.22-0.01,0.33c-0.01,0.11-0.01,0.21-0.02,0.32c-0.01,0.1-0.01,0.21-0.02,0.31
			c-0.01,0.1-0.02,0.2-0.02,0.3c-0.01,0.1-0.01,0.19-0.03,0.28c-0.01,0.09-0.02,0.18-0.03,0.27c-0.02,0.18-0.04,0.34-0.07,0.5
			c-0.02,0.16-0.05,0.3-0.07,0.44c-0.02,0.14-0.05,0.26-0.07,0.37c-0.05,0.22-0.09,0.4-0.12,0.51c-0.03,0.12-0.05,0.18-0.05,0.18
			s0.03-0.06,0.07-0.17c0.04-0.11,0.1-0.28,0.17-0.5c0.03-0.11,0.07-0.23,0.1-0.36c0.03-0.13,0.07-0.28,0.1-0.43
			c0.03-0.16,0.07-0.32,0.1-0.5c0.02-0.09,0.03-0.18,0.05-0.27c0.02-0.09,0.03-0.19,0.04-0.28c0.01-0.1,0.03-0.2,0.04-0.3
			c0.01-0.1,0.02-0.2,0.03-0.31c0.01-0.11,0.02-0.21,0.03-0.32c0.01-0.11,0.01-0.22,0.02-0.33c0.01-0.11,0.01-0.23,0.02-0.34l0-0.09
			l0-0.09c0-0.06,0-0.12,0-0.18c0-0.24,0.01-0.48-0.01-0.72c-0.01-0.49-0.05-1-0.11-1.51c-0.03-0.26-0.07-0.51-0.1-0.77
			c-0.04-0.26-0.09-0.51-0.14-0.77l-0.04-0.19l-0.05-0.19c-0.03-0.13-0.06-0.25-0.09-0.38c-0.03-0.13-0.06-0.25-0.09-0.38
			c-0.04-0.12-0.08-0.25-0.11-0.37c-0.01-0.04-0.03-0.09-0.04-0.13L23.59,28.68z"/>
		<path class="st3" d="M15.92,25.91c-0.22-0.33-0.47-0.73-0.75-1.12c0.93,1.46-1.43,0.82-1.51,0.8c0.43,0.14,0.95,0.26,1.66,0.41
			c0.32,0.07,0.54,0.11,0.75,0.13C16.02,26.07,15.97,25.99,15.92,25.91z"/>
		<path class="st3" d="M23.71,37.14c0,0-0.01-0.01-0.02,0c-0.01,0-0.01,0.01,0,0.02c0.01,0.02,0.02,0.04,0.01,0.07
			c-0.01,0.02-0.02,0.05-0.04,0.06c-0.02,0.01-0.05,0.02-0.07,0.01c-0.02-0.01-0.05-0.02-0.06-0.04c-0.01-0.02-0.02-0.05-0.01-0.07
			c0-0.02,0.02-0.04,0.04-0.06c0.01,0,0.01-0.01,0-0.02c0-0.01-0.01-0.01-0.02-0.01c-0.04,0.02-0.08,0.06-0.09,0.11
			c-0.01,0.04,0,0.08,0.02,0.11c0.02,0.03,0.06,0.06,0.09,0.06c0.02,0,0.05,0,0.07,0c0.05-0.01,0.09-0.06,0.11-0.11
			C23.75,37.22,23.74,37.17,23.71,37.14z"/>
		<path class="st3" d="M23.36,38.79c0,0-0.01-0.01-0.02,0c-0.01,0-0.01,0.01,0,0.02c0.01,0.02,0.02,0.04,0.01,0.07
			c-0.01,0.02-0.02,0.05-0.04,0.06c-0.02,0.01-0.05,0.02-0.07,0.01c-0.02-0.01-0.05-0.02-0.06-0.04c-0.01-0.02-0.02-0.05-0.01-0.07
			c0-0.02,0.02-0.04,0.04-0.06c0.01,0,0.01-0.01,0-0.02c0-0.01-0.01-0.01-0.02-0.01c-0.04,0.02-0.08,0.06-0.09,0.11
			c-0.01,0.04,0,0.08,0.02,0.11c0.02,0.03,0.06,0.06,0.09,0.06c0.02,0,0.05,0,0.07,0c0.05-0.01,0.09-0.06,0.11-0.11
			C23.41,38.88,23.4,38.83,23.36,38.79z"/>
		<path class="st3" d="M31.99,33.3c-0.01,0-0.01,0-0.02,0c0,0-0.01,0.01,0,0.02c0.01,0.02,0.02,0.04,0.02,0.06
			c0,0.02-0.01,0.05-0.03,0.06c-0.02,0.02-0.04,0.02-0.07,0.02c-0.02,0-0.05-0.01-0.06-0.03c-0.02-0.02-0.02-0.04-0.02-0.07
			c0-0.02,0.01-0.04,0.03-0.06c0,0,0.01-0.01,0-0.02c0-0.01-0.01-0.01-0.02,0c-0.04,0.02-0.07,0.07-0.07,0.12
			c0,0.04,0.01,0.08,0.04,0.11c0.03,0.03,0.06,0.05,0.1,0.05c0.02,0,0.05,0,0.07-0.01c0.05-0.02,0.09-0.07,0.09-0.13
			C32.04,33.38,32.03,33.33,31.99,33.3z"/>
		<path class="st3" d="M31.77,35c-0.01,0-0.01,0-0.02,0c0,0-0.01,0.01,0,0.02c0.01,0.02,0.02,0.04,0.02,0.06
			c0,0.02-0.01,0.05-0.03,0.06c-0.02,0.02-0.04,0.02-0.07,0.02c-0.02,0-0.05-0.01-0.06-0.03c-0.02-0.02-0.02-0.04-0.02-0.07
			c0-0.02,0.01-0.04,0.03-0.06c0,0,0.01-0.01,0-0.02c0-0.01-0.01-0.01-0.02,0c-0.04,0.02-0.07,0.07-0.07,0.12
			c0,0.04,0.01,0.08,0.04,0.11c0.03,0.03,0.06,0.05,0.1,0.05c0.02,0,0.05,0,0.07-0.01c0.05-0.02,0.09-0.07,0.09-0.13
			C31.83,35.08,31.81,35.03,31.77,35z"/>
		<path class="st5" d="M10,25.37c0,0-1.35,0.73-2.02,1.2c0,0,1.95-0.64,2.5,0.1c0,0,0.04-0.31-0.01-0.43
			c-0.05-0.12-0.21-0.45-0.22-0.48"/>
		<path class="st5" d="M25.59,19.38c0,0,1.41-0.05,2.48,0.19c0,0-2.2-0.19-1.8,0.29c0.4,0.48-0.19,0.07-0.22,0.01
			c-0.03-0.06-0.31-0.18-0.35-0.22C25.67,19.61,25.59,19.38,25.59,19.38z"/>
		<g>
			<g>
				<path class="st5" d="M3.15,29.39c-0.33-0.12-0.56-0.03-0.69,0.06c-0.77,0.54-0.68,1.79-0.68,1.85c0.01,0.08,0.06,0.14,0.14,0.14
					C2,31.45,2.07,31.4,2.09,31.33c0.04-0.16,0.22-0.63,0.52-0.82c0.05-0.04,0.13-0.02,0.19,0c0.46,0.18,1.23,1.18,1.85,3.44
					c0.07,0.27,0.14,0.53,0.2,0.76c0.37,1.53,0.24,2.56,0.18,2.83c-0.01,0.03-0.01,0.05-0.02,0.08c-0.04,0.19-0.08,0.31-0.08,0.33
					c-0.01,0.03-0.02,0.07-0.04,0.1c-0.05,0.15-0.12,0.24-0.22,0.26c-0.2,0.06-0.48-0.12-0.57-0.19c-0.06-0.05-0.14-0.04-0.2,0.01
					c-0.06,0.05-0.07,0.14-0.03,0.2c0.17,0.26,0.62,0.87,1.14,0.88c0.08,0,0.17-0.01,0.27-0.05c0.1-0.04,0.21-0.12,0.31-0.25
					c0.49-0.65,0.94-2.63,0.16-5.43C5.08,31.07,3.93,29.67,3.15,29.39z"/>
				<path class="st5" d="M9.68,31.02c-0.91-1.91-2.96-4.58-4.29-4.39c-0.52,0.07-0.85,0.54-0.99,1.38c-0.02,0.1,0.04,0.19,0.14,0.22
					c0.09,0.03,0.14-0.2,0.23-0.11c0,0,0.13-0.28,0.37-0.36c0.14-0.05,0.31-0.02,0.49,0.08c0.39,0.22,1.2,1.02,1.92,2.09
					c0.65,0.95,1.48,2.46,1.77,4.27c0.58,3.62,0.16,4.88-0.3,5.31c-0.24,0.22-0.56,0.29-0.98,0.19c-0.08-0.02-0.17,0.02-0.21,0.09
					C7.8,39.85,7.81,39.94,7.86,40c0.03,0.04,0.81,0.93,1.65,0.72c0.05-0.01,0.11-0.03,0.16-0.05c0.53-0.23,0.93-0.9,1.18-2.01
					c0,0,0,0,0-0.01C11.35,35.9,10.54,32.83,9.68,31.02z"/>
			</g>
			<path class="st6" d="M5.45,27.02c-0.19,0.03-0.35,0.16-0.46,0.39c0.01,0,0.02-0.01,0.03-0.01c0.25-0.09,0.52-0.05,0.81,0.11
				c0.85,0.47,3.35,3.23,3.89,6.63c0.49,3.08,0.36,4.93-0.42,5.65c-0.2,0.19-0.45,0.3-0.73,0.33c0.24,0.16,0.55,0.31,0.85,0.23
				c0.45-0.11,0.82-0.73,1.05-1.77c0.49-2.65-0.3-5.63-1.13-7.38C8.38,29.18,6.44,26.88,5.45,27.02z"/>
			<path class="st6" d="M3.05,29.68c-0.17-0.06-0.3-0.05-0.41,0.02c-0.27,0.19-0.41,0.5-0.48,0.8c0.08-0.1,0.17-0.19,0.28-0.26
				c0.09-0.06,0.24-0.11,0.47-0.03c0.56,0.21,1.39,1.28,2.04,3.65c0.08,0.27,0.14,0.53,0.2,0.77c0.39,1.59,0.24,2.67,0.19,2.96
				c-0.01,0.03-0.01,0.06-0.02,0.08c-0.05,0.22-0.09,0.35-0.09,0.36c0,0,0,0,0,0.01c-0.01,0.03-0.02,0.07-0.04,0.1
				c-0.08,0.25-0.23,0.41-0.42,0.46c-0.08,0.02-0.16,0.03-0.23,0.02c0.18,0.17,0.35,0.26,0.5,0.27c0.12,0,0.23-0.05,0.32-0.18
				c0.44-0.58,0.85-2.49,0.1-5.16C4.84,31.36,3.78,29.94,3.05,29.68z"/>
			<g>
				<path class="st0" d="M9.33,31.19c-0.95-2.01-2.9-4.31-3.89-4.17c-0.19,0.03-0.35,0.16-0.46,0.39c0.01,0,0.02-0.01,0.03-0.01
					c0.11-0.04,0.22-0.05,0.34-0.04c0.01,0,0.02-0.01,0.04-0.01c0.99-0.14,2.94,2.17,3.89,4.17c0.8,1.69,1.57,4.53,1.17,7.11
					c0-0.02,0.01-0.04,0.01-0.06C10.95,35.92,10.16,32.94,9.33,31.19z"/>
			</g>
			<g>
				<path class="st0" d="M3.05,29.68c-0.17-0.06-0.3-0.05-0.41,0.02c-0.27,0.19-0.41,0.5-0.48,0.8c0.03-0.04,0.07-0.08,0.11-0.12
					c0.08-0.14,0.18-0.26,0.31-0.36c0.1-0.07,0.24-0.08,0.41-0.02c0.73,0.26,1.8,1.68,2.41,3.89c0.45,1.59,0.48,2.91,0.34,3.84
					c0.2-0.93,0.22-2.38-0.28-4.16C4.84,31.36,3.78,29.94,3.05,29.68z"/>
			</g>
		</g>
	</g>
</g>
</svg>
